<svg id="Layer_1" data-name="Layer 1" xmlns="http://www.w3.org/2000/svg" viewBox="0 0 300 300"><path d="M46.85,136.36v8.46A19.68,19.68,0,0,0,64.26,158.4h8.06v-38a19.16,19.16,0,0,0-25.47,16Z" fill="#c63e35"/><path d="M244.86,165.27v6.82a15.91,15.91,0,0,1-14.06,11h-6.5V152.38a15.47,15.47,0,0,1,20.56,12.89Z" fill="#c63e35"/><path d="M224,148.26v77.48c0,10.42-8.5,18.86-11.5,18.86H91.13c-17.95,0-26.44-8.44-26.44-18.86V105.12a18.91,18.91,0,0,1,19-18.86H205a18.91,18.91,0,0,1,19,18.86v43.14Z" fill="#fccf0b"/><polygon points="253.15 101.95 206.59 101.95 206.59 55.4 208.26 57.07 251.71 100.52 252.66 101.47 253.15 101.95" fill="#d9ecf1"/><polyline points="251.71 139.89 251.71 103.38 251.71 101.95" fill="none" stroke="#d9ecf1" stroke-miterlimit="10" stroke-width="3"/><polyline points="206.59 56.89 170.08 56.89 168.65 56.89" fill="none" stroke="#d9ecf1" stroke-miterlimit="10" stroke-width="3"/><path d="M176.1,130.41h0A9,9,0,0,1,189.39,138l.5,27.43" fill="none" stroke="#e64c3c" stroke-miterlimit="10" stroke-width="4"/><polyline points="180.45 156.17 189.89 165.43 198.32 155.83" fill="none" stroke="#e64c3c" stroke-miterlimit="10" stroke-width="4"/><path d="M244.86,167.82v29.84a19.44,19.44,0,0,1-20.56,18.87H175.05a2.91,2.91,0,0,1-2.91-2.91V181.7a2.91,2.91,0,0,1,2.91-2.91H230.8a15.91,15.91,0,0,0,14.06-11Z" fill="#e64c3c"/><path d="M46.85,144.82v38.56a24.06,24.06,0,0,0,25.47,23.37h88.09a3.6,3.6,0,0,0,3.6-3.6V162a3.61,3.61,0,0,0-3.6-3.61H64.26a19.68,19.68,0,0,1-17.41-13.58Z" fill="#e64c3c"/><text transform="translate(68.98 168.38)" font-size="64.58" fill="#d9ecf1" stroke="#e64c3c" stroke-miterlimit="10" stroke-width="2" font-family="Impact">PDF</text><text transform="translate(178.19 209.73)" font-size="30" fill="#d9ecf1" font-family="Impact">PDF</text></svg>