<svg xmlns="http://www.w3.org/2000/svg" viewBox="0 0 300 300"><g id="Layer_4" data-name="Layer 4"><path d="M244.86,165.27v6.82a15.91,15.91,0,0,1-14.06,11h-6.5V152.38a15.47,15.47,0,0,1,20.56,12.89Z" fill="#c63e35"/><path d="M46.85,136.36v8.46A19.68,19.68,0,0,0,64.26,158.4h8.06v-38a19.16,19.16,0,0,0-25.47,16Z" fill="#c63e35"/><path d="M224.77,148.26v77.48a18.93,18.93,0,0,1-19,18.86H84.47a18.91,18.91,0,0,1-19-18.86V105.12a18.91,18.91,0,0,1,19-18.86H205.79a18.92,18.92,0,0,1,19,18.86v43.14Z" fill="#e64c3c"/><polygon points="253.96 101.95 207.4 101.95 207.4 55.4 209.07 57.07 252.52 100.52 253.47 101.47 253.96 101.95" fill="#d9ecf1"/><polyline points="252.52 139.89 252.52 103.38 252.52 101.95" fill="none" stroke="#d9ecf1" stroke-miterlimit="10" stroke-width="3"/><polyline points="207.4 56.89 170.89 56.89 169.46 56.89" fill="none" stroke="#d9ecf1" stroke-miterlimit="10" stroke-width="3"/><path d="M176.1,130.41h0A9,9,0,0,1,189.39,138l.5,27.43" fill="none" stroke="#e64c3c" stroke-miterlimit="10" stroke-width="4"/><polyline points="180.45 156.17 189.89 165.43 198.32 155.83" fill="none" stroke="#e64c3c" stroke-miterlimit="10" stroke-width="4"/><path d="M46.85,144.82v38.56a24.06,24.06,0,0,0,25.47,23.37h88.09a3.6,3.6,0,0,0,3.6-3.6V162a3.61,3.61,0,0,0-3.6-3.61H64.26a19.68,19.68,0,0,1-17.41-13.58Z" fill="#fccf0b"/><path d="M60.67,173.69l98.35-.1a3.15,3.15,0,0,0,2.22-5.37l-26.37-26.36a3.14,3.14,0,0,0-4.47,0l-6.8,6.94a3.15,3.15,0,0,1-4.47,0L99.42,129.13a3.14,3.14,0,0,0-4.52.08l-36.53,39.2A3.14,3.14,0,0,0,60.67,173.69Z" fill="#d9ecf1" stroke="#fccf0b" stroke-miterlimit="10" stroke-width="3"/><circle cx="132.72" cy="115.19" r="11.13" fill="#d9ecf1" stroke="#fccf0b" stroke-miterlimit="10" stroke-width="3"/><path d="M244.86,167.82v29.84a19.44,19.44,0,0,1-20.56,18.87H175.05a2.91,2.91,0,0,1-2.91-2.91V181.7a2.91,2.91,0,0,1,2.91-2.91H230.8a15.91,15.91,0,0,0,14.06-11Z" fill="#fccf0b"/><path d="M178.86,211.83l43.48,0a1.39,1.39,0,0,0,1-2.37l-11.66-11.66a1.38,1.38,0,0,0-2,0l-3,3.07a1.38,1.38,0,0,1-2,0L196,192.13a1.39,1.39,0,0,0-2,0L177.85,209.5A1.38,1.38,0,0,0,178.86,211.83Z" fill="#d9ecf1"/><circle cx="210.71" cy="185.97" r="4.92" fill="#d9ecf1"/></g></svg>