<svg id="Layer_1" data-name="Layer 1" xmlns="http://www.w3.org/2000/svg" viewBox="0 0 300 300"><path d="M46.85,186.09v-8.46a19.68,19.68,0,0,1,17.41-13.58h8.06v38a19.16,19.16,0,0,1-25.47-16Z" fill="#39a0a5"/><path d="M244.86,160.88v8.46a19.68,19.68,0,0,1-17.42,13.58h-8.05v-38a19.17,19.17,0,0,1,25.47,16Z" fill="#c63e35"/><path d="M224,148.26v77.48a18.92,18.92,0,0,1-19,18.86H83.66a18.91,18.91,0,0,1-19-18.86V105.12a18.91,18.91,0,0,1,19-18.86H205a18.91,18.91,0,0,1,19,18.86v43.14Z" fill="#fccf0b"/><path d="M176.1,115h0a9,9,0,0,1,13.29,7.59l.5,27.43" fill="none" stroke="#e64c3c" stroke-miterlimit="10" stroke-width="4"/><polyline points="180.45 140.74 189.89 150 198.32 140.4" fill="none" stroke="#e64c3c" stroke-miterlimit="10" stroke-width="4"/><path d="M116.74,212.65h0a9,9,0,0,1-13.29-7.58l-.5-27.44" fill="none" stroke="#e64c3c" stroke-miterlimit="10" stroke-width="4"/><polyline points="112.38 186.89 102.95 177.63 94.52 187.24" fill="none" stroke="#e64c3c" stroke-miterlimit="10" stroke-width="4"/><path d="M244.86,164.05v37a24.07,24.07,0,0,1-25.47,23.38h-74a3.61,3.61,0,0,1-3.61-3.6V181.24a3.61,3.61,0,0,1,3.61-3.61h82a19.68,19.68,0,0,0,17.42-13.58Z" fill="#e64c3c"/><path d="M46.85,177.63V139.14a24.07,24.07,0,0,1,25.47-23.38H149a3.61,3.61,0,0,1,3.61,3.6v41.08a3.61,3.61,0,0,1-3.61,3.61H64.26a19.68,19.68,0,0,0-17.41,13.58Z" fill="#52bfc9"/><text transform="translate(72.26 155.15)" font-size="40" fill="#d9ecf1" font-family="Impact">Date</text><path d="M173.31,205.77h-2.47a9.79,9.79,0,0,1-3.62-.77,3.58,3.58,0,0,1-2.34-2.47l-4.15,2.11a8.21,8.21,0,0,0-2.65,2.29,5,5,0,0,0-.84,2.76,5.31,5.31,0,0,0,1.56,3.71,4.85,4.85,0,0,0,3.64,1.68h9l.36,4.43h-8.65a9.54,9.54,0,0,1-7.46-3,10,10,0,0,1-2.69-6.91,9.27,9.27,0,0,1,1.11-4.56,7.4,7.4,0,0,1,3.33-3.11l7.82-3.93a2.23,2.23,0,0,0-.68-1,3.7,3.7,0,0,0-2-.33H156l-.54-4h8a7.28,7.28,0,0,1,2.25.33,9.29,9.29,0,0,1,2.22,1q2.15,1.38,2.15,5.89L167.86,201a2.68,2.68,0,0,0,1.6.29l3.85,0Zm-7.09-17.35a2.46,2.46,0,0,1-.83,1.93,2.94,2.94,0,0,1-2.11.83,3,3,0,0,1-2.11-.72,2.61,2.61,0,0,1-.8-2,2.26,2.26,0,0,1,.83-1.84,3.26,3.26,0,0,1,2.08-.67,4.82,4.82,0,0,1,1.18.11,3.15,3.15,0,0,1,.93.51A2.51,2.51,0,0,1,166.22,188.42Z" fill="#d9ecf1"/><path d="M183.17,200.35a5.53,5.53,0,0,1-1.35,3.74,4.54,4.54,0,0,1-3.56,1.68h-6.95v-4.4h6a1.64,1.64,0,0,0,1.13-.33,2.12,2.12,0,0,0,.22-1.09v-4.73h4.51Zm-5.82,10.11a2.66,2.66,0,0,1-.8,1.78,7.28,7.28,0,0,1-.87.54,3.66,3.66,0,0,1-1.06.19,3.15,3.15,0,0,1-1.93-.69,2.53,2.53,0,0,1-.76-1.82,2.29,2.29,0,0,1,.73-1.75,3.35,3.35,0,0,1,.91-.43,3.07,3.07,0,0,1,1.05-.19,3,3,0,0,1,1.91.64A2.2,2.2,0,0,1,177.35,210.46Zm5.89,0a2.66,2.66,0,0,1-.8,1.78,4.45,4.45,0,0,1-.91.54,3.27,3.27,0,0,1-1,.19,2.72,2.72,0,0,1-1.91-.69,2.55,2.55,0,0,1-.78-1.82,2.24,2.24,0,0,1,.73-1.75,3.35,3.35,0,0,1,.91-.43,3.07,3.07,0,0,1,1-.19,2.93,2.93,0,0,1,1.93.64A2.21,2.21,0,0,1,183.24,210.46Z" fill="#d9ecf1"/><path d="M198,195.22l0,9.2a8.76,8.76,0,0,1-2.3,5.93,7.22,7.22,0,0,1-5.59,2.62H185.6l-.65-4.51h4.14a5,5,0,0,0,3.24-1,2.92,2.92,0,0,0,1.24-2.31v-9.93Z" fill="#d9ecf1"/><path d="M208.73,205.73q-4.29,0-5.54-1.6a5.57,5.57,0,0,1-1.26-3.53V185.91h4.4v13.42a2.9,2.9,0,0,0,.36,1.78,6.81,6.81,0,0,0,2,.26Z" fill="#d9ecf1"/><path d="M219.6,200.35a5.64,5.64,0,0,1-1.34,3.71,4.38,4.38,0,0,1-3.49,1.71h-7v-4.4h6.07A1.73,1.73,0,0,0,215,201a2.22,2.22,0,0,0,.22-1.09v-4.73h4.43Zm-5.71-8.91a2.6,2.6,0,0,1-.8,1.78,6.63,6.63,0,0,1-.87.55,3.35,3.35,0,0,1-1.05.21,2.7,2.7,0,0,1-1.88-.74,2.37,2.37,0,0,1-.81-1.8c0-1.55.89-2.35,2.69-2.4a3.1,3.1,0,0,1,1.92.69A2.1,2.1,0,0,1,213.89,191.44Zm5.9,0a2.64,2.64,0,0,1-.8,1.78,5.8,5.8,0,0,1-.91.55,3.09,3.09,0,0,1-1,.21,2.7,2.7,0,0,1-1.91-.69,2.49,2.49,0,0,1-.78-1.85,2.06,2.06,0,0,1,.69-1.75,3.11,3.11,0,0,1,2-.65,2.7,2.7,0,0,1,1.89.64A2.31,2.31,0,0,1,219.79,191.44Z" fill="#d9ecf1"/><polygon points="253.15 101.95 206.59 101.95 206.59 55.4 208.26 57.07 251.71 100.52 252.66 101.47 253.15 101.95" fill="#d9ecf1"/><polyline points="251.71 139.89 251.71 103.38 251.71 101.95" fill="none" stroke="#d9ecf1" stroke-miterlimit="10" stroke-width="3"/><polyline points="206.59 56.89 170.08 56.89 168.65 56.89" fill="none" stroke="#d9ecf1" stroke-miterlimit="10" stroke-width="3"/></svg>