<svg id="Layer_1" data-name="Layer 1" xmlns="http://www.w3.org/2000/svg" viewBox="0 0 300 300"><defs><style>.cls-1{fill:#c63e35;}.cls-2{fill:#fccf0b;}.cls-3,.cls-5,.cls-9{fill:none;}.cls-3,.cls-7{stroke:#e64c3c;}.cls-3,.cls-5,.cls-6,.cls-7,.cls-9{stroke-miterlimit:10;}.cls-3{stroke-width:4px;}.cls-4{fill:#e64c3c;}.cls-5,.cls-6{stroke:#52bfc9;}.cls-5,.cls-6,.cls-9{stroke-width:3px;}.cls-6,.cls-7,.cls-8{fill:#d9ecf1;}.cls-7{font-size:60.3px;stroke-width:2px;font-family:Impact;}.cls-9{stroke:#d9ecf1;}</style></defs><path class="cls-1" d="M46.08,117.9v8.46a19.68,19.68,0,0,0,17.41,13.58h8.06v-38a19.16,19.16,0,0,0-25.47,16Z"/><path class="cls-2" d="M224.72,148.26v77.48a18.92,18.92,0,0,1-19,18.86H84.43a18.92,18.92,0,0,1-19-18.86V105.12a18.92,18.92,0,0,1,19-18.86H205.75a18.92,18.92,0,0,1,19,18.86v43.14Z"/><path class="cls-3" d="M169.93,132.56h0a9,9,0,0,1,13.29,7.59l.5,27.43"/><polyline class="cls-3" points="174.29 158.33 183.72 167.58 192.15 157.98"/><path class="cls-4" d="M46.08,126.36v36.42a24.07,24.07,0,0,0,25.47,23.38h87.26a3.61,3.61,0,0,0,3.61-3.6v-39a3.61,3.61,0,0,0-3.61-3.61H63.49a19.68,19.68,0,0,1-17.41-13.58Z"/><path class="cls-5" d="M130.71,233.14l66-.07a2.11,2.11,0,0,0,1.49-3.59l-17.69-17.69a2.11,2.11,0,0,0-3,0l-4.56,4.66a2.11,2.11,0,0,1-3,0L156.7,203.25a2.1,2.1,0,0,0-3,.05l-24.51,26.3A2.11,2.11,0,0,0,130.71,233.14Z"/><path class="cls-6" d="M143,227.72l66-.07a2.11,2.11,0,0,0,1.49-3.59l-17.7-17.69a2.1,2.1,0,0,0-3,0L185.22,211a2.11,2.11,0,0,1-3,0L169,197.83a2.1,2.1,0,0,0-3,0l-24.51,26.3A2.11,2.11,0,0,0,143,227.72Z"/><circle class="cls-6" cx="191.33" cy="188.48" r="7.46"/><text class="cls-7" transform="translate(72.09 155.15)">PDF</text><polygon class="cls-8" points="253.92 101.95 207.36 101.95 207.36 55.4 209.03 57.07 252.48 100.52 253.43 101.47 253.92 101.95"/><polyline class="cls-9" points="252.48 139.89 252.48 103.38 252.48 101.95"/><polyline class="cls-9" points="207.36 56.89 170.85 56.89 169.42 56.89"/></svg>