<svg id="Layer_1" data-name="Layer 1" xmlns="http://www.w3.org/2000/svg" viewBox="0 0 300 300"><defs><style>.cls-1{fill:#c63e35;}.cls-2{fill:#fccf0b;}.cls-3{fill:#e64c3c;}.cls-4,.cls-6{fill:none;}.cls-4{stroke:#d9ecf1;}.cls-4,.cls-5,.cls-6{stroke-miterlimit:10;}.cls-4,.cls-5{stroke-width:3px;}.cls-5,.cls-7{fill:#d9ecf1;}.cls-5{stroke:#52bfc9;}.cls-6{stroke:#e64c3c;stroke-width:4px;}</style></defs><path class="cls-1" d="M236.07,157v8.83a20.57,20.57,0,0,1-18.19,14.2h-8.42V140.35c1-.35,9.41-3.16,17.48,2A20.75,20.75,0,0,1,236.07,157Z"/><path class="cls-2" d="M215,148.26v77.48a18.92,18.92,0,0,1-19,18.86H74.74a18.91,18.91,0,0,1-19-18.86V105.12a18.91,18.91,0,0,1,19-18.86H196.06a18.91,18.91,0,0,1,19,18.86v43.14Z"/><path class="cls-3" d="M236.07,165.87v38.62a25.14,25.14,0,0,1-26.61,24.42H132.2a3.77,3.77,0,0,1-3.77-3.77V183.83a3.76,3.76,0,0,1,3.77-3.76h85.68a20.57,20.57,0,0,0,18.19-14.2Z"/><line class="cls-4" x1="145.13" y1="195.36" x2="213.83" y2="195.36"/><line class="cls-4" x1="153.73" y1="212.25" x2="145.13" y2="212.25"/><line class="cls-4" x1="213.83" y1="212.25" x2="161.24" y2="212.25"/><line class="cls-4" x1="145.13" y1="203.81" x2="183.71" y2="203.81"/><line class="cls-4" x1="190.51" y1="203.81" x2="213.83" y2="203.81"/><path class="cls-5" d="M96,166.29l80.73-.08a2.59,2.59,0,0,0,1.82-4.41l-21.65-21.64a2.56,2.56,0,0,0-3.66,0l-5.59,5.7a2.58,2.58,0,0,1-3.66,0l-16.19-16.19a2.58,2.58,0,0,0-3.71.07L94.14,162A2.58,2.58,0,0,0,96,166.29Z"/><circle class="cls-5" cx="155.17" cy="118.27" r="9.13"/><path class="cls-6" d="M117.46,214.44h0a18,18,0,0,1-27.21-14.11l-.51-16.22"/><polyline class="cls-6" points="103.6 204.03 118.75 214.37 107.96 228.44"/><polygon class="cls-7" points="244.23 101.95 197.67 101.95 197.67 55.4 199.34 57.07 242.79 100.52 243.74 101.47 244.23 101.95"/><polyline class="cls-4" points="242.79 139.89 242.79 103.38 242.79 101.95"/><polyline class="cls-4" points="197.67 56.89 161.16 56.89 159.73 56.89"/></svg>