<svg id="Layer_1" data-name="Layer 1" xmlns="http://www.w3.org/2000/svg" viewBox="0 0 300 300"><path d="M49.18,131.7v8.46a19.71,19.71,0,0,0,17.41,13.59h8.06v-38a19.16,19.16,0,0,0-25.47,16Z" fill="#c63e35"/><path d="M221.62,148.26v77.48a18.92,18.92,0,0,1-19,18.86H81.33a18.91,18.91,0,0,1-19-18.86V105.12a18.91,18.91,0,0,1,19-18.86H202.65a18.91,18.91,0,0,1,19,18.86v43.14Z" fill="#52bfc9"/><path d="M49.18,134.87v68.88a24.06,24.06,0,0,0,25.47,23.37h126a3.6,3.6,0,0,0,3.6-3.6V152.06a3.61,3.61,0,0,0-3.6-3.61H66.59a19.68,19.68,0,0,1-17.41-13.58Z" fill="#e64c3c"/><line x1="130.51" y1="181.26" x2="192.19" y2="181.26" fill="none" stroke="#fccf0b" stroke-miterlimit="10" stroke-width="3"/><line x1="138.22" y1="198.15" x2="130.51" y2="198.15" fill="none" stroke="#d9ecf1" stroke-miterlimit="10" stroke-width="3"/><line x1="192.19" y1="198.15" x2="144.97" y2="198.15" fill="none" stroke="#fccf0b" stroke-miterlimit="10" stroke-width="3"/><line x1="113.33" y1="189.7" x2="165.15" y2="189.7" fill="none" stroke="#d9ecf1" stroke-miterlimit="10" stroke-width="3"/><line x1="171.25" y1="189.7" x2="192.19" y2="189.7" fill="none" stroke="#d9ecf1" stroke-miterlimit="10" stroke-width="3"/><line x1="131.19" y1="160.04" x2="192.87" y2="160.04" fill="none" stroke="#fccf0b" stroke-miterlimit="10" stroke-width="3"/><line x1="141.99" y1="168.49" x2="192.87" y2="168.49" fill="none" stroke="#d9ecf1" stroke-miterlimit="10" stroke-width="3"/><line x1="74.65" y1="181.26" x2="124.97" y2="181.26" fill="none" stroke="#d9ecf1" stroke-miterlimit="10" stroke-width="3"/><line x1="82.36" y1="198.15" x2="74.65" y2="198.15" fill="none" stroke="#d9ecf1" stroke-miterlimit="10" stroke-width="3"/><line x1="136.33" y1="198.15" x2="89.11" y2="198.15" fill="none" stroke="#d9ecf1" stroke-miterlimit="10" stroke-width="3"/><line x1="74.65" y1="189.7" x2="109.28" y2="189.7" fill="none" stroke="#fccf0b" stroke-miterlimit="10" stroke-width="3"/><line x1="75.33" y1="160.04" x2="123.8" y2="160.04" fill="none" stroke="#d9ecf1" stroke-miterlimit="10" stroke-width="3"/><line x1="75.33" y1="168.49" x2="109.96" y2="168.49" fill="none" stroke="#fccf0b" stroke-miterlimit="10" stroke-width="3"/><line x1="116.07" y1="168.49" x2="137" y2="168.49" fill="none" stroke="#fccf0b" stroke-miterlimit="10" stroke-width="3"/><line x1="154.93" y1="209.44" x2="192.87" y2="209.44" fill="none" stroke="#d9ecf1" stroke-miterlimit="10" stroke-width="3"/><line x1="122.06" y1="217.89" x2="165.82" y2="217.89" fill="none" stroke="#d9ecf1" stroke-miterlimit="10" stroke-width="3"/><line x1="171.93" y1="217.89" x2="192.87" y2="217.89" fill="none" stroke="#fccf0b" stroke-miterlimit="10" stroke-width="3"/><line x1="75.33" y1="209.44" x2="147.83" y2="209.44" fill="none" stroke="#fccf0b" stroke-miterlimit="10" stroke-width="3"/><line x1="75.33" y1="217.89" x2="116.97" y2="217.89" fill="none" stroke="#fccf0b" stroke-miterlimit="10" stroke-width="3"/><path d="M117,134.8h4.7a13.32,13.32,0,0,0,7.84-2.56l20.61-19a14.56,14.56,0,0,1,8.59-2.8h6.79" fill="none" stroke="#d9ecf1" stroke-miterlimit="10" stroke-width="4"/><polyline points="159.41 104.7 165.52 110.45 159.41 115.94" fill="none" stroke="#d9ecf1" stroke-miterlimit="10" stroke-width="4"/><path d="M145,124.1l4.89,5.2a14.5,14.5,0,0,0,9.36,3.41h6.24" fill="none" stroke="#d9ecf1" stroke-miterlimit="10" stroke-width="4"/><path d="M117,104.7h4.2a13.29,13.29,0,0,1,8.54,3.12l8.84,9.41" fill="none" stroke="#d9ecf1" stroke-miterlimit="10" stroke-width="4"/><polyline points="159.41 138.46 165.52 132.72 159.41 127.23" fill="none" stroke="#d9ecf1" stroke-miterlimit="10" stroke-width="4"/><polygon points="250.82 101.95 204.26 101.95 204.26 55.4 205.93 57.07 249.38 100.52 250.33 101.47 250.82 101.95" fill="#d9ecf1"/><polyline points="249.38 139.89 249.38 103.38 249.38 101.95" fill="none" stroke="#d9ecf1" stroke-miterlimit="10" stroke-width="3"/><polyline points="204.26 56.89 167.75 56.89 166.32 56.89" fill="none" stroke="#d9ecf1" stroke-miterlimit="10" stroke-width="3"/></svg>