<svg xmlns="http://www.w3.org/2000/svg" viewBox="0 0 300 300"><g id="Layer_5" data-name="Layer 5"><path d="M247.12,151.86v8.46a19.68,19.68,0,0,1-17.41,13.58h-8.06v-38a19.16,19.16,0,0,1,25.47,16Z" fill="#c63e35"/><path d="M46.08,197.33v-8.46a19.71,19.71,0,0,1,17.41-13.59h8.06v38a19.17,19.17,0,0,1-25.47-16Z" fill="#c63e35"/><path d="M225,148.26v77.48a18.92,18.92,0,0,1-19,18.86H84.74a18.91,18.91,0,0,1-19-18.86V105.12a18.91,18.91,0,0,1,19-18.86H206.06a18.91,18.91,0,0,1,19,18.86v43.14Z" fill="#fccf0b"/><polygon points="253.92 101.95 207.36 101.95 207.36 55.4 209.03 57.07 252.48 100.52 253.43 101.47 253.92 101.95" fill="#d9ecf1"/><polyline points="252.48 139.89 252.48 103.38 252.48 101.95" fill="none" stroke="#d9ecf1" stroke-miterlimit="10" stroke-width="3"/><polyline points="207.36 56.89 170.85 56.89 169.42 56.89" fill="none" stroke="#d9ecf1" stroke-miterlimit="10" stroke-width="3"/><path d="M46.08,188.87V152.44a24.09,24.09,0,0,1,25.47-23.38h132.2a3.61,3.61,0,0,1,3.61,3.61v39a3.61,3.61,0,0,1-3.61,3.6H63.49a19.71,19.71,0,0,0-17.41,13.59Z" fill="#e64c3c"/><path d="M247.12,160.32v36.42a24.06,24.06,0,0,1-25.47,23.38H89.45a3.6,3.6,0,0,1-3.6-3.6v-39a3.61,3.61,0,0,1,3.6-3.61H229.71a19.68,19.68,0,0,0,17.41-13.58Z" fill="#e64c3c"/><text transform="translate(100.64 156.85)" font-size="60.3" fill="#d9ecf1" stroke="#e64c3c" stroke-miterlimit="10" stroke-width="2" font-family="Impact">PDF</text><text transform="translate(100.64 208.06)" font-size="60.3" fill="#d9ecf1" stroke="#e64c3c" stroke-miterlimit="10" stroke-width="2" font-family="Impact">PDF</text></g></svg>