<svg xmlns="http://www.w3.org/2000/svg" viewBox="0 0 300 300"><g id="Layer_2" data-name="Layer 2"><path d="M43.67,117.15v8.46A19.71,19.71,0,0,0,61.08,139.2h8.06v-38a19.16,19.16,0,0,0-25.47,16Z" fill="#c63e35"/><path d="M227.13,148.26v77.48a18.92,18.92,0,0,1-19,18.86H86.84a18.91,18.91,0,0,1-19-18.86V105.12a18.91,18.91,0,0,1,19-18.86H208.16a18.91,18.91,0,0,1,19,18.86v43.14Z" fill="#fccf0b"/><polygon points="256.33 101.95 209.77 101.95 209.77 55.4 211.44 57.07 254.89 100.52 255.84 101.47 256.33 101.95" fill="#d9ecf1"/><polyline points="254.89 139.89 254.89 103.38 254.89 101.95" fill="none" stroke="#d9ecf1" stroke-miterlimit="10" stroke-width="3"/><polyline points="209.77 56.89 173.26 56.89 171.83 56.89" fill="none" stroke="#d9ecf1" stroke-miterlimit="10" stroke-width="3"/><path d="M43.67,125.61V162a24.06,24.06,0,0,0,25.47,23.38H156.4a3.61,3.61,0,0,0,3.61-3.6v-39a3.61,3.61,0,0,0-3.61-3.6H61.08a19.71,19.71,0,0,1-17.41-13.59Z" fill="#e64c3c"/><text transform="translate(69.68 154.4)" font-size="60.3" fill="#d9ecf1" stroke="#e64c3c" stroke-miterlimit="10" stroke-width="2" font-family="Impact">PDF</text><rect x="144.64" y="191.76" width="71.74" height="40.73" rx="3" fill="#d9ecf1" stroke="#52bfc9" stroke-miterlimit="10" stroke-width="3"/><path d="M169.93,132.56h0a9,9,0,0,1,13.29,7.59l.5,27.43" fill="none" stroke="#e64c3c" stroke-miterlimit="10" stroke-width="4"/><polyline points="174.29 158.33 183.72 167.58 192.15 157.98" fill="none" stroke="#e64c3c" stroke-miterlimit="10" stroke-width="4"/><line x1="150.06" y1="201.06" x2="210.96" y2="201.06" fill="none" stroke="#52bfc9" stroke-miterlimit="10" stroke-width="3"/><line x1="157.68" y1="223.18" x2="150.06" y2="223.18" fill="none" stroke="#52bfc9" stroke-miterlimit="10" stroke-width="3"/><line x1="210.96" y1="223.18" x2="164.34" y2="223.18" fill="none" stroke="#52bfc9" stroke-miterlimit="10" stroke-width="3"/><line x1="150.06" y1="212.12" x2="184.25" y2="212.12" fill="none" stroke="#52bfc9" stroke-miterlimit="10" stroke-width="3"/><line x1="190.29" y1="212.12" x2="210.96" y2="212.12" fill="none" stroke="#52bfc9" stroke-miterlimit="10" stroke-width="3"/></g></svg>