<svg xmlns="http://www.w3.org/2000/svg" viewBox="0 0 300 300"><g id="Layer_6" data-name="Layer 6"><path d="M244.86,160.88v8.46a19.68,19.68,0,0,1-17.42,13.58h-8.05v-38a19.17,19.17,0,0,1,25.47,16Z" fill="#39a0a5"/><path d="M224,148.26v77.48a18.92,18.92,0,0,1-19,18.86H83.66a18.91,18.91,0,0,1-19-18.86V105.12a18.91,18.91,0,0,1,19-18.86H205a18.91,18.91,0,0,1,19,18.86v43.14Z" fill="#fccf0b"/><path d="M170.7,132.56h0A9,9,0,0,1,184,140.15l.5,27.43" fill="none" stroke="#e64c3c" stroke-miterlimit="10" stroke-width="4"/><polyline points="175.05 158.33 184.49 167.58 192.92 157.98" fill="none" stroke="#e64c3c" stroke-miterlimit="10" stroke-width="4"/><path d="M244.86,169.34v37a24.07,24.07,0,0,1-25.47,23.38h-74a3.61,3.61,0,0,1-3.61-3.6V186.53a3.61,3.61,0,0,1,3.61-3.61h82a19.68,19.68,0,0,0,17.42-13.58Z" fill="#52bfc9"/><text transform="translate(168.42 223.12)" font-size="41.42" fill="#d9ecf1" font-family="Impact">W</text><polygon points="253.15 101.95 206.59 101.95 206.59 55.4 208.26 57.07 251.71 100.52 252.66 101.47 253.15 101.95" fill="#d9ecf1"/><polyline points="251.71 139.89 251.71 103.38 251.71 101.95" fill="none" stroke="#d9ecf1" stroke-miterlimit="10" stroke-width="3"/><polyline points="206.59 56.89 170.08 56.89 168.65 56.89" fill="none" stroke="#d9ecf1" stroke-miterlimit="10" stroke-width="3"/><path d="M46.08,117.9v8.46a19.68,19.68,0,0,0,17.41,13.58h8.06v-38a19.16,19.16,0,0,0-25.47,16Z" fill="#c63e35"/><path d="M46.08,126.36v36.42a24.07,24.07,0,0,0,25.47,23.38h87.26a3.61,3.61,0,0,0,3.61-3.6v-39a3.61,3.61,0,0,0-3.61-3.61H63.49a19.68,19.68,0,0,1-17.41-13.58Z" fill="#e64c3c"/><text transform="translate(72.09 155.15)" font-size="60.3" fill="#d9ecf1" stroke="#e64c3c" stroke-miterlimit="10" stroke-width="2" font-family="Impact">PDF</text></g></svg>