<svg xmlns="http://www.w3.org/2000/svg" viewBox="0 0 300 300"><g id="Layer_4" data-name="Layer 4"><path d="M224.77,148.26v77.48a18.93,18.93,0,0,1-19,18.86H84.47a18.91,18.91,0,0,1-19-18.86V105.12a18.91,18.91,0,0,1,19-18.86H205.79a18.92,18.92,0,0,1,19,18.86v43.14Z" fill="#e64c3c"/><polygon points="253.96 101.95 207.4 101.95 207.4 55.4 209.07 57.07 252.52 100.52 253.47 101.47 253.96 101.95" fill="#d9ecf1"/><polyline points="252.52 139.89 252.52 103.38 252.52 101.95" fill="none" stroke="#d9ecf1" stroke-miterlimit="10" stroke-width="3"/><polyline points="207.4 56.89 170.89 56.89 169.46 56.89" fill="none" stroke="#d9ecf1" stroke-miterlimit="10" stroke-width="3"/><path d="M85.46,180.08v9.57A2.34,2.34,0,0,1,83.11,192h-15a2.34,2.34,0,0,1-2.34-2.33v-14.9a2.33,2.33,0,0,1,2.34-2.33h15a2.34,2.34,0,0,1,2.35,2.33v5.33Z" fill="#d9ecf1"/><path d="M105.3,180.08v9.57A2.34,2.34,0,0,1,103,192H88a2.34,2.34,0,0,1-2.34-2.33v-14.9A2.33,2.33,0,0,1,88,172.42h15a2.33,2.33,0,0,1,2.34,2.33v5.33Z" fill="#e64c3c"/><path d="M125.15,180.08v9.57a2.34,2.34,0,0,1-2.34,2.33h-15a2.34,2.34,0,0,1-2.34-2.33v-14.9a2.33,2.33,0,0,1,2.34-2.33h15a2.33,2.33,0,0,1,2.34,2.33v5.33Z" fill="#d9ecf1"/><path d="M145,180.08v9.57a2.34,2.34,0,0,1-2.34,2.33h-15a2.34,2.34,0,0,1-2.34-2.33v-14.9a2.33,2.33,0,0,1,2.34-2.33h15a2.33,2.33,0,0,1,2.34,2.33v5.33Z" fill="#e64c3c"/><path d="M164.85,180.08v9.57a2.34,2.34,0,0,1-2.34,2.33h-15a2.34,2.34,0,0,1-2.34-2.33v-14.9a2.33,2.33,0,0,1,2.34-2.33h15a2.33,2.33,0,0,1,2.34,2.33v5.33Z" fill="#d9ecf1"/><path d="M184.7,180.08v9.57a2.34,2.34,0,0,1-2.34,2.33h-15a2.33,2.33,0,0,1-2.34-2.33v-14.9a2.33,2.33,0,0,1,2.34-2.33h15a2.33,2.33,0,0,1,2.34,2.33v5.33Z" fill="#e64c3c"/><path d="M204.55,180.08v9.57a2.34,2.34,0,0,1-2.34,2.33h-15a2.34,2.34,0,0,1-2.35-2.33v-14.9a2.34,2.34,0,0,1,2.35-2.33h15a2.33,2.33,0,0,1,2.34,2.33v5.33Z" fill="#d9ecf1"/><path d="M224.4,180.08v9.57a2.34,2.34,0,0,1-2.34,2.33h-15a2.34,2.34,0,0,1-2.35-2.33v-14.9a2.34,2.34,0,0,1,2.35-2.33h15a2.33,2.33,0,0,1,2.34,2.33v5.33Z" fill="#e64c3c"/><path d="M105.39,199.64v9.57a2.33,2.33,0,0,1-2.34,2.33h-15a2.34,2.34,0,0,1-2.35-2.33v-14.9A2.34,2.34,0,0,1,88.06,192h15a2.33,2.33,0,0,1,2.34,2.33v5.33Z" fill="#d9ecf1"/><path d="M125.24,199.64v9.57a2.33,2.33,0,0,1-2.34,2.33h-15a2.34,2.34,0,0,1-2.35-2.33v-14.9a2.34,2.34,0,0,1,2.35-2.33h15a2.33,2.33,0,0,1,2.34,2.33v5.33Z" fill="#e64c3c"/><path d="M145.09,199.64v9.57a2.33,2.33,0,0,1-2.34,2.33h-15a2.34,2.34,0,0,1-2.35-2.33v-14.9a2.34,2.34,0,0,1,2.35-2.33h15a2.33,2.33,0,0,1,2.34,2.33v5.33Z" fill="#d9ecf1"/><path d="M164.94,199.64v9.57a2.34,2.34,0,0,1-2.35,2.33h-15a2.34,2.34,0,0,1-2.35-2.33v-14.9a2.34,2.34,0,0,1,2.35-2.33h15a2.34,2.34,0,0,1,2.35,2.33v5.33Z" fill="#e64c3c"/><path d="M184.79,199.64v9.57a2.34,2.34,0,0,1-2.35,2.33h-15a2.34,2.34,0,0,1-2.35-2.33v-14.9a2.34,2.34,0,0,1,2.35-2.33h15a2.34,2.34,0,0,1,2.35,2.33v5.33Z" fill="#d9ecf1"/><path d="M204.64,199.64v9.57a2.34,2.34,0,0,1-2.35,2.33h-15a2.33,2.33,0,0,1-2.34-2.33v-14.9A2.33,2.33,0,0,1,187.3,192h15a2.34,2.34,0,0,1,2.35,2.33v5.33Z" fill="#e64c3c"/><path d="M224.49,199.64v9.57a2.34,2.34,0,0,1-2.35,2.33h-15a2.33,2.33,0,0,1-2.34-2.33v-14.9a2.33,2.33,0,0,1,2.34-2.33h15a2.34,2.34,0,0,1,2.35,2.33v5.33Z" fill="#d9ecf1"/><path d="M85.46,199.64v9.57a2.34,2.34,0,0,1-2.35,2.33h-15a2.33,2.33,0,0,1-2.34-2.33v-14.9A2.33,2.33,0,0,1,68.12,192h15a2.34,2.34,0,0,1,2.35,2.33v5.33Z" fill="#e64c3c"/><path d="M85.46,141v9.57a2.34,2.34,0,0,1-2.35,2.33h-15a2.33,2.33,0,0,1-2.34-2.33v-14.9a2.33,2.33,0,0,1,2.34-2.33h15a2.34,2.34,0,0,1,2.35,2.33V141Z" fill="#d9ecf1"/><path d="M105.3,141v9.57a2.33,2.33,0,0,1-2.34,2.33H88a2.33,2.33,0,0,1-2.34-2.33v-14.9A2.33,2.33,0,0,1,88,133.29h15a2.33,2.33,0,0,1,2.34,2.33V141Z" fill="#e64c3c"/><path d="M125.15,141v9.57a2.33,2.33,0,0,1-2.34,2.33h-15a2.33,2.33,0,0,1-2.34-2.33v-14.9a2.33,2.33,0,0,1,2.34-2.33h15a2.33,2.33,0,0,1,2.34,2.33V141Z" fill="#d9ecf1"/><path d="M145,141v9.57a2.33,2.33,0,0,1-2.34,2.33h-15a2.33,2.33,0,0,1-2.34-2.33v-14.9a2.33,2.33,0,0,1,2.34-2.33h15a2.33,2.33,0,0,1,2.34,2.33V141Z" fill="#e64c3c"/><path d="M164.85,141v9.57a2.33,2.33,0,0,1-2.34,2.33h-15a2.33,2.33,0,0,1-2.34-2.33v-14.9a2.33,2.33,0,0,1,2.34-2.33h15a2.33,2.33,0,0,1,2.34,2.33V141Z" fill="#d9ecf1"/><path d="M184.7,141v9.57a2.33,2.33,0,0,1-2.34,2.33h-15a2.33,2.33,0,0,1-2.34-2.33v-14.9a2.33,2.33,0,0,1,2.34-2.33h15a2.33,2.33,0,0,1,2.34,2.33V141Z" fill="#e64c3c"/><path d="M204.55,141v9.57a2.33,2.33,0,0,1-2.34,2.33h-15a2.34,2.34,0,0,1-2.35-2.33v-14.9a2.34,2.34,0,0,1,2.35-2.33h15a2.33,2.33,0,0,1,2.34,2.33V141Z" fill="#d9ecf1"/><path d="M224.4,141v9.57a2.33,2.33,0,0,1-2.34,2.33h-15a2.34,2.34,0,0,1-2.35-2.33v-14.9a2.34,2.34,0,0,1,2.35-2.33h15a2.33,2.33,0,0,1,2.34,2.33V141Z" fill="#e64c3c"/><path d="M105.39,160.51v9.57a2.34,2.34,0,0,1-2.34,2.34h-15a2.35,2.35,0,0,1-2.35-2.34v-14.9a2.34,2.34,0,0,1,2.35-2.33h15a2.34,2.34,0,0,1,2.34,2.33v5.33Z" fill="#d9ecf1"/><path d="M125.24,160.51v9.57a2.34,2.34,0,0,1-2.34,2.34h-15a2.35,2.35,0,0,1-2.35-2.34v-14.9a2.34,2.34,0,0,1,2.35-2.33h15a2.34,2.34,0,0,1,2.34,2.33v5.33Z" fill="#e64c3c"/><path d="M145.09,160.51v9.57a2.34,2.34,0,0,1-2.34,2.34h-15a2.35,2.35,0,0,1-2.35-2.34v-14.9a2.34,2.34,0,0,1,2.35-2.33h15a2.34,2.34,0,0,1,2.34,2.33v5.33Z" fill="#d9ecf1"/><path d="M164.94,160.51v9.57a2.35,2.35,0,0,1-2.35,2.34h-15a2.35,2.35,0,0,1-2.35-2.34v-14.9a2.34,2.34,0,0,1,2.35-2.33h15a2.34,2.34,0,0,1,2.35,2.33v5.33Z" fill="#e64c3c"/><path d="M184.79,160.51v9.57a2.35,2.35,0,0,1-2.35,2.34h-15a2.35,2.35,0,0,1-2.35-2.34v-14.9a2.34,2.34,0,0,1,2.35-2.33h15a2.34,2.34,0,0,1,2.35,2.33v5.33Z" fill="#d9ecf1"/><path d="M204.64,160.51v9.57a2.35,2.35,0,0,1-2.35,2.34h-15a2.34,2.34,0,0,1-2.34-2.34v-14.9a2.34,2.34,0,0,1,2.34-2.33h15a2.34,2.34,0,0,1,2.35,2.33v5.33Z" fill="#e64c3c"/><path d="M224.49,160.51v9.57a2.35,2.35,0,0,1-2.35,2.34h-15a2.34,2.34,0,0,1-2.34-2.34v-14.9a2.34,2.34,0,0,1,2.34-2.33h15a2.34,2.34,0,0,1,2.35,2.33v5.33Z" fill="#d9ecf1"/><path d="M85.46,160.51v9.57a2.35,2.35,0,0,1-2.35,2.34h-15a2.34,2.34,0,0,1-2.34-2.34v-14.9a2.34,2.34,0,0,1,2.34-2.33h15a2.34,2.34,0,0,1,2.35,2.33v5.33Z" fill="#e64c3c"/><path d="M96,192l98.35-.1a3.15,3.15,0,0,0,2.22-5.37l-26.37-26.37a3.15,3.15,0,0,0-4.47,0l-6.8,6.94a3.14,3.14,0,0,1-4.47,0l-19.71-19.71a3.14,3.14,0,0,0-4.52.08L93.66,186.69A3.15,3.15,0,0,0,96,192Z" fill="#fccf0b" stroke="#d9ecf1" stroke-miterlimit="10" stroke-width="3"/><circle cx="168.01" cy="133.48" r="11.13" fill="#fccf0b" stroke="#d9ecf1" stroke-miterlimit="10" stroke-width="3"/></g></svg>