<svg xmlns="http://www.w3.org/2000/svg" xmlns:xlink="http://www.w3.org/1999/xlink" viewBox="0 0 1053.3 1069.74"><defs><linearGradient id="linear-gradient" x1="6700.77" y1="1031.56" x2="6718.74" y2="1031.56" gradientTransform="translate(-6484.35)" gradientUnits="userSpaceOnUse"><stop offset="0" stop-color="#febbba"/><stop offset="1" stop-color="#ff928e"/></linearGradient><linearGradient id="linear-gradient-2" x1="6636" y1="1030.64" x2="6651.52" y2="1030.64" xlink:href="#linear-gradient"/></defs><g id="Layer_2" data-name="Layer 2"><g id="Illustration"><path d="M931.21,920.89c-21.63,22.77-42.1,37.45-58.27,49.05-190.06,136.37-414.95,96.62-462.75,86.91-70.58-14.33-207-42-305.64-158-149.23-175.49-126-452-10.24-634.47C115.48,231,227.32,45.67,454.64,16,592.21-2,752.57,34.24,868.7,131.53,1112.46,335.76,1095.11,748.34,931.21,920.89Z" fill="#dcedf2"/><path d="M720.06,1034a6.8,6.8,0,0,1-4.57-2.7c-16-21.62-132.69-190.81,22.55-345.46C885.41,539,952.21,508.86,961.1,422.6c1-10.07,14.66-12.49,19.14-3.41,33.48,67.87,85.65,226.25-87,330.2C702.79,864.06,718.39,989.76,727.6,1025.48a6.83,6.83,0,0,1-7.54,8.5Z" fill="#51bec8"/><path d="M743.68,1037.2a9.88,9.88,0,0,1-8.44-8.26c-4.54-29.42-15.71-139.36,65.28-168.51,89.16-32.09,161.15,51,226.68-14a5,5,0,0,1,8.43,4.35c-5.84,33.95-31.82,112.59-147.42,128.41-123.73,16.93-137.65,31.13-135.15,48.74a8.31,8.31,0,0,1-9.38,9.32Z" fill="#51bec8"/><path d="M956.79,510.55a126.49,126.49,0,0,1-5.92,18.36,187,187,0,0,1-8,17.45,229.86,229.86,0,0,1-20.57,32.46,269.41,269.41,0,0,1-54.87,53.77,350,350,0,0,1-32.2,20.87,293.81,293.81,0,0,0-30.56,20.47,322,322,0,0,0-52.92,51.12c-31.18,37.92-53.31,83.69-60.59,132.42a257.45,257.45,0,0,0-.42,73.71c3.31,24.54,10.31,48.57,19.53,71.74a2.41,2.41,0,0,1-4.42,1.93,288.8,288.8,0,0,1-23.3-72.38A250.6,250.6,0,0,1,680.36,856,262.74,262.74,0,0,1,701,782a297.89,297.89,0,0,1,40.14-65.53,321.43,321.43,0,0,1,54.94-53.72A309.8,309.8,0,0,1,828,641.18a349.62,349.62,0,0,0,31.22-19.81,295.55,295.55,0,0,0,54.31-49.53,257.75,257.75,0,0,0,22-29.68c6.52-10.41,12.61-21.4,17-32.76l.06-.15a2.2,2.2,0,0,1,4.2,1.3Z" fill="#d8ebf1" opacity="0.8"/><path d="M738.54,1017.24a7.86,7.86,0,0,0,.23-3.07l-.1-3-.07-6.06q0-6.06.27-12.12c.36-8.07,1-16.13,2.13-24.15,2.2-16,5.83-32,12.3-47s16.08-29.22,30.13-38.54a66.52,66.52,0,0,1,23.08-9.5,84.73,84.73,0,0,1,24.8-1.26c32.21,3.74,63.78,9.91,95.43,14.93,15.77,2.35,31.76,4.45,47.24,2.33a69.53,69.53,0,0,0,11.32-2.59,59.42,59.42,0,0,0,10.56-4.72,74.51,74.51,0,0,0,17.94-14.92l0,0a2,2,0,0,1,2.94,2.6,78.65,78.65,0,0,1-18.65,16.18,64.09,64.09,0,0,1-11.3,5.33,74.59,74.59,0,0,1-12.09,3c-16.49,2.41-32.83.36-48.78-1.83s-31.78-5.24-47.63-7.81-31.78-5-47.51-6.9a79,79,0,0,0-23.2,1,61.14,61.14,0,0,0-21.32,8.55c-13.07,8.32-22.56,21.58-29,35.92s-10.4,30-12.85,45.77c-1.21,7.89-2,15.84-2.54,23.82q-.37,6-.49,12l0,6,0,3a6.52,6.52,0,0,0,.47,2.95,1.82,1.82,0,1,1-3.34.24Z" fill="#d8ebf1" opacity="0.8"/><path d="M570.26,12.15c-48.53-.39-97.48,7.31-140.78,25.28C328.67,79.26,243.11,189.93,276.59,303c10.88,36.72,5.17,77.24,41.75,93.2,19.8,8.63,73.7,13.77,94.2,7,54.47-18.09,90.28-67.59,60.65-122.48-9.48-17.58-21.76-33.64-30-51.86s-11.92-39.84-3.57-58c16.39-35.62,70.86-46.95,106.18-45.88,41.7,1.26,79.47,21.88,101.91,57.26,28,44.09,35,97.71,31,148.89-4.38,54.76-27.47,96.57-62.07,138.58C586.84,505.84,554,540.55,534.23,583c-18.18,39-24.12,82.19-24.94,124.84-.16,8.27-41.27,86.17-41.09,110,0,3.36,46.63,14.5,50,14.53l85.54,1a6.81,6.81,0,0,0,6.9-6.73c1.3-115.79,36.92-226.19,127.08-304,32.81-28.3,68.14-51.34,93.66-87.06,36.35-50.91,54.29-101,49.12-163.84-4.73-57.38-23.63-114.79-61-159.32-40.2-47.85-99-77.73-160.19-90.63A451.54,451.54,0,0,0,570.26,12.15Z" fill="#8b8b8c"/><path d="M659.75,963.14c0,53.25-29.52,100.36-82.77,100.36-11.5,0-50.62.11-60.85-3.59C479,1046.5,478.87,1018,478.87,976.24c0-53.25,18-105.62,71.23-105.62S659.75,909.89,659.75,963.14Z" fill="#8b8b8c"/><path d="M524.15,0c-48.53-.38-97.48,7.32-140.78,25.28C282.56,67.12,197,177.8,230.49,290.84c10.87,36.73,36,83,72.6,98.91,19.8,8.64,42.84,8.07,63.34,1.26,54.47-18.08,90.28-67.58,60.65-122.48-9.48-17.58-21.76-33.64-30-51.86s-11.92-39.84-3.57-58c16.4-35.62,70.86-46.94,106.19-45.87,41.69,1.26,79.46,21.88,101.9,57.25,28,44.09,35,97.72,31,148.89-4.38,54.76-27.47,96.58-62.07,138.59-29.79,36.16-62.6,70.88-82.4,113.35-18.18,39-24.12,82.18-24.94,124.84-.16,8.26,2.63,94.59,2.8,118.39a6.17,6.17,0,0,0,6.1,6.12l85.54,1a6.82,6.82,0,0,0,6.9-6.73c1.3-115.8,36.92-226.2,127.09-304,32.8-28.29,68.14-51.34,93.65-87.05,36.36-50.91,54.29-101,49.12-163.84-4.73-57.38-23.63-114.8-61-159.32-40.2-47.85-99-77.73-160.19-90.63A451.54,451.54,0,0,0,524.15,0Z" fill="#fcce08"/><circle cx="529.18" cy="964.1" r="96.41" fill="#fcce08"/><path d="M262.4,279.77a1.24,1.24,0,0,1-1.21-1c-6.75-30.51-7.75-78.28,25.9-132.63C319.93,93.13,366,57.63,424,40.67c62-18.12,135.63-14.24,218.82,11.54a1.24,1.24,0,1,1-.73,2.36C482.26,5.05,356.93,38,289.19,147.47,256,201.11,257,248.21,263.61,278.27a1.24,1.24,0,0,1-.94,1.47Z" fill="#fff" opacity="0.63"/><path d="M282.68,328.86a1.24,1.24,0,0,1-1-.51c-.29-.4-7.24-10-13.7-26.91a1.24,1.24,0,1,1,2.31-.88c6.33,16.57,13.32,26.23,13.39,26.33a1.24,1.24,0,0,1-1,2Z" fill="#fff" opacity="0.63"/><path d="M561.44,901.61a1.24,1.24,0,0,1-.56-.13,69.46,69.46,0,0,0-31.7-7.55,1.24,1.24,0,0,1,0-2.48A71.87,71.87,0,0,1,562,899.27a1.24,1.24,0,0,1-.56,2.34Z" fill="#fff" opacity="0.63"/><path d="M489.25,1024.56a1.18,1.18,0,0,1-.69-.22,72.67,72.67,0,0,1,6.27-124.27,1.24,1.24,0,1,1,1.17,2.18,70.19,70.19,0,0,0-6.06,120,1.24,1.24,0,0,1,.34,1.72A1.23,1.23,0,0,1,489.25,1024.56Z" fill="#fff" opacity="0.63"/><g opacity="0.3"><path d="M208.45,180.38a2.92,2.92,0,0,1-4.1.43c-2.43-2-5-3.86-7.59-5.63a2.9,2.9,0,0,1-.81-4l0-.05a2.91,2.91,0,0,1,4.05-.78c2.74,1.86,5.43,3.85,8,5.93a2.92,2.92,0,0,1,.62,3.85C208.58,180.21,208.52,180.3,208.45,180.38Zm-25-12.92c-2.82-1.39-5.72-2.68-8.64-3.82a2.92,2.92,0,1,1,2.13-5.43c3.07,1.2,6.13,2.55,9.1,4a2.92,2.92,0,0,1,1.32,3.91c0,.1-.11.2-.17.3A2.92,2.92,0,0,1,183.48,167.46Zm-23.28-8.41c-3-.73-6.17-1.33-9.28-1.8a2.92,2.92,0,0,1,.86-5.77c3.27.49,6.56,1.13,9.77,1.89a2.92,2.92,0,0,1,2.16,3.52,2.85,2.85,0,0,1-.39.91A2.91,2.91,0,0,1,160.2,159.05Zm-24.59-3c-3.14,0-6.31.09-9.44.33a2.92,2.92,0,1,1-.45-5.82c3.29-.25,6.64-.37,9.94-.34a2.92,2.92,0,0,1,2.9,2.94,3,3,0,0,1-.47,1.56A2.92,2.92,0,0,1,135.61,156.05ZM111,158.61c-3.06.67-6.14,1.48-9.14,2.41a2.92,2.92,0,0,1-1.73-5.57c3.16-1,6.4-1.83,9.62-2.54a2.91,2.91,0,0,1,3.47,2.23,2.91,2.91,0,0,1-2.22,3.47Zm-23.46,7.95c-2.84,1.33-5.66,2.8-8.38,4.37a2.92,2.92,0,0,1-2.91-5.06c2.86-1.65,5.82-3.2,8.81-4.6a2.92,2.92,0,1,1,2.48,5.29ZM21.76,252.67a2.92,2.92,0,0,1-2.45-3.32c.49-3.27,1.14-6.55,1.91-9.77a2.92,2.92,0,1,1,5.67,1.36c-.73,3.06-1.34,6.18-1.81,9.28a2.86,2.86,0,0,1-.43,1.15A3,3,0,0,1,21.76,252.67ZM66.42,179.5c-2.47,1.93-4.89,4-7.19,6.12a2.92,2.92,0,0,1-4-4.28c2.42-2.24,5-4.41,7.57-6.44a2.92,2.92,0,0,1,4.24,3.89A3.1,3.1,0,0,1,66.42,179.5ZM27.73,228a2.92,2.92,0,0,1-1.64-3.79c1.21-3.07,2.57-6.12,4-9.09a2.92,2.92,0,1,1,5.22,2.6c-1.39,2.81-2.68,5.72-3.83,8.64a4.25,4.25,0,0,1-.27.52A2.92,2.92,0,0,1,27.73,228Zm21-31.13c-2,2.44-3.88,5-5.65,7.58a2.92,2.92,0,0,1-4.86-3.23l0,0c1.86-2.73,3.86-5.42,5.94-8a2.92,2.92,0,0,1,4.71,3.43Z" fill="#51bec8"/><path d="M23.43,271.82a2.84,2.84,0,0,0,.47-1.67c0-1.51-.06-3,0-4.55a2.92,2.92,0,1,0-5.83-.05c0,1.59,0,3.2.05,4.78a2.92,2.92,0,0,0,3,2.82A2.89,2.89,0,0,0,23.43,271.82Z" fill="#51bec8"/></g><g opacity="0.3"><path d="M60.72,352.59a2.92,2.92,0,0,0-.49-3.76c-1.11-1-2.23-2.05-3.31-3.11a2.92,2.92,0,0,0-4.09,4.16c1.14,1.12,2.31,2.22,3.49,3.28a2.92,2.92,0,0,0,4.12-.2A3,3,0,0,0,60.72,352.59Z" fill="#51bec8"/><path d="M229,335.11a2.92,2.92,0,1,1-4.73-3.42c1.79-2.48,3.51-5.09,5.12-7.76a2.92,2.92,0,0,1,5,3c-.7,1.16-1.41,2.3-2.14,3.43C231.18,332,230.09,333.57,229,335.11Zm8.83-20.78a2.93,2.93,0,0,1-1.53-3.84c1.23-2.84,2.34-5.76,3.32-8.69a2.92,2.92,0,0,1,5.54,1.85c-1,3.08-2.21,6.16-3.5,9.15a4.53,4.53,0,0,1-.23.44A2.92,2.92,0,0,1,237.81,314.33Zm-19,33c-2.24,2.35-4.61,4.64-7.05,6.79a2.92,2.92,0,0,1-3.87-4.37c2.32-2.05,4.57-4.22,6.7-6.45a2.92,2.92,0,0,1,4.56,3.61A2.72,2.72,0,0,1,218.81,347.33Zm26.92-56.74a2.92,2.92,0,0,1-2.33-3.41c.57-3,1-6.13,1.33-9.2a2.92,2.92,0,1,1,5.81.59c-.33,3.23-.8,6.49-1.4,9.69a3,3,0,0,1-.42,1.05A2.92,2.92,0,0,1,245.73,290.59ZM199.16,363.8c-2.7,1.8-5.52,3.5-8.37,5.07a2.92,2.92,0,1,1-2.81-5.12c2.71-1.48,5.38-3.1,8-4.81a2.92,2.92,0,0,1,3.23,4.86Zm-22.79,11.76c-3,1.16-6.16,2.21-9.28,3.12a2.91,2.91,0,1,1-1.62-5.6c3-.87,5.92-1.86,8.81-3a2.92,2.92,0,1,1,2.09,5.45Zm-24.81,6.51c-3.22.48-6.5.82-9.74,1a2.92,2.92,0,0,1-.37-5.83c3.08-.19,6.2-.52,9.26-1a2.92,2.92,0,0,1,.85,5.77Zm-25.64.94c-3.25-.24-6.52-.62-9.73-1.13a2.92,2.92,0,0,1,.92-5.76c3,.49,6.16.85,9.24,1.07a2.91,2.91,0,0,1,2.69,3.13,2.8,2.8,0,0,1-.46,1.37A2.92,2.92,0,0,1,125.92,383Zm-25.23-4.71c-3.11-.95-6.22-2-9.24-3.25a2.92,2.92,0,0,1,2.17-5.42c2.87,1.15,5.82,2.19,8.77,3.09a2.92,2.92,0,0,1,1.94,3.64,2.79,2.79,0,0,1-.35.74A2.91,2.91,0,0,1,100.69,378.3ZM77.13,368.17C75.05,367,73,365.73,71,364.43L68.82,363a2.92,2.92,0,0,1,3.28-4.83c.68.46,1.36.92,2.05,1.37C76.06,360.77,78,362,80,363.09a2.92,2.92,0,0,1,1.1,4l-.09.15A2.92,2.92,0,0,1,77.13,368.17Z" fill="#51bec8"/><path d="M250.58,264.29a3,3,0,0,0,.47-1.69c-.06-1.58-.15-3.19-.28-4.78a2.91,2.91,0,0,0-5.81.45c.11,1.52.2,3,.26,4.54a2.91,2.91,0,0,0,5.36,1.48Z" fill="#51bec8"/></g><path d="M214,230.19a1.36,1.36,0,0,0-1.27-.94l-16.59-.37A72.73,72.73,0,0,0,181,211l2.36-16.41a1.36,1.36,0,0,0-.72-1.41l-17.7-9.11a1.37,1.37,0,0,0-1.57.23l-12,11.47A72.22,72.22,0,0,0,128,193.84l-9.94-13.29a1.35,1.35,0,0,0-1.51-.48l-19,6.07a1.36,1.36,0,0,0-.94,1.27L96.31,204a72.4,72.4,0,0,0-17.88,15.14L62,216.77a1.37,1.37,0,0,0-1.41.73L51.5,235.2a1.33,1.33,0,0,0,.23,1.56l11.46,12a72.45,72.45,0,0,0-1.92,23.34L48,282a1.36,1.36,0,0,0-.48,1.51l6.07,19a1.39,1.39,0,0,0,1.27.95l16.59.36a72.19,72.19,0,0,0,15.14,17.88L84.2,338.11a1.36,1.36,0,0,0,.72,1.4l17.71,9.11a1.35,1.35,0,0,0,1.56-.22l12-11.47a72.15,72.15,0,0,0,23.34,1.92l9.94,13.3a1.37,1.37,0,0,0,1.51.48l19-6.08a1.37,1.37,0,0,0,.95-1.27l.36-16.59a72.36,72.36,0,0,0,17.88-15.13l16.42,2.36a1.34,1.34,0,0,0,1.4-.72l9.11-17.7a1.36,1.36,0,0,0-.22-1.57l-11.47-12a72.49,72.49,0,0,0,1.92-23.35l13.29-9.94a1.37,1.37,0,0,0,.49-1.51Z" fill="#51bec8"/><path d="M148.79,279.58a20,20,0,1,1,1.77-2.34A19.69,19.69,0,0,1,148.79,279.58Zm-30.33-12.27a15.35,15.35,0,1,0,3.81-11.11,15.74,15.74,0,0,0-1.38,1.81A15.27,15.27,0,0,0,118.46,267.31Z" fill="#d8ebf1"/><path d="M174.58,293.33a48.25,48.25,0,0,0,2.53-4.37h0q.38-.7.72-1.44a49.28,49.28,0,0,0,2.8-7.36l0-.11c0-.09.05-.19.08-.29s.11-.38.16-.57a1.18,1.18,0,0,0-.49-1.28,1,1,0,0,0-.33-.15,1.16,1.16,0,0,0-1.43.82,47.47,47.47,0,0,1-3.61,9.31,46.91,46.91,0,0,1-63.13,20.23,47.67,47.67,0,0,1-4.17-2.42,46.87,46.87,0,0,1,47.07-80.93,45.52,45.52,0,0,1,4.12,2.39,46.69,46.69,0,0,1,14.24,14.53,1.23,1.23,0,0,0,.36.36,1.17,1.17,0,0,0,1.63-1.59,49.18,49.18,0,0,0-15-15.26q-2.08-1.35-4.32-2.51a49.21,49.21,0,0,0-49.41,85,45,45,0,0,0,4.38,2.54,49.21,49.21,0,0,0,63.73-16.86Z" fill="#d8ebf1"/><g opacity="0.3"><path d="M327.36,138.54a1.81,1.81,0,0,0-.14-2.16c-1-1.16-2-2.3-3.11-3.4a1.8,1.8,0,1,0-2.59,2.5c1,1.05,2,2.14,3,3.25a1.8,1.8,0,0,0,2.54.2A1.76,1.76,0,0,0,327.36,138.54Z" fill="#51bec8"/><path d="M317.3,129a1.8,1.8,0,0,1-2.53.27,73.93,73.93,0,0,0-6.13-4.43L307.3,124a1.79,1.79,0,0,1-.58-2.48,1.86,1.86,0,0,1,2.48-.58l1.41.89a77.17,77.17,0,0,1,6.42,4.66,1.8,1.8,0,0,1,.38,2.38Zm-18.06-9.36a74.79,74.79,0,0,0-8.52-3.33,1.8,1.8,0,0,1-1.17-2.26,1.82,1.82,0,0,1,2.27-1.17,77.53,77.53,0,0,1,8.93,3.49,1.79,1.79,0,0,1,.88,2.39,1.67,1.67,0,0,1-.12.23A1.81,1.81,0,0,1,299.24,119.68Zm-17.4-5.57a74.57,74.57,0,0,0-9.08-1.13,1.8,1.8,0,0,1,.22-3.6,80,80,0,0,1,9.53,1.18,1.81,1.81,0,0,1,1.44,2.11,2,2,0,0,1-.26.65A1.82,1.82,0,0,1,281.84,114.11ZM263.61,113a74.57,74.57,0,0,0-9.08,1.13,1.81,1.81,0,0,1-.66-3.55,79.85,79.85,0,0,1,9.52-1.18,1.81,1.81,0,0,1,1.91,1.69,1.84,1.84,0,0,1-.29,1.09A1.82,1.82,0,0,1,263.61,113Zm-18,3.36a74,74,0,0,0-8.53,3.3,1.8,1.8,0,1,1-1.5-3.28,78.64,78.64,0,0,1,8.94-3.46,1.8,1.8,0,0,1,2.26,1.17,1.8,1.8,0,0,1-1.17,2.27ZM229.06,124a75.06,75.06,0,0,0-7.47,5.28,1.8,1.8,0,0,1-2.26-2.81,77.8,77.8,0,0,1,7.83-5.53,1.8,1.8,0,0,1,2.46,2.51A1.73,1.73,0,0,1,229.06,124Zm-14.23,11.44a73.18,73.18,0,0,0-5.94,7,1.8,1.8,0,0,1-2.88-2.17,76.25,76.25,0,0,1,6.23-7.29,1.8,1.8,0,0,1,2.81,2.23A1.44,1.44,0,0,1,214.83,135.39ZM197.4,159.13a1.8,1.8,0,0,1-1-2.36,79.69,79.69,0,0,1,3.66-7.49c.2-.37.41-.74.62-1.1a1.8,1.8,0,1,1,3.12,1.8l-.59,1a77.31,77.31,0,0,0-3.49,7.15,1.59,1.59,0,0,1-.15.29A1.8,1.8,0,0,1,197.4,159.13Z" fill="#51bec8"/></g><g opacity="0.3"><path d="M332.8,230.39a77.35,77.35,0,0,1-5.7,7.52,1.8,1.8,0,0,1-2.74-2.35,76,76,0,0,0,5.45-7.17,1.8,1.8,0,0,1,3,2Zm2.34-7.35a1.81,1.81,0,0,1-.79-2.42,73.55,73.55,0,0,0,3.58-8.26,1.82,1.82,0,0,1,2.32-1.08,1.8,1.8,0,0,1,1.07,2.31,78,78,0,0,1-3.75,8.66l-.1.17A1.81,1.81,0,0,1,335.14,223Zm-14.63,21.63a77,77,0,0,1-7.35,5.92,1.81,1.81,0,0,1-2.09-3,74.25,74.25,0,0,0,7-5.63,1.8,1.8,0,0,1,2.72,2.31A1.43,1.43,0,0,1,320.51,244.67Zm21.33-38.78a1.82,1.82,0,0,1-1.35-2.17,73.93,73.93,0,0,0,1.48-8.87,1.8,1.8,0,1,1,3.59.37,77.29,77.29,0,0,1-1.56,9.31,1.77,1.77,0,0,1-.24.58A1.81,1.81,0,0,1,341.84,205.89Zm-36.7,49.67a79,79,0,0,1-8.56,4,1.8,1.8,0,0,1-1.31-3.35,74.51,74.51,0,0,0,8.16-3.79A1.81,1.81,0,0,1,305.8,255,1.77,1.77,0,0,1,305.14,255.56Zm-17.53,6.87a77.26,77.26,0,0,1-9.26,1.81,1.8,1.8,0,1,1-.48-3.57,76.67,76.67,0,0,0,8.84-1.73,1.81,1.81,0,0,1,2,2.73A1.76,1.76,0,0,1,287.61,262.43Zm-18.68,2.49a80.16,80.16,0,0,1-9.43-.47,1.81,1.81,0,0,1,.4-3.59,71,71,0,0,0,9,.45,1.81,1.81,0,0,1,1.82,1.78,1.7,1.7,0,0,1-.29,1A1.81,1.81,0,0,1,268.93,264.92Z" fill="#51bec8"/><path d="M345.68,186.72a1.84,1.84,0,0,0,.28-1c0-1.54-.1-3.09-.22-4.6a1.8,1.8,0,1,0-3.59.28c.11,1.44.18,2.92.21,4.39a1.81,1.81,0,0,0,3.32.95Z" fill="#51bec8"/></g><path d="M321.27,162.6a.91.91,0,0,0-.85-.63l-11.1-.25a48.44,48.44,0,0,0-10.13-12l1.59-11a.93.93,0,0,0-.49-.95l-11.84-6.09a.91.91,0,0,0-1.05.15l-8,7.67a48.38,48.38,0,0,0-15.62-1.28l-6.65-8.9a.92.92,0,0,0-1-.32l-12.69,4.06a.91.91,0,0,0-.63.85l-.25,11.11a48.4,48.4,0,0,0-12,10.12l-11-1.58a.92.92,0,0,0-1,.48L212.55,166a.91.91,0,0,0,.15,1.05l7.67,8a48.36,48.36,0,0,0-1.28,15.62l-8.9,6.65a.91.91,0,0,0-.32,1L213.93,211a.91.91,0,0,0,.85.63l11.11.24a48.26,48.26,0,0,0,10.12,12l-1.58,11a.9.9,0,0,0,.48.94l11.85,6.1a.91.91,0,0,0,1.05-.15l8-7.68a48.09,48.09,0,0,0,15.62,1.29l6.65,8.9a.91.91,0,0,0,1,.32l12.69-4.07a.91.91,0,0,0,.63-.85l.24-11.1a48.3,48.3,0,0,0,12-10.13l11,1.59a.91.91,0,0,0,.94-.49l6.1-11.84a.91.91,0,0,0-.15-1l-7.68-8A48.11,48.11,0,0,0,316.12,183l8.9-6.65a.92.92,0,0,0,.32-1Z" fill="#51bec8"/><path d="M277.83,195.81a13.63,13.63,0,1,1,1.22-1.61A13.36,13.36,0,0,1,277.83,195.81ZM261,194.31a10,10,0,0,0,14.15-.89h0a10,10,0,0,0-15-13.26,12,12,0,0,0-.89,1.17A10,10,0,0,0,261,194.31Z" fill="#d8ebf1"/><path d="M295.78,205.38A34.58,34.58,0,0,0,300,196l.08-.3a1.81,1.81,0,0,0-.75-2,1.85,1.85,0,0,0-.52-.22,1.8,1.8,0,0,0-2.21,1.27,30.6,30.6,0,0,1-2.33,6h0l-.17.32a30.06,30.06,0,0,1-9.94,11,30.89,30.89,0,0,1-7.35,3.57l-.07,0-.19.06a30.12,30.12,0,0,1-23.15-1.91c-.93-.48-1.83-1-2.7-1.57a30.34,30.34,0,0,1,30.47-52.39c.92.47,1.81,1,2.67,1.54a30.33,30.33,0,0,1,9.22,9.41,1.73,1.73,0,0,0,.55.56,1.8,1.8,0,0,0,2.51-2.46,33.86,33.86,0,0,0-10.31-10.53c-1-.62-2-1.2-3-1.73a34,34,0,0,0-34.09,58.62c1,.63,2,1.21,3,1.75A34,34,0,0,0,295.78,205.38Z" fill="#d8ebf1"/><polygon points="692.34 327.71 639.93 381.32 702.79 364.53 692.34 327.71" fill="#51bec8"/><path d="M1004.16,349.9,706.39,364.35a13.4,13.4,0,0,1-14-13.38V228.46a24.64,24.64,0,0,1,23.88-24.63l268.37-8.31a36.19,36.19,0,0,1,36.19,36.19V332.46A17.46,17.46,0,0,1,1004.16,349.9Z" fill="#51bec8"/><path d="M719.29,355.44A18.42,18.42,0,0,1,700.9,337V226.62c0-13,10.43-23.52,23.75-23.93l259.85-7.84c19.69,0,35.7,15.62,35.7,34.83v95.2A17.31,17.31,0,0,1,1003.5,342L720.18,355.42Zm265.23-159.3L724.69,204c-12.61.39-22.5,10.33-22.5,22.64V337a17.13,17.13,0,0,0,17.93,17.1l283.31-13.42a16,16,0,0,0,15.48-15.83v-95.2C1018.91,211.19,1003.48,196.14,984.52,196.14Z" fill="#d8ebf1" opacity="0.85"/><path d="M983.65,218.47l-238.11,8.91c-2.33.09-4.17,1.64-4.1,3.46l.09,2.09c.08,1.8,2,3.18,4.32,3.09L984,227.33c2.34-.09,4.18-1.64,4.1-3.45l-.1-2.31C987.9,219.77,986,218.39,983.65,218.47Z" fill="#d8ebf1"/><path d="M962.34,278.75l-238.11,8.87c-2.33.09-4.17,1.69-4.09,3.57l.09,2.17c.08,1.86,2,3.29,4.32,3.21l238.12-8.64c2.34-.09,4.18-1.69,4.1-3.57l-.1-2.4C966.59,280.1,964.66,278.67,962.34,278.75Z" fill="#d8ebf1"/><path d="M990.16,304,724.72,314c-2.61.1-4.66,1.73-4.58,3.63l.09,2.19c.08,1.87,2.23,3.31,4.81,3.22l265.45-9.8c2.6-.09,4.66-1.72,4.58-3.62l-.1-2.42C994.89,305.31,992.74,303.87,990.16,304Z" fill="#d8ebf1"/><path d="M853.1,254,723.33,257.8c-1.28,0-2.23,1.78-2.13,3.89l.12,2.44c.11,2.09,1.21,3.74,2.47,3.71l129.79-3.53c1.27,0,2.23-1.79,2.12-3.9l-.13-2.69C855.47,255.63,854.37,254,853.1,254Z" fill="#d8ebf1"/><path d="M992.11,253.52,869.44,257c-1.2,0-2.1,1.78-2,3.89l.12,2.43c.1,2.09,1.15,3.75,2.34,3.72l122.68-3.27c1.2,0,2.1-1.78,2-3.89l-.14-2.69C994.35,255.14,993.3,253.48,992.11,253.52Z" fill="#d8ebf1"/><path d="M218.13,1031.61s-2.09,11.86-3.12,23.61a8.09,8.09,0,0,0,7.74,8.76c15.64.65,49.08,1.92,61.08,1.38a2.63,2.63,0,0,0,2.32-3.6h0a5.89,5.89,0,0,0-3-3.18l-55.25-25.39Z" fill="#8b8b8c"/><path d="M216.42,1024.64l1.68,14.19s9.68,4.51,16.29-.57l-4-15.81Z" fill="url(#linear-gradient)"/><path d="M217.68,757.91c-.72,3.7-3.9,184.89,15.47,266.09a2.76,2.76,0,0,1-1.62,3.2,48.18,48.18,0,0,1-15.77,3.21,4.76,4.76,0,0,1-4.71-3.41c-5.54-18.84-32.06-113.23-35.53-203.39-3.86-100.75,0-3.43,0-3.43l2.27-62.28Z" fill="#8b8b8c"/><path d="M154.58,1037.8s-3.33,6-6.56,21.9a4.93,4.93,0,0,0,4.34,5.91c5.16.51,13.11,1.16,19.48,1.12a4.93,4.93,0,0,0,4.87-5.49c-.7-5.81-2.9-15.34-9.69-22.77Z" fill="#8b8b8c"/><path d="M151.65,1019.55l3.94,21.46s3.89,2.89,11.58.79l-1.88-23.08Z" fill="url(#linear-gradient-2)"/><path d="M141,763.47c-15.84,95.59,3.43,236.27,9.93,263.8a4.29,4.29,0,0,0,3.47,3.26,28.65,28.65,0,0,0,12.39-.49,4,4,0,0,0,2.83-3.62c.87-22.26-.7-158.92,14.06-212.93a12.28,12.28,0,0,1,4.73-6.76l28.65-20.37,2.2-32.92Z" fill="#8b8b8c"/><path d="M242,582.34c-47.47-.79-99.85,12.46-99.85,12.46-14.15,82.56-2.47,177.79-2.47,177.79,36.75,9.64,78.2-5.89,78.2-5.89,6.11-34.51,34.61-131.63,34.61-131.63,23.19-2.88,42.3-9.57,58-18.42-12-13.91-17.66-31.61-20.11-42.07C273.58,579.79,256.6,582.58,242,582.34Z" fill="#fcce08"/><path d="M382.17,512.42a9.06,9.06,0,0,0-10.56-3c-7,29.51-43.61,53.43-81.24,65.13,2.45,10.46,8.11,28.16,20.11,42.07C372.93,581.54,382.17,512.42,382.17,512.42Z" fill="#dfdfdf"/><path d="M381,513.85c.49,1.55-5.16,3.91-8.49-2.43-.11-3-2-16.07-.15-18.55,9.68-13.19,28.44-29.72,28.44-29.72a4.47,4.47,0,0,1,.56,6.2l-9.1,9.48c1.9,3.44,4.22,6.34,5.31,10.5a12.74,12.74,0,0,1-1.27,9.39c-1.6,2.88-3.78,6.62-5.84,9.55A12.59,12.59,0,0,1,381,513.85Z" fill="#dfdfdf"/><path d="M388.32,485l-8.3,7-2.6,7,7.4,8.2s2.48-13.89,4.33-16.89S390,485.86,388.32,485Z" fill="#dfdfdf"/><path d="M160.32,640.76l-18.21-46s-44.34,30.13-51.63,68.32c8.38.62,23.63,2.8,38.55,10.33C132.31,655.42,160.32,640.76,160.32,640.76Z" fill="#fcce08"/><path d="M199.07,684s-49.78,28.14-66.58,4.12A18.88,18.88,0,0,1,129,673.45c-14.92-7.53-30.17-9.71-38.55-10.33a52.74,52.74,0,0,0,5.73,36.14c29.43,53.83,109.45-3,109.45-3Z" fill="#dfdfdf"/><path d="M193.09,719.61l27.16-94.88a2.77,2.77,0,0,1,2.34-2c4.93-.58,19.19-2.19,35.66-3.58,19.84-1.68,42.87-3,56.64-1.88a2.77,2.77,0,0,1,2.27,4c-7.83,15.84-40,80.26-56.15,101.36a2.8,2.8,0,0,1-2.24,1.1l-63-.58A2.77,2.77,0,0,1,193.09,719.61Z" fill="#51bec8"/><path d="M261.07,610.93l19.7-3.28a1.41,1.41,0,0,1,1.57,1.84l-1.95,5.9a1.41,1.41,0,0,1-1.15,1l-19,2.53a1.41,1.41,0,0,1-1.56-1.72l1.2-5.16A1.41,1.41,0,0,1,261.07,610.93Z" fill="#f4f4f4"/><path d="M246.32,627.61l1.62-8.46a2,2,0,0,1,1.72-1.57l39.79-4a1.94,1.94,0,0,1,2.09,2.4L289,626.47a2,2,0,0,1-1.81,1.5l-38.87,2A2,2,0,0,1,246.32,627.61Z" fill="#f4f4f4"/><path d="M199.65,696.68s-3.78-15.56-2.26-21.08,4.49-12.62,14.35-11a144.65,144.65,0,0,1,21.49,5.73s-.59,7.19-8.09,4.87l4.65,3.6s-.66,5.75-7,2.68l4.32,4.77s-2.72,4.73-7.38,1.69S212.86,698.56,199.65,696.68Z" fill="#dfdfdf"/><path d="M193.88,543.8l-15.11,43.68a1.57,1.57,0,0,0,.72,1.89c4.12,2.28,18.95,8.86,36.83-2.47a7.41,7.41,0,0,0,3.41-5.3l4.89-37.8Z" fill="#dfdfdf"/><path d="M226.74,503.35s16.59,31.22,14.46,43.83-22.68,11.71-40.63,1.47L188,514.93Z" fill="#dfdfdf"/><path d="M201.36,532.09a1.28,1.28,0,0,0,.56-1.88c-1.32-2-3.82-6.17-4.61-9.8,0,0-3-1.91,7.59-4.44s26.33-6.46,29.65-15.45c3.23-8.78-5.26-30.84-18.8-13.26a1.29,1.29,0,0,1-2,0c-2.22-2.88-8.06-8.88-16.16-5.25-7.58,3.41-8.44,9-8.33,11.76a1.28,1.28,0,0,1-1.52,1.31c-3.83-.73-13-1.36-17.33,8.08-3.53,7.77-1.23,12.17.86,14.33a1.28,1.28,0,0,1-.55,2.13c-2.52.77-5.77,2.9-5.45,8.81.45,8.16,9.58,7.44,12.17,7.07a1.3,1.3,0,0,1,1.15.4c2.23,2.47,12.26,12.93,23.12,14.19a1.29,1.29,0,0,0,1.36-1.71l-4.7-13.66a1.3,1.3,0,0,1,.7-1.61Z" fill="#8b8b8c"/><path d="M203.25,534s-11.81-8.1-12.67-1.28,10.63,9.88,16.33,7.34Z" fill="#dfdfdf"/></g></g></svg>