<?xml version="1.0" encoding="UTF-8"?>
<svg id="Layer_1" data-name="Layer 1" xmlns="http://www.w3.org/2000/svg" viewBox="0 0 1112.09 832.64">
  <defs>
    <style>
      .cls-1 {
        fill: #f4f4f4;
      }

      .cls-2 {
        fill: #cececf;
      }

      .cls-3 {
        fill: #7bced5;
      }

      .cls-4 {
        fill: #fcce08;
      }

      .cls-5 {
        fill: #415761;
      }

      .cls-6 {
        fill: #53bfc9;
      }

      .cls-7 {
        fill: #51bec8;
      }

      .cls-8 {
        fill: #dcedf2;
      }

      .cls-9 {
        fill: #adadad;
      }

      .cls-10 {
        fill: #fcd428;
      }

      .cls-11 {
        fill: none;
        stroke: #8b8b8c;
        stroke-miterlimit: 10;
        stroke-width: 3px;
      }

      .cls-12 {
        fill: #8b8b8c;
      }

      .cls-13 {
        fill: #d8ebf1;
      }

      .cls-14 {
        fill: #dfdfdf;
      }
    </style>
  </defs>
  <ellipse class="cls-2" cx="544.17" cy="573.09" rx="468.94" ry="240.05"/>
  <path class="cls-9" d="M548.43,553.33c.05,29.32,.12,58.63,.15,87.95,.02,21.82-.03,43.64-.04,65.47-6.14-1.38-11-5.35-16.27-8.35-32.18-18.35-64.27-36.85-96.21-55.61-6.65-3.91-14.08-6.71-19.59-12.44,18.07-10.55,36.12-21.14,54.22-31.62,24.44-14.16,48.93-28.23,73.38-42.37,1.27-.73,2.38-1.74,3.56-2.62,.26-.15,.53-.28,.81-.39Z"/>
  <path class="cls-9" d="M303.64,671.56c.1,3.3-1.43,3.11-3.66,1.8-15.58-9.11-31.16-18.21-46.77-27.28-7.3-4.24-14.67-8.37-21.98-12.61-.67-.39-1.1-1.19-1.64-1.79,3.88-4.29,9.32-6.15,14.12-8.98,19.95-11.75,39.99-23.35,59.99-35,.07,1.99,.21,3.98,.21,5.97,.03,25.29,.04,50.58,.06,75.88-.11,.67-.22,1.34-.33,2.01Z"/>
  <path class="cls-1" d="M355.86,209.44l1.75,26.31s-138.47,82.47-139.27,81.82-8-30.33-8-30.33l145.53-77.8Z"/>
  <path class="cls-1" d="M186.95,646.62l-1.57-368.49c-.04-9.04,4.78-17.41,12.63-21.91L609.19,20.38c4.46-2.56,10,.73,9.89,5.87l-8.52,395.31-416.92,229c-3,1.65-6.68-.51-6.69-3.94Z"/>
  <path class="cls-11" d="M186.95,646.62l-1.57-368.49c-.04-9.04,4.78-17.41,12.63-21.91L609.19,20.38c4.46-2.56,10,.73,9.89,5.87l-8.52,395.31-416.92,229c-3,1.65-6.68-.51-6.69-3.94Z"/>
  <g>
    <path class="cls-6" d="M600.4,40.25c.02,3.44-3.41,7.59-5.87,7.53-2.16-.05-3.01-1.52-2.7-3.32,.59-3.42,2.29-6.41,5.88-7.16,1.87-.39,2.61,1.58,2.68,2.95Z"/>
    <g>
      <path class="cls-14" d="M779.44,74.84l-221.03,125.48c-5.37,3.05-8.69,8.75-8.69,14.92v489.03c0,3.31,5.33,6.43,8.21,4.81l220.12-126.91c4.71-2.67,7.62-7.67,7.61-13.09l-.72-491.05c-.01-2.83-3.06-4.59-5.52-3.2Z"/>
      <polygon class="cls-10" points="678.52 515.02 581.9 569.57 581.9 585.21 678.52 529.5 678.52 515.02"/>
      <polygon class="cls-10" points="678.52 476.55 581.9 531.1 581.9 546.74 678.52 491.02 678.52 476.55"/>
      <path class="cls-8" d="M185.52,293.95c-.05-6.33-.35-12.66-.1-18.97,.29-7.45,4.34-12.63,10.72-16.3,39.94-22.99,79.85-46.04,119.76-69.08,87.04-50.24,259.02-149.82,294.36-169.71,2.85-1.6,8.84,2.46,8.79,5.72-.08,6.66-.34,16.27-.4,19.9-33.6,19.32-68.7,38.62-102.28,57.98-48.42,27.93-96.81,55.92-145.23,83.87-51.15,29.53-102.29,59.09-153.49,88.53-10.66,6.13-20.98,12.86-32.16,18.07ZM567.44,63.57c2.7-.01,6.1-4.34,6.08-7.37-.01-1.83-.55-3.69-2.71-3.3-3.84,.7-5.26,3.88-5.83,7.27-.29,1.71,.66,3.24,2.47,3.4Zm32.96-23.33c-.07-1.37-.81-3.34-2.68-2.95-3.59,.76-5.29,3.75-5.88,7.16-.31,1.8,.53,3.26,2.7,3.32,2.46,.06,5.89-4.09,5.87-7.53Zm-13.69,8.39c-.07-2.08-.51-4.1-2.62-3.59-3.58,.87-5.18,3.8-5.5,7.32-.16,1.78,.55,3.62,2.69,3.18,3.75-.76,5.19-3.62,5.43-6.91Z"/>
      <path class="cls-6" d="M1030.14,498.44c-1.41,5.38-3.68,6.93-10.68,4.22-6.33-2.45-13.18-2.54-19.77-.93-1.45,.35-3.21-.36-4.55,1.47,8.39,2.48,16.23,5.83,23.2,11.12,4.18,3.16,5.19,6.43,2.46,11.03-1.71,2.88-3.24,5.85-5.9,7.97-3.92,3.12-7.73,4.62-12.6,1.15-5.28-3.77-11.46-5.98-17.72-7.79-2.15-.73-4.29-1.47-6.44-2.2,4.44,5.64,8.27,11.3,11.81,17.23,2.38,3.99,1.09,5.79-2.5,7.63-7.8,3.99-15.98,4.08-24.32,2.78-10.02-1.56-19.82-4.15-29.59-6.81,1.37-3.52,2.73-7.04,4.1-10.57,.32-.7,.63-1.4,.95-2.09,0,0-.07,.09-.07,.09,.48-.42,1.04-.78,1.42-1.27,22.8-29.64,51.72-51.04,86.63-64.38,.88-.34,2.08-.4,1.75-2.11-.96-.37-1.89-.31-2.81-.08-5,1.22-9.78,3.25-14.33,5.65-26.99,14.24-51.42,32.57-71.05,55.93,.22-1.64,.77-3.7,1.1-5.31,3.83-18.81,4.02-37.36-3.94-55.33,2.34-1.55,4.94-4.64,6.94-4.29,3.09,.54,.04,5.09,2.24,7.17-.96,5.92,1.38,11.07,3.91,16.22-1.31-6.92-1.89-13.86-1.68-20.85-.08-2.15,.89-3.84,2.33-5.33,.2-.29,.98-.76,1.59-1.07,0,0,12.49-4.23,19.3-3.61,3.43,.31,5.47,1.23,4.74,5.51-.71,4.16-.51,8.5,.98,14.01,1.63-4.95,2.69-8.65,4.07-12.24,2.57-6.68,5.44-8.65,12.48-8.23,12.82,.77,25.3,3.51,37.66,6.88,.02,0,.05,.01,.07,.02,5.01,1.29,7.79,6.55,5.95,11.39-.18,.46-5.47,18.42-7.72,27.05Z"/>
      <path class="cls-6" d="M416.45,630.33c-19.34,11.06-38.69,22.1-58.03,33.18-9.81,5.62-19.58,11.33-29.4,16.94-1.7,.97-3.27,2.37-5.43,2.28-3.87,.45-2.97-13.13-2.97-15.21-.04-63.92-.06-127.85,.01-191.77,0-4.65-1.44-9.69,2.51-13.74,.29-.29-.36-1.5-.57-2.28,.94-.66,1.84-1.39,2.83-1.96,16.38-9.49,32.77-18.98,49.16-28.45,22.15-12.79,44.3-25.58,66.46-38.36,25.03-14.44,50.02-28.97,75.13-43.27,10.09-5.74,19.81-12.15,30.34-17.11,.03,19.03,.05,38.06,.07,57.09-.38,.9-.63,1.9-1.15,2.7-24.02,36.75-48.03,73.51-72.13,110.2-4.96,7.55-14.75,10.88-23.22,7.76-26.52-9.77-52.94-19.8-79.46-29.58-9.65-3.56-22.52-6.6-19.04-5.06,32.36,14.33,64.62,28.89,97.14,42.83,8.55,3.67,19.44,1.6,24.89-6.95,9.19-14.42,18.21-28.95,27.29-43.44,14.91-23.8,29.81-47.62,44.71-71.43,1.66,1.67,.94,3.78,.95,5.7,.05,29.1,0,128.87,.07,147.64,0,1.9-.74,4.03,1,5.66-1.18,.88-2.29,1.89-3.56,2.62-24.45,14.14-48.94,28.21-73.38,42.37-18.1,10.49-36.15,21.08-54.22,31.62Z"/>
      <path class="cls-12" d="M712.87,110.15c21.17-12.2,42.31-24.45,63.51-36.61,6.97-4,11.25-1.16,11.25,7.35,0,101.09,0,202.18,.01,303.26,0,8.16,.07,16.32,.1,24.48-.04,41.8-.09,83.6-.13,125.4-.01,10.66-.2,21.32,.06,31.97,.2,8.19-3.28,14.2-10.04,18.21-14.43,8.56-29.02,16.85-43.55,25.25-20.28,11.72-40.57,23.43-60.86,35.14-20.72,11.96-41.45,23.91-62.16,35.88-16.54,9.56-33.11,19.08-49.59,28.74-5.26,3.08-10.61,4.35-12.94-2.46,.02-21.82,.06-43.64,.04-65.47-.02-29.32-.1-58.63-.15-87.95-.09-19.52-.18-126.79-.18-156.82,0-.93-.46-1.87-.71-2.8,.16-.98,.32-1.96,.47-2.94,.79-1.35,.65-2.74,.2-4.15-.04-18.89-.09-37.79-.13-56.68,.91-6.75,.12-13.53,.45-20.29,0-4.66,.06-9.33-.02-13.99-.02-1.43,.73-3.31-.68-4.2-1.47-.93-2.7,.67-3.94,1.4-11.52,6.65-23.03,13.32-34.55,19.96-23.05,13.28-46.12,26.53-69.15,39.83-22.17,12.8-44.28,25.71-66.5,38.44-6.87,3.93-10.15,1.79-10.15-6.24,0-31.32,.04-62.65-.03-93.97-.02-7.72,3.1-13.38,9.88-17.12,5.24-2.89,10.38-5.96,15.56-8.96,24.76-14.31,49.51-28.63,74.28-42.92,24.91-14.38,49.83-28.75,74.75-43.1,14.99-8.63,29.93-17.32,45.03-25.75,5.53-3.08,8.52-1.06,8.58,5.22,.05,6,.05,12,0,17.99-.03,2.77,.47,3.74,3.34,1.94,5.07-3.17,87.54-50.52,117.92-68.04Zm-162.26,350.1c0,80.15,.09,160.3-.13,240.45-.02,8.98,4.34,9.36,10.03,6.05,26.02-15.12,52.13-30.1,78.19-45.15,44.93-25.95,89.84-51.92,134.77-77.86,8.16-4.71,12.22-11.22,12.21-21.11-.17-159.47-.12-318.94-.12-478.41,0-1.17,.02-2.33,0-3.5-.14-5.67-3.25-7.63-8.08-4.9-8.98,5.07-17.88,10.28-26.8,15.45-28.63,16.59-57.24,33.22-85.88,49.79-34.24,19.81-68.46,39.66-102.8,59.29-7.95,4.55-11.45,10.91-11.45,19.94,.08,79.98,.05,159.97,.05,239.95Z"/>
      <path class="cls-12" d="M937.29,465.81c7.96,17.97,7.06,31.32,4.8,50.75-.19,1.64-1.72,13.35-8.54,28.73-1.29,2.8-2.58,5.6-3.87,8.4-.24,.13-4.23,6.6-4.32,8.05-1.94,2.89-3.84,5.81-5.83,8.66-10.02,14.39-21.91,26.82-37.71,34.91-16.66,8.53-33.33,9.76-49.75-.8-15.19-12.42-20.64-29.33-19.97-47.95,1.44-40.4,18.22-73.64,49.22-99.64,1-.84,5.18-4.27,6.3-4.97,.83,.98-1.02,4.54-.99,6.13,.1,6.06,4.71,8.26,9.37,9.33,3.94,.91,8.31,.94,12.34-.19,5.68-1.59,8.87-3.19,8.35-10.79-.34-4.95-.01-9.95,.02-14.93,6.16-.46,19.93,3.95,24.41,6.68,12.45,7.59,14.7,15.28,16.19,17.61Zm-83.7,116.89c.43,2.4,2.32,1.91,3.92,1.99,16.18,.79,28.41-7.12,38.61-18.43,13.02-14.42,20.64-31.65,22.93-50.91,1.21-10.16,2.12-20.6-3.26-30.19-.86-1.53-1.24-3.62-3.73-3.35-5.65-10.73-11.25-12.71-22.38-7.87-3.68,1.6-7.08,3.69-10.27,6.12-7.92,6.01-14.39,13.37-19.76,21.67-11.62,17.99-19.19,37.33-18.03,59.15,.48,8.95,2.19,17.72,11.95,21.82Z"/>
      <path class="cls-12" d="M896.67,456.45c.52,7.6-2.67,9.2-8.35,10.79-4.03,1.13-8.4,1.09-12.34,.19-4.66-1.07-9.27-3.27-9.37-9.33-.03-1.59,.07-79.72,.05-109.42,4.83-2.91,9.62-5.9,14.52-8.7,2.45-1.4,3.42-3.23,3.47-6.06,.17-10.92-7.03-17.2-17.72-15.25-.12-9.98-.24-19.97-.37-29.95,4.52-2.68,8.94-5.55,13.6-7.96,3.06-1.59,4.4-3.88,4.41-7.09,.02-10.12-7.84-16.77-17.64-14.99-.06-13-.3-25.99-.13-38.98,.11-8.22,6.78-14.36,14.91-14.39,8.15-.03,14.62,6.06,15.14,14.24,.04,.66,.01,1.33,.01,2,0,72.33-.54,229.96-.2,234.91Z"/>
      <path class="cls-6" d="M88.34,553.53c-6.05-14.95-.44-24.64,16.22-27.96,3.28,.15,6.48-.73,9.83-.46,10.55,.84,19.72,5.14,28.51,10.61,1.44,.89,30.7,19.53,42.03,46.97,1.14,5.57,.1,11.22,.59,16.82-.62-.51-1.51-.89-1.82-1.54-4.16-8.81-9.92-16.55-16.33-23.77-15.28-17.2-33.45-29.86-56.27-34.96-1.47-.33-3.78-1.54-4.28,.71-.55,2.45,2.19,1.99,3.57,2.29,10.23,2.18,19.58,6.43,28.4,11.9,20.39,12.63,35.01,30.43,45.88,51.55,1.73,7.31,.17,14.75,.91,22.1-.62-.49-1.46-.86-1.84-1.5-12.29-20.25-30.09-34.37-50.61-45.39-10.1-5.42-20.41-10.47-30.57-15.8-5.49-2.88-10.4-6.57-14.21-11.55Z"/>
      <path class="cls-10" d="M322.58,459.74c.21,.78,.86,1.99,.57,2.28-3.95,4.04-2.51,9.08-2.51,13.74-.07,63.92-.06,127.85-.01,191.77,0,2.07-.79,4.36,.98,6.19-.73,1.32-1.42,2.83-.93,4.22,1.1,3.11-1.18,3.73-3.08,4.73-4.55-1.81-9.16-3.52-11.88-8.04,1.36-2.09-.23-4.1-.23-6.18,.11-70.06,.1-140.13,.09-210.19,0-2.02,0-4,1.2-5.75,5.61,1.65,9.65,6.74,15.79,7.23Z"/>
      <path class="cls-9" d="M832.06,604.52c16.42,10.56,33.09,9.33,49.75,.8,15.8-8.09,27.69-20.52,37.71-34.91,1.99-2.86,9.92-16.59,10.15-16.71,6.83-.13,13.6-.24,19.84,3.42,5.26,3.08,7.01,8.29,4.39,13.94-3.15,6.8-9.39,10.13-15.38,13.63-26.94,15.73-53.92,31.41-80.96,46.99-11.2,6.45-23.48,7.95-36.14,6.92-3.16-.26-6.13-1.65-8.74-3.47-6.78-4.74-6.61-13.41,1.03-19.83,5.42-4.55,11.28-8.8,18.34-10.77Z"/>
      <path class="cls-4" d="M317.6,682.67c1.9-1,4.18-1.61,3.08-4.73-.49-1.4,.2-2.9,.93-4.22,12.9-19.5,25.82-38.99,38.71-58.49,15.18-22.98,30.34-45.98,45.53-68.95,1.09-1.64,16.23-24.82,16.23-24.82,0,0-19.09,32.56-22.74,38.43-21.48,34.58-43.23,69-64.88,103.47-3.27,5.21-6.46,10.47-9.78,15.64-.76,1.19-1.18,2.35-1.08,3.73-2.01,.68-4.01,.68-6-.06Z"/>
      <path class="cls-4" d="M303.71,587.7c-.02-.66-.05-1.32-.07-1.97,0,0,.2,.02,.2,.02,1.23-12.73,1.02-25.46,.1-38.19-.1-5.94-.2-11.89-.3-17.83,0,0,.21,.02,.21,.02,1.2-5.39,.97-10.78,.1-16.18-.11-5.95-.22-11.9-.33-17.85l.21,.03c1.28-4.71,.9-9.43,.15-14.16-.01-.33-.1-.64-.26-.93,.08-6.27,.15-12.54,.23-18.81,1.12-2.67,.42-5.46,.56-8.2,.31-1.17,.93-2.11,1.94-2.79,.11,.55,.23,1.1,.34,1.65-1.2,1.75-1.2,3.73-1.2,5.75,0,70.06,.02,140.13-.09,210.19,0,2.08,1.58,4.09,.23,6.18-.44-.93-.89-1.85-1.33-2.78-.14-.77-.28-1.53-.41-2.3-.02-25.29-.03-50.58-.06-75.88,0-1.99-.14-3.98-.21-5.97Z"/>
      <path class="cls-3" d="M303.98,669.55c.14,.77,.28,1.53,.41,2.3-.26-.06-.51-.16-.75-.29,.11-.67,.22-1.34,.33-2.01Z"/>
      <path class="cls-6" d="M187.34,352.33c-.59,.14-1.19,.28-1.78,.43-.01-19.6-.03-39.21-.04-58.81,11.18-5.21,21.5-11.94,32.16-18.06,51.2-29.44,102.34-59,153.49-88.53,48.41-27.95,96.8-55.94,145.23-83.87,33.57-19.36,67.19-38.66,100.79-57.98,.09,18.68,.17,37.36,.28,56.05,0,1.42-.38,2.59-1.5,3.49-.46,.21-.91,.42-1.37,.62-1.47,.76-2.98,1.46-4.42,2.29-31,17.88-62,35.77-93,53.66-92.13,53.17-184.26,106.33-276.38,159.52-17.87,10.32-35.65,20.79-53.47,31.18Zm167.29-121.59c3.48-1.9,7-3.74,10.43-5.73,6.91-4.17,10.83-7.81,7.71-12.83-1.83-2.94-4.84-3.56-8.44-1.64-4.68,2.5-11.75,6.75-12.6,7.24-41.84,24.15-83.63,48.41-125.58,72.36-5.23,2.99-9.77,6.91-6.92,12.29,2.61,4.94,9.22,1.39,14.89-1.88,18.9-10.91,29.04-16.74,47.92-27.68,24.21-14.03,48.41-28.09,72.61-42.14Zm135.93-80.35c.1-8.18-1.82-10.51-6.12-9.48-6.94,1.66-13.39,12.2-11.77,19.21,.89,3.86,4.61,5.71,8.04,3.8,6.07-3.38,9.36-8.62,9.85-13.53Zm-60.04,31.19c.04,2.53-.39,5.33,2.44,6.59,3.01,1.34,5.85,.44,8.3-1.68,4.63-4,7.35-8.96,7.31-15.17-.03-5.37-4.05-7.79-8.74-5.08-5.83,3.37-9.09,8.5-9.31,15.34Zm127-73.3c-.07,2.61,.05,5.31,2.37,6.8,2.64,1.69,5.14,0,7.44-1.3,5.06-2.87,9.19-11.61,8.21-17.14-.7-3.92-4.46-6.15-7.82-4.32-6.29,3.42-9.81,8.74-10.21,15.96Zm-23.89,15.03c-.22-2.41-.99-4.66-3.13-5.91-2.53-1.48-5.24-.94-7.49,.69-5,3.61-7.21,8.98-8.31,14.77-.49,2.6,.87,5.02,3.2,6.28,2.33,1.26,4.91,.78,7.08-.71,5.28-3.63,7.39-9.11,8.65-15.11Z"/>
      <path class="cls-10" d="M930.7,455.94c-3.11-3.05-5.13-5.06-9.61-7.74,1.16-5.34,2.01-10.49,3.47-15.75,4.57-16.53,13.01-30.64,27.14-40.77,7.2-5.16,14.93-8.2,23.66-2.93,6.66,4.02,9.15,9.17,7.38,16.83-2.39,10.35-8.63,18.66-14.83,26.92-4.9,6.53-19.59,17.43-27.13,42.92-2.1-7.66-5.61-13.63-7.72-16.77,10.57-25.05,23.46-45.3,36.83-62.52,.42-.54,.13-1.35-.51-1.62h0c-.5-.21-1.02,0-1.37,.43-10.3,12.63-23.39,27.46-37.31,61Z"/>
      <path class="cls-12" d="M866.92,318.67c10.69-1.95,17.89,4.34,17.72,15.25-.04,2.83-1.02,4.66-3.47,6.06-4.9,2.79-9.69,5.79-14.52,8.7-8.67,4.88-17.35,9.74-26.02,14.63-8.32,4.7-15.67,3.43-19.42-3.36-3.7-6.7-1.09-13.45,6.99-18.07,11.67-6.69,35.47-21.15,38.72-23.21Z"/>
      <path class="cls-12" d="M866.93,258.67c9.8-1.78,17.66,4.87,17.64,14.99,0,3.21-1.35,5.51-4.41,7.09-4.66,2.42-9.08,5.28-13.6,7.96-6.91,3.94-13.8,7.9-20.73,11.8-7.31,4.1-14.47,2.53-18.15-3.91-3.6-6.29-1.25-13.43,5.91-17.61,9.88-5.77,29.18-17.51,33.34-20.33Z"/>
      <path class="cls-10" d="M184.79,514.84c-.06,.31,.69,23.01,.69,28.67-36.29-50.05-51.29-64.78-84.98-86.73-2.16-1.41-4.99,1.37-2.86,2.82,19.82,13.46,58.14,33.11,87.62,91.04l.16,36s-4.39-8.89-4.96-10.19c-13.99-31.92-53.53-57.55-64.87-65.76-7.24-5.28-14.54-10.48-21.7-15.87-8.1-6.1-14.65-13.51-18.26-23.18-6.19-16.59,2.55-30.38,20.21-31.86,8.66-.73,16.83,1.24,24.75,4.56,15.67,6.57,28.17,17.37,39.63,29.58,10.13,12.47,18.06,26.27,24.57,40.92Z"/>
      <path class="cls-6" d="M567.44,63.57c-1.8-.15-2.76-1.68-2.47-3.4,.57-3.39,1.99-6.58,5.83-7.27,2.17-.39,2.7,1.47,2.71,3.3,.02,3.03-3.38,7.36-6.08,7.37Z"/>
      <path class="cls-6" d="M586.71,48.64c-.24,3.29-1.68,6.15-5.43,6.91-2.14,.43-2.85-1.4-2.69-3.18,.32-3.51,1.92-6.45,5.5-7.32,2.1-.51,2.54,1.51,2.62,3.59Z"/>
      <path class="cls-2" d="M946.47,468.69c.74-1.55,1.49-3.09,2.23-4.64-.21,7,.37,13.93,1.68,20.86-2.53-5.15-4.86-10.29-3.91-16.22Z"/>
      <path class="cls-3" d="M306.79,452.51c-.11-.55-.23-1.1-.34-1.65,.29-3.08,3.05-3.79,5.09-4.97,73.49-42.48,147-84.92,220.55-127.29,5.41-3.11,10.54-6.77,16.45-8.96-.33,6.76,.46,13.54-.45,20.29-.67-.12-1.24,.01-1.59,.66-10.53,4.96-20.25,11.37-30.34,17.11-25.11,14.3-50.1,28.82-75.13,43.27-22.16,12.78-44.31,25.57-66.46,38.36-16.39,9.47-32.78,18.95-49.16,28.45-.99,.57-1.89,1.3-2.83,1.96-6.14-.49-10.18-5.57-15.79-7.23Z"/>
      <path class="cls-4" d="M548.02,390.76c-.16,.98-.31,1.96-.47,2.94-.83-.01-1.54,.23-1.94,1.03-14.9,23.81-29.8,47.62-44.71,71.43-9.08,14.49-18.1,29.02-27.29,43.44-5.45,8.55-16.34,10.62-24.89,6.95-32.53-13.94-64.79-28.5-97.14-42.83-3.48-1.54-26.04-11.88-26.04-11.88,0,0,35.42,13.38,45.07,16.93,26.52,9.77,52.94,19.81,79.46,29.58,8.47,3.12,18.26-.21,23.22-7.76,24.1-36.7,48.11-73.45,72.13-110.2,.53-.81,.78-1.8,1.15-2.7,.34,0,.68,.01,1.02,.02l.42,3.06Z"/>
      <path class="cls-10" d="M545.6,394.73c.41-.8,1.11-1.04,1.94-1.03,.25,.93,.71,1.87,.71,2.8,0,30.03-.05,60.06-.1,90.1-.27,.4-.53,.79-.8,1.19-.25-.02-.5-.03-.74-.05,0-29.1,0-58.21-.06-87.31,0-1.91,.71-4.03-.95-5.7Z"/>
      <path class="cls-10" d="M548.43,553.33c-.28,.11-.55,.24-.81,.39-1.74-1.63-.99-3.76-1-5.66-.06-18.77,0-44.27,0-63.04,.33-.02,1.55,.91,1.55,.91,0,0,.18,47.88,.27,67.4Z"/>
      <path class="cls-10" d="M547.6,387.71c-.34,0-.68-.01-1.02-.02-.02-19.03-.05-38.06-.07-57.09,.35-.65,.92-.78,1.59-.66,.04,18.9,.08,37.79,.13,56.68-.21,.36-.42,.73-.62,1.09Z"/>
      <path class="cls-4" d="M547.56,491.68c-.33,.02-.67,.05-1,.07-11.83-5.34-44.08-20.04-44.08-20.04,0,0,17.81,6.41,22.23,8.03,7.29,2.68,14.29,6.17,21.9,8,.25,.02,.5,.04,.75,.05,.07,1.3,.14,2.59,.21,3.89Z"/>
      <path class="cls-3" d="M547.6,387.71c.21-.36,.42-.73,.62-1.09,.45,1.41,.59,2.8-.2,4.15-.14-1.02-.28-2.04-.42-3.06Z"/>
      <path class="cls-6" d="M853.59,582.7c10.19,.4,18.35-4.38,25.5-10.8,21.49-19.32,33.15-43.61,35.33-72.4,.46-6.01-.58-11.92-2.34-17.69,2.49-.28,2.87,1.81,3.73,3.35,5.38,9.59,4.47,20.04,3.26,30.19-2.3,19.26-9.91,36.49-22.93,50.91-10.21,11.3-22.44,19.22-38.61,18.43-1.6-.08-3.5,.41-3.92-1.99Z"/>
      <path class="cls-12" d="M303.52,549.73c-9.73,3.6-18.05,9.8-27.01,14.79-15.96,8.87-31.63,18.27-47.45,27.4-2.46,1.42-5.19,3.07-7.82,.73-2.93-2.6-2.13-6.32-1.21-9.35,1.47-4.85,4.55-8.73,9.14-11.36,23.76-13.65,47.47-27.38,71.21-41.05,.98-.56,2.16-.77,3.25-1.15,.1,5.94,.2,11.89,.3,17.83-.14,.72-.27,1.44-.41,2.17Z"/>
      <path class="cls-12" d="M303.44,514.79c-24.62,14.18-49.24,28.36-73.85,42.55-2.62,1.51-5.21,3.28-8.26,1.16-2.93-2.04-1.93-5.23-1.61-7.84,.6-5.03,3.35-9.22,7.66-11.74,24.11-14.07,48.33-27.95,72.53-41.85,1.12-.65,2.47-.91,3.71-1.36,.11,5.95,.22,11.9,.33,17.85-.17,.41-.34,.81-.51,1.22Z"/>
      <path class="cls-12" d="M303.72,480.66c-17.61,10.07-35.23,20.12-52.83,30.2-7.07,4.05-14.09,8.18-21.16,12.24-2.68,1.54-5.6,2.78-8.4,.68-2.89-2.17-2.08-5.53-1.42-8.34,1.42-6.08,5.75-9.87,10.99-12.88,24.21-13.93,48.39-27.93,72.57-41.91,.16,.4,.31,.8,.47,1.2-.08,6.27-.15,12.54-.23,18.81Z"/>
      <path class="cls-3" d="M303.52,549.73c.14-.72,.27-1.44,.41-2.17,.93,12.73,1.13,25.46-.1,38.19-.1-12.01-.21-24.01-.31-36.02Z"/>
      <path class="cls-3" d="M303.44,514.79c.17-.41,.34-.81,.51-1.22,.87,5.4,1.1,10.79-.1,16.18-.14-4.99-.27-9.97-.41-14.96Z"/>
      <path class="cls-3" d="M303.83,495.75c-.32-4.72-.55-9.45,.15-14.16,.75,4.73,1.13,9.45-.15,14.16Z"/>
      <path class="cls-3" d="M303.95,461.84c-.16-.4-.31-.8-.47-1.2,.5-2.31-.66-4.87,1.03-7-.14,2.74,.55,5.53-.56,8.2Z"/>
      <path class="cls-10" d="M490.57,150.39c-.49,4.91-3.78,10.15-9.85,13.53-3.43,1.91-7.14,.06-8.04-3.8-1.63-7.01,4.83-17.55,11.77-19.21,4.3-1.03,6.22,1.3,6.12,9.48Z"/>
      <path class="cls-10" d="M430.52,181.59c.22-6.84,3.48-11.97,9.31-15.34,4.69-2.71,8.7-.29,8.74,5.08,.04,6.22-2.68,11.17-7.31,15.17-2.45,2.11-5.28,3.01-8.3,1.68-2.83-1.26-2.4-4.06-2.44-6.59Z"/>
      <path class="cls-10" d="M557.53,108.29c.4-7.22,3.92-12.54,10.21-15.96,3.35-1.83,7.12,.4,7.82,4.32,.98,5.52-3.15,14.26-8.21,17.14-2.3,1.31-4.8,3-7.44,1.3-2.33-1.49-2.44-4.18-2.37-6.8Z"/>
      <path class="cls-10" d="M533.64,123.32c-1.27,6-3.38,11.49-8.65,15.11-2.17,1.49-4.75,1.97-7.08,.71-2.33-1.26-3.69-3.68-3.2-6.28,1.1-5.79,3.31-11.16,8.31-14.77,2.26-1.63,4.96-2.17,7.49-.69,2.14,1.25,2.91,3.5,3.13,5.91Z"/>
      <path class="cls-12" d="M365.06,225.01c-3.43,1.99-6.95,3.82-10.43,5.73-.06-4.7-.28-9.77-.33-14.47l10.03-5.72s4.81-3.2,8.23,1.31c3.42,4.51-.85,8.24-.85,8.24,0,0-2.13,2.4-6.64,4.92Z"/>
      <path class="cls-8" d="M639.54,327.95c-8.88-2.36-13.28-9.01-15.85-17.08-3.33-10.46-2.7-21.12,.01-31.56,6.99-26.95,20.95-49.11,45.18-63.89,5.45-3.32,11.4-5.42,17.87-5.79,11.62-.66,20.4,4.76,24.72,15.55,4.8,11.99,3.66,24.19,.66,36.33-2.77,11.24-7.53,21.65-13.79,31.38-1.68-2.32-.91-5.14-1.46-7.7-2.25-10.46-9.81-15.16-19.56-11.21-23.38,9.48-38.7,29.29-37.79,53.96Zm43.1-77.14c.15-11.53-5.18-15.77-12.99-12.55-9.17,3.78-17.99,18.65-16.94,28.54,.86,8.16,7.21,11.67,14.3,7.55,9.79-5.69,14.52-14.66,15.63-23.54Z"/>
      <path class="cls-12" d="M580.27,548.74c-4.12-.04-6.4-2.98-5.44-7.11,1.46-6.3,5.05-11.12,10.69-14.38,29.49-17.05,58.96-34.12,88.46-51.15,25.76-14.87,51.53-29.71,77.35-44.49,2.36-1.35,5.09-3.18,7.8-.76,2.63,2.36,2.95,5.34,1.7,8.67-1.86,4.98-4.65,9.06-9.39,11.8-46.92,27.07-93.81,54.18-140.7,81.29-8.49,4.9-16.99,9.79-25.47,14.7-1.62,.94-3.29,1.61-4.98,1.43Zm25.23-22.67c.04-1.69-.54-2.98-2.39-3.21-2.39-.29-6.24,4.16-6.41,7.36-.11,1.95,.65,3.25,2.75,3.4,2.66,.19,5.99-3.99,6.06-7.55Zm61.37-31.37c3.32-.96,5.1-3.55,5.63-7.07,.26-1.75-.17-3.44-2.32-3.74-2.06-.28-6.4,4.78-6.49,7.45-.07,1.95,.77,3.17,3.18,3.35Zm-21.3,8.5c-.01-2.11-.9-3.78-3.17-3.37-3.89,.71-4.83,4.2-5.53,7.34-.36,1.63,1.05,3.12,2.99,3.18,2.55,.08,5.76-4.06,5.71-7.16Zm-21.96,11.16c.04,1.95,.04,4.22,2.23,3.88,3.84-.6,5.67-3.65,6.45-7.24,.44-2.02-.68-3.44-2.63-3.2-3.85,.47-5.16,3.54-6.04,6.56Zm-13.03,7.39c-.03,2.4,.12,3.87,2.25,3.91,2.45,.04,5.87-4.16,5.76-7.13-.06-1.68-.15-3.86-2.5-3.32-3.67,.84-5.27,3.71-5.5,6.55Zm48.07-26.16c-.02-1.78-.27-3.46-2.43-3.7-2.25-.26-5.67,4.26-5.62,7.3,.03,1.81,.62,3.82,2.67,3.24,3.19-.9,5.24-3.26,5.38-6.83Zm-67.05,38.98c.01-2.3-.14-3.78-2.28-3.8-2.42-.02-5.76,4.23-5.74,7.31,.01,1.82,.56,3.85,2.64,3.32,3.63-.92,5.03-3.98,5.37-6.84Z"/>
      <path class="cls-12" d="M574.65,581.66c1.06-5.81,3.85-10.96,9.39-14.21,14.06-8.25,28.15-16.43,42.25-24.6,22.6-13.08,45.21-26.14,67.83-39.17,19.17-11.04,38.35-22.06,57.56-33.01,2.37-1.35,4.97-3.37,7.69-.59,2.51,2.57,2.35,5.48,1.37,8.8-2.02,6.89-7.31,10.44-13.02,13.72-42.39,24.38-84.77,48.75-127.15,73.15-12.39,7.14-24.69,14.44-37.15,21.46-4.67,2.64-8.87-.02-8.79-5.55Zm70.94-39.05c-.07-2.22-.59-3.98-2.76-3.68-3.94,.55-5.27,3.81-5.94,7.08-.38,1.83,.74,4,3.04,3.51,3.69-.79,5.09-3.83,5.66-6.91Zm-26.96,15.39c-.1-1.86-.07-4.2-2.29-3.82-3.7,.63-5.55,3.45-5.74,7.16-.09,1.76-.25,4.35,2.45,3.83,3.7-.72,5.27-3.7,5.57-7.16Zm5.01-4.51c-.04,1.7-.06,3.46,2.07,3.97,2.03,.48,6.44-4.24,6.73-7.12,.19-1.91-.46-3.29-2.53-3.57-2.44-.34-5.95,3.46-6.28,6.73Zm-18.22,11.56c-.07-1.37-.95-2.72-2.85-2.98-2.15-.29-5.75,4.23-5.88,7.22-.08,1.94,.69,3.23,2.79,3.35,2.55,.14,5.87-3.85,5.94-7.6Zm67.08-38.77c-.14-1.43-.92-2.9-2.82-3.15-2.09-.28-6.2,5.21-5.99,7.76,.15,1.76,1.06,2.72,2.85,2.78,2.49,.09,6.07-4.12,5.96-7.39Zm-13.85,7.97c-.17-1.41-.15-3.24-2.55-3.15-2.63,.1-5.7,4.3-5.5,7.38,.12,1.89,.86,3.45,2.98,2.99,3.61-.79,4.98-3.48,5.07-7.22Zm-67.01,40.04c-.07-2.59-.37-4.91-2.81-4.29-3.32,.85-4.93,3.69-5.21,7.08-.15,1.79,.5,3.85,2.56,3.33,3.22-.82,5.25-3.22,5.46-6.12Z"/>
      <path class="cls-6" d="M639.54,327.95c-.91-24.68,14.42-44.48,37.79-53.96,9.75-3.96,17.31,.75,19.56,11.21,.55,2.56-.22,5.37,1.46,7.7-8.3,12.65-18.19,23.74-31.7,30.99-8.47,4.54-17.33,7.72-27.11,4.07Z"/>
      <path class="cls-7" d="M693.54,416.44c0,3.49-.28,7.01,.06,10.47,.62,6.29-1.97,10.28-7.45,13.3-12.37,6.82-24.51,14.05-36.76,21.09-5.22,3-6.74,2.11-6.76-3.91-.04-8.31,.05-16.63-.03-24.94-.04-4.43,1.76-7.63,5.58-9.83,12.97-7.45,25.9-14.98,38.89-22.4,5.04-2.88,6.43-2.02,6.47,3.76,.03,4.16,0,8.31,0,12.47Zm-42.28,28.17c0,8.58,.11,8.67,6.75,4.88,6.65-3.8,13.07-8.07,19.96-11.36,6.14-2.94,7.92-7.34,7.39-13.65-.32-3.81-1.38-4.89-4.87-2.82-7.75,4.57-15.46,9.21-23.38,13.45-4.33,2.32-6.92,5.13-5.85,9.51Zm1.95-12.07c.39-.16,.72-.25,1-.41,9.51-5.52,19.02-11.03,28.5-16.61,1.49-.88,2.84-2.47,1.82-4.13-1.1-1.79-2.68-.25-3.89,.44-8.68,4.96-17.33,9.96-25.99,14.96-1.31,.76-2.55,1.65-3.05,3.17-.5,1.51-.31,2.66,1.62,2.58Z"/>
      <path class="cls-7" d="M756.72,399.11c-13.63,7.95-27.23,15.97-40.93,23.81-3.66,2.1-5.23,1.1-5.27-3.13-.1-9.15-.02-18.29-.03-27.44,0-3.66,1.6-6.52,4.67-8.29,13.08-7.58,26.24-15.02,39.37-22.52,1.18,2.06,5.11-3.14,5,1.71-.25,11.24,1.06,22.52-.82,33.72-.27,.28-.54,.56-.81,.84-.39,.43-.79,.86-1.18,1.29Zm-37.81,7.35c.32,1.99-1.13,4.73,1.04,5.99,2.18,1.27,3.96-1.08,5.75-2.08,6.54-3.66,12.77-7.96,19.55-11.09,6.37-2.95,8.29-7.31,7.68-13.9-.36-3.88-1.29-4.83-4.78-2.78-7.75,4.57-15.49,9.16-23.4,13.44-4.32,2.33-6.81,5.27-5.84,10.42Zm33.79-33.46c-.64-2.36-2.21-1.43-3.65-.61-9.08,5.21-18.16,10.44-27.21,15.7-.7,.41-1.31,1.03-1.83,1.66-.73,.89-1.57,1.92-.7,3.11,.97,1.32,2.09,.48,3.07-.08,9.22-5.31,18.43-10.62,27.62-15.99,1.29-.75,2.37-1.84,2.7-3.79Z"/>
      <path class="cls-7" d="M625.59,469.71c.22,3.31-1.29,5.94-3.97,7.5-14.28,8.29-28.66,16.41-43,24.59-1.85-1.49-2.11-3.47-2.08-5.73,.1-7.74,.07-15.49,.01-23.24-.01-1.74,.58-3.67-.99-5.14,.51-2.9,2.47-4.57,4.87-5.95,13.14-7.55,26.25-15.15,39.38-22.71,2.43-1.4,5-2.87,5.78,1.66-.64,12.29-.27,16.64,0,29.01Zm-8.21-3.84c-.32-1.97,1.14-4.72-1.14-5.91-2.17-1.13-3.93,1.15-5.74,2.16-6.51,3.66-12.73,7.89-19.47,11.05-6.24,2.93-8.46,7.17-7.68,13.79,.54,4.54,.92,5.02,5.01,2.7,7.79-4.42,15.45-9.09,23.32-13.35,4.32-2.34,6.69-5.34,5.69-10.44Zm-.04-14.85c-.83-2.21-2.33-1.33-3.79-.5-5.05,2.91-10.11,5.82-15.15,8.75-4.32,2.52-8.67,4.98-12.88,7.66-1.35,.86-2.86,2.46-1.59,4.15,1.24,1.64,2.74,0,3.93-.67,8.54-4.87,17.03-9.81,25.55-14.72,1.79-1.03,3.3-2.25,3.92-4.68Z"/>
      <path class="cls-10" d="M723.61,345.5c-.39,3.82-2.87,6.27-6.23,8.2-17.32,9.96-34.6,19.98-51.9,29.97-15.28,8.83-30.56,17.66-45.86,26.45-1.9,1.09-4.05,3.39-6.17,.95-1.96-2.26-.41-4.7,.91-6.87,1.08-1.78,2.8-2.79,4.55-3.8,32.73-18.9,65.45-37.82,98.18-56.71,4.42-2.55,6.39-2.04,6.54,1.81Z"/>
      <path class="cls-7" d="M711.64,317.9c2.67,.41,3.17,2.07,2.81,4.07-.56,3.14-2.43,5.44-5.16,7.01-27.24,15.72-54.49,31.44-81.75,47.13-1.53,.88-3.23,2.34-4.95,.56-1.65-1.72-.88-3.74-.04-5.6,1-2.2,2.76-3.67,4.84-4.87,26.96-15.54,53.91-31.12,80.87-46.66,1.14-.66,2.37-1.16,3.37-1.64Z"/>
      <path class="cls-13" d="M767.29,116.63c1.55-.97,2.43-1,2.55,.13,.15,1.43,.62,3.08-.8,4.18-2.59,2.02-5.1,3.72-2.07,7.61,.63,.82-.85,4.9-3.69,4.58-3.22-.37-3.61,1.52-4.17,3.59-1.35,4.91-1.62,5-5.49,2.07-1.62-1.23-2.23,.45-3.09,1.33-.9,.92-1.02,3.05-3.28,1.83-2.13-1.14-1.01-2.36-.4-3.67,1.1-2.35,1.95-4.55-2.23-3.1-.83,.29-1.32-.11-1.35-.87-.07-1.46-.53-3.15,.88-4.18,2.75-2.02,4.87-3.79,2.04-7.61-.68-.92,.99-4.72,3.29-4.54,4,.32,4.48-1.93,4.67-4.74,.14-2.06,1.62-2.86,3.1-3.49,2.47-1.04,1.38,1.48,2.05,2.27,1.41,1.66,2.15,.36,3.07-.61,.98-1.03,1.07-3.58,3.56-2.21,2.42,1.33,.72,2.77,.08,4.12-1.04,2.21-.5,3.19,1.29,3.31Zm-5.2,5.93c-.06-3.72-2.59-5.15-5.67-3.17-3.27,2.1-4.96,5.27-5.36,9.08-.16,1.52,.31,3,1.73,3.88,1.53,.95,2.89,.15,4.12-.7,3.21-2.21,4.73-5.42,5.18-9.09Z"/>
      <path class="cls-6" d="M758.7,396.98c1.87-11.2,.57-22.48,.82-33.72,.11-4.85-3.82,.35-5-1.71,1.52-1.28,3.09-2.89,5.24-1.81,2.18,1.1,1.63,3.41,1.64,5.35,.02,8.29,.01,16.57,0,24.86,0,2.69-.03,5.36-2.7,7.03Z"/>
      <path class="cls-6" d="M575.57,467.7c1.58,1.47,.98,3.39,.99,5.14,.06,7.74,.09,15.49-.01,23.24-.03,2.25,.23,4.24,2.08,5.73-2.51,1.17-3.73-.55-3.71-2.4,.12-10.57-1.13-21.17,.65-31.7Z"/>
      <path class="cls-6" d="M756.72,399.11c.39-.43,.79-.86,1.18-1.29-.39,.43-.79,.86-1.18,1.29Z"/>
      <path class="cls-12" d="M219.55,420.71c0-15.65,.11-31.3-.05-46.95-.08-7.41,3.12-12.88,9.26-16.48,17.62-10.35,35.38-20.47,53.08-30.68,14.54-8.39,29.07-16.78,43.61-25.15,1.58-.91,3.17-1.93,4.89-2.46,4.45-1.37,7.23,.6,7.23,5.28,.06,32.64,.11,65.27-.04,97.91-.03,6.6-3.46,11.72-9.18,15.05-17.23,10.03-34.5,20-51.77,29.96-15.83,9.13-31.64,18.32-47.57,27.27-6.66,3.74-9.45,1.89-9.46-5.79-.02-15.98,0-31.97,0-47.95Z"/>
      <path class="cls-6" d="M682.65,250.81c-1.11,8.88-5.84,17.86-15.63,23.54-7.09,4.12-13.44,.61-14.3-7.55-1.05-9.9,7.78-24.76,16.94-28.54,7.81-3.22,13.13,1.02,12.99,12.55Z"/>
    </g>
  </g>
  <rect class="cls-5" x="559.6" y="233.99" width="35" height="4.65" rx="2.33" ry="2.33" transform="translate(-40.84 320.21) rotate(-30)"/>
  <rect class="cls-5" x="559.6" y="224.66" width="35" height="4.65" rx="2.33" ry="2.33" transform="translate(-36.18 318.96) rotate(-30)"/>
  <rect class="cls-5" x="559.6" y="215.32" width="35" height="4.65" rx="2.33" ry="2.33" transform="translate(-31.51 317.71) rotate(-30)"/>
  <path class="cls-7" d="M704.76,549.48l-54.97,28.39c-3.31,1.71-5.68,6.16-5.28,9.93l1.28,12.27c.4,3.79,3.41,5.44,6.72,3.69l55.03-29c3.17-1.67,5.4-6,4.99-9.68l-1.32-11.92c-.41-3.67-3.29-5.32-6.46-3.69Z"/>
  <path class="cls-11" d="M779.44,74.84l-221.03,125.48c-5.37,3.05-8.69,8.75-8.69,14.92v489.03c0,3.31,5.33,6.43,8.21,4.81l220.12-126.91c4.71-2.67,7.62-7.67,7.61-13.09l-.72-491.05c-.01-2.83-3.06-4.59-5.52-3.2Z"/>
</svg>