<svg xmlns="http://www.w3.org/2000/svg" xmlns:xlink="http://www.w3.org/1999/xlink" viewBox="0 0 1059.23 1067.84"><defs><clipPath id="clip-path"><polygon points="451.56 883.85 724.88 868.53 771.84 806.61 872.37 414.28 821.1 24.9 495.26 24.9 451.56 883.85" fill="none"/></clipPath><clipPath id="clip-path-2"><path d="M415.35,824.88c12.3,41.76,23.1,84.77,35.27,126.89,24.69,2.69,53.81,5.25,60.12-25,8.78-42.1,82.69-56.39,117.39-56.27,43,.14,135.84-8.19,117.94-68.77-14.9-50.43-44.08-75.59,12.71-105.64s80.3-72.77,55.59-126.15c-26-56.16,30.38-129.74-22.16-166.61-91.57-64.23-166.08,94.94-162.35,183.31s-44,68-101.19,83.76C450.56,691.93,514.54,765.26,485.1,799,462,825.36,444.55,819.94,415.35,824.88Z" fill="#fcce08"/></clipPath><clipPath id="clip-path-3"><path d="M559.31,842.65q-53.47-7.2-106.85-16.86c-.57.53-13.17-76.68,23.08-117.7,71.7-79.48,21.9-149.42,7.43-191-23.06-58.67-12.48-130.44,52.6-117.82C599,410,607,279.71,594.82,179.54,584.91,130.83,630.25,71,676.05,57c46.75-15.57,94,14.56,109.48,111.69,23.1,112.4-58.3,181.34-88.06,238.2-29.28,55.81,40.95,99.83-14.54,149.65-46.65,44.23-105.74,76.33-83.32,130.9C622.62,741.34,617.81,785.73,559.31,842.65Z" fill="#51bec8"/></clipPath></defs><g style="isolation:isolate"><g id="Layer_2" data-name="Layer 2"><g id="Illustration"><path d="M531.62,1067.76a198.19,198.19,0,0,1-73.81-12c-7.43-2.73-15.17-6.31-19.23-13.11-9.17-15.35,6.14-34,21.77-42.64,21.95-12.15,46.79-17.76,71.14-23.77q75.79-18.72,149.65-44.39c46.29-16.08,92.84-34.74,130-66.67,12.07-10.38,23-22,34.94-32.56,27-23.81,60.33-42.05,96.24-44.77s74.26,12.25,93.58,42.64c11.19,17.6,15.36,38.63,19,59.16,6,34.12,9.37,74.39-15.66,98.36-8.5,8.13-19.35,13.27-30,18.18-37.67,17.29-76.25,33.63-117.06,40.85-30.65,5.42-63.06,5.56-93.12-3.19-13-3.77-23-12.4-35.4-16.1-13.8-4.12-31.59-2-45.64-.47C654.48,1034,596,1065.94,531.62,1067.76Z" fill="#cececf"/><path d="M420.68.08C286.21,2.34,78.16,50.8,18.27,175.33-2.65,218.82-1.23,282.76,1.6,410.65,2.43,448.24,3.82,503,13.51,571,33.64,712.21,47.35,808.34,99.23,864.31c130,140.26,599.54,136.2,800.05-116.3,109.38-137.75,126.21-333.69,26.19-495.63C815.36,74.09,600.7-2.93,420.68.08Z" fill="#dcedf2"/><g clip-path="url(#clip-path)"><path d="M498.81,936.58c-6.26-1-19-8.64-21.5-12-16.63-22.4-50.49-62.31-47.95-91.69.44-5,23-9.07,26.3-13.59,13.78-6.08,18.93-7.33,29.19-19.54,30.29-36-34.56-107.1,43.78-129.28,57.39-16.25,104.91,4.67,101.22-83.82s70.79-247.53,162.36-183.34c52.55,36.83-3.86,110.45,22.16,166.61,24.72,53.37,1.21,96.09-55.59,126.15s-27.59,55.17-12.71,105.65c17.87,60.63-74.88,68.73-118,68.82C593.32,870.61,504.92,894.23,498.81,936.58Z" fill="#fcce08"/><path d="M415.35,824.88c12.3,41.76,23.1,84.77,35.27,126.89,24.69,2.69,53.81,5.25,60.12-25,8.78-42.1,82.69-56.39,117.39-56.27,43,.14,135.84-8.19,117.94-68.77-14.9-50.43-44.08-75.59,12.71-105.64s80.3-72.77,55.59-126.15c-26-56.16,30.38-129.74-22.16-166.61-91.57-64.23-166.08,94.94-162.35,183.31s-44,68-101.19,83.76C450.56,691.93,514.54,765.26,485.1,799,462,825.36,444.55,819.94,415.35,824.88Z" fill="#fcce08"/><g clip-path="url(#clip-path-2)"><g opacity="0.8" style="mix-blend-mode:soft-light"><path d="M454,881.23l-.51-1.13a508.35,508.35,0,0,0,131.91-86.58,526.26,526.26,0,0,0,97.06-118.71c52.2-86.81,81.81-190.21,85.61-299l1.24,0c-3.81,109-33.48,212.62-85.79,299.6a527.32,527.32,0,0,1-97.29,119A509.45,509.45,0,0,1,454,881.23Z" fill="#fcce08"/><path d="M756.4,826c-53.41-19.17-143.55-22.14-200.94-6.61l-.32-1.2c57.59-15.58,148.07-12.6,201.68,6.64Z" fill="#fcce08"/><path d="M490.91,864l-.81-.94c23.51-20.08,36-51.26,37-92.69.78-30.37-4.48-65.43-15.61-104.23l1.19-.34c11.17,38.91,16.44,74.11,15.66,104.6C527.3,812.19,514.69,843.68,490.91,864Z" fill="#fcce08"/><path d="M690.51,662.8l-.85-.9C732,621.81,792.58,612.45,836,611.65l0,1.24C792.82,613.68,732.55,623,690.51,662.8Z" fill="#fcce08"/><path d="M743.05,540.12l-1.23-.12c2.82-28.07-.16-85.31-51.65-153.37l1-.74c17.4,23,31.33,48.12,40.28,72.69C741.73,486.86,745.64,514.29,743.05,540.12Z" fill="#fcce08"/></g></g><path d="M559.31,842.65q-53.47-7.2-106.85-16.86c-.57.53-13.17-76.68,23.08-117.7,71.7-79.48,21.9-149.42,7.43-191-23.06-58.67-12.48-130.44,52.6-117.82C599,410,607,279.71,594.82,179.54,584.91,130.83,630.25,71,676.05,57c46.75-15.57,94,14.56,109.48,111.69,23.1,112.4-58.3,181.34-88.06,238.2-29.28,55.81,40.95,99.83-14.54,149.65-46.65,44.23-105.74,76.33-83.32,130.9C622.62,741.34,617.81,785.73,559.31,842.65Z" fill="#51bec8"/><g clip-path="url(#clip-path-3)"><path d="M559.31,842.65q-53.47-7.2-106.85-16.86c-.57.53-13.17-76.68,23.08-117.7,71.7-79.48,21.9-149.42,7.43-191-22.83-58.63-12-122.54,47.95-124.22,66.46-3.15,77.17-113.34,63.9-213.29C584.91,130.83,630.25,71,676.05,57c46.75-15.57,94,14.56,109.48,111.69,23.1,112.4-58.3,181.34-88.06,238.2-29.28,55.81,40.95,99.83-14.54,149.65-46.65,44.23-105.74,76.33-83.32,130.9C622.62,741.34,617.81,785.73,559.31,842.65Z" fill="#51bec8"/><g opacity="0.8" style="mix-blend-mode:soft-light"><path d="M510.44,847.81c0-.68,32-163.72,88.72-322.91,7.78-25.75,16.27-51.73,24.47-76.85,22-67.26,44.69-136.82,55-205.92C690.24,164.87,684.94,95.48,662.46,30l1.17-.4c22.54,65.68,27.87,135.26,16.27,212.72-10.37,69.21-33.1,138.81-55.09,206.13-8.2,25.11-16.68,51.08-24.48,76.85C545.74,678.45,512,842.84,511.67,847.81Z" fill="#51bec8"/><path d="M664.43,318l-.93-.82c39.14-44.57,86.25-107.8,111.56-141.76,19.76-26.53,20.46-27.26,21.24-27.15l-.09.61.24.56c-1,.68-9.56,12.17-20.4,26.72C750.73,210.13,703.6,273.38,664.43,318Z" fill="#51bec8"/><path d="M675.87,257.43c-8.84-50.51-30.1-83.53-46.38-102.33-18.11-20.92-34.35-29.67-36-29.81a.46.46,0,0,0,.27-.09l-.7-1c.32-.22.73-.17,1.66.22,4.41,1.86,20.93,11.92,38.4,33.09,22,26.68,37.2,61.17,44,99.73Z" fill="#51bec8"/><path d="M566.76,628.87l-1.23-.13c5-47.09-6.55-97.54-34.4-149.94a437.42,437.42,0,0,0-54.75-79.41c-1.51-1.75-2.13-2.48-2.3-2.77l1.06-.64c.13.22,1,1.27,2.18,2.6a439.1,439.1,0,0,1,54.91,79.64C560.2,530.84,571.81,581.53,566.76,628.87Z" fill="#51bec8"/><path d="M582.21,579.15l-1.06-.64c41.18-68.38,129-75.07,132.3-75.07h.1l.47.57-.42.62-.2-.58-.06.61h0C712.08,504.66,623.68,510.29,582.21,579.15Z" fill="#51bec8"/><path d="M517.29,821.2l-1.24,0c.51-20.49-7.24-55.31-47-104.83-2.13-2.66-2.13-2.66-2.08-3l.62.08.56-.23c.11.2.93,1.22,1.87,2.39C510,765.38,517.8,800.5,517.29,821.2Z" fill="#51bec8"/><path d="M525.86,782.51l-1.19-.33c4.32-15.6,21.68-46.28,89.51-76.46.94-.42,1.55-.69,1.76-.81l.58,1.1c-.22.12-.86.4-1.84.84C547.32,736.83,530.12,767.12,525.86,782.51Z" fill="#51bec8"/></g></g></g><path d="M600.64,863.82q3,9.4,6.6,18.77L72.57,956.88c-107.47-254.54,103.87-534.75.11-795.6l60.59-.4,474-3.23C691.24,389.35,527.36,636.19,600.64,863.82Z" fill="#adadad"/><path d="M600.64,863.82c-149,19.82-308.51,41.06-479.61,63.84C18.59,680.13,205.2,415.24,133.27,160.88l474-3.23C691.24,389.35,527.36,636.19,600.64,863.82Z" fill="#cececf"/><path d="M660.64,849.14,139.77,918.5c-107.35-259.44,102.8-538,0-803.43l520.87,16.87C742.75,369.13,575.29,616.73,660.64,849.14Z" fill="#f4f4f4"/><path d="M590.33,252.73l-280.58-1.24c-.85-14.17-2.28-28.36-4.4-42.56l281.1,3.79C588.32,226.07,589.58,239.41,590.33,252.73Z" fill="#53bfc9"/><path d="M252.25,327l-41.06.48c.81-12.45,1.31-24.89,1.42-37.33l41-.15C253.54,302.29,253.05,314.62,252.25,327Z" fill="#53bfc9"/><path d="M651.16,305.81l-383.81,3q.36-9.45.46-18.88l383.74-1.43Q651.48,297.14,651.16,305.81Z" fill="#53bfc9"/><path d="M649.14,339.73,265,345.7q.85-9.45,1.46-18.9l384-4.43Q649.86,331,649.14,339.73Z" fill="#fcce0a"/><path d="M223.9,323.68a1.9,1.9,0,0,1-1.31-.47q-5.75-5.28-11.61-10.58a1.62,1.62,0,0,1,.07-2.46,2.07,2.07,0,0,1,2.72-.05q5.13,4.63,10.19,9.25,13.69-14.94,26.63-29.75a2,2,0,0,1,2.66-.3,1.61,1.61,0,0,1,.29,2.42q-13.6,15.57-28.09,31.27a2.16,2.16,0,0,1-1.42.67Z" fill="#fcce0a"/><path d="M241.11,421.11l-41.26,1.29q3-18.79,5.55-37.54l41.17-1Q244.14,402.48,241.11,421.11Z" fill="#53bfc9"/><path d="M643.38,391.93l-385.25,10.6c.92-6.33,1.81-12.65,2.63-19L645.6,374.5Q644.55,383.22,643.38,391.93Z" fill="#53bfc9"/><path d="M638.36,426.05,252.18,439.7q1.63-9.52,3.16-19L641,408.58Q639.74,417.31,638.36,426.05Z" fill="#fcce0a"/><path d="M213,418.38a1.69,1.69,0,0,1-1.26-.46q-5.25-5.19-10.56-10.4a1.67,1.67,0,0,1,.34-2.47,2.1,2.1,0,0,1,2.74-.11l9.24,9.1q15.27-15.29,30.06-30.42a2.11,2.11,0,0,1,2.7-.36,1.58,1.58,0,0,1,0,2.42q-15.54,15.92-31.64,32a2.5,2.5,0,0,1-1.49.7Z" fill="#fcce0a"/><path d="M223.92,516l-41.56,2.12c2.43-12.63,4.87-25.25,7.24-37.86L231,478.48Q227.53,497.22,223.92,516Z" fill="#53bfc9"/><path d="M629.54,478.64,241.73,497c1.2-6.38,2.41-12.76,3.59-19.13l387.25-16.77Q631.07,469.85,629.54,478.64Z" fill="#53bfc9"/><path d="M623.54,513,234.61,534.46q1.81-9.6,3.64-19.18l388.36-19.86Q625.07,504.23,623.54,513Z" fill="#fcce0a"/><path d="M195.7,513.82a1.61,1.61,0,0,1-1.25-.43l-10.23-10.25a1.71,1.71,0,0,1,.44-2.49,2.11,2.11,0,0,1,2.76-.16l8.93,9q15.93-15.66,31.66-31.19a2.17,2.17,0,0,1,2.74-.41,1.59,1.59,0,0,1-.14,2.43q-16.52,16.32-33.25,32.79a2.66,2.66,0,0,1-1.53.74Z" fill="#fcce0a"/><path d="M206.84,611.58l-41.87,3q3-19,6.44-38.09l41.75-2.63Q209.82,592.69,206.84,611.58Z" fill="#53bfc9"/><path d="M614.8,566,224.24,592.17c1.07-6.42,2.19-12.84,3.32-19.26l390-24.61Q616.17,557.14,614.8,566Z" fill="#53bfc9"/><path d="M609.88,600.51,218.41,629.82q1.35-9.63,2.86-19.27l391-27.72Q611,591.67,609.88,600.51Z" fill="#fcce0a"/><path d="M178.29,610a1.68,1.68,0,0,1-1.28-.41q-5.32-5-10.62-10.06a1.7,1.7,0,0,1,.38-2.5,2.15,2.15,0,0,1,2.78-.22q4.62,4.41,9.26,8.8,15.58-16,31.3-31.91a2.2,2.2,0,0,1,2.75-.46,1.59,1.59,0,0,1-.11,2.44q-16.47,16.71-32.82,33.54a2.65,2.65,0,0,1-1.51.77Z" fill="#fcce0a"/><path d="M196.17,707.24l-42,3.81c.71-12.65,1.76-25.33,3.08-38l42-3.48Q197.25,688.42,196.17,707.24Z" fill="#53bfc9"/><path d="M604.41,653.49l-392.49,34.1q.77-9.62,1.76-19.24L605.9,635.84Q605.06,644.67,604.41,653.49Z" fill="#53bfc9"/><path d="M602.69,687.91,209.87,725.1q.27-9.57.8-19.17l392.69-35.61Q602.91,679.13,602.69,687.91Z" fill="#fcce0a"/><path d="M167.13,706.22a1.81,1.81,0,0,1-1.34-.37q-5.88-4.89-11.71-9.78a1.64,1.64,0,0,1,.16-2.5,2.17,2.17,0,0,1,2.79-.28q5.07,4.29,10.19,8.56,14.21-16.23,28.88-32.4a2.24,2.24,0,0,1,2.76-.52,1.6,1.6,0,0,1,.07,2.44q-15.36,17-30.22,34a2.4,2.4,0,0,1-1.45.8Z" fill="#fcce0a"/><path d="M198.33,801.91l-42,4.64c-1.43-12.43-2.35-24.92-2.84-37.46l42.06-4.32Q196.26,783.42,198.33,801.91Z" fill="#53bfc9"/><path d="M603.74,740.4,211.12,782.27q-.72-9.48-1.08-19L602.83,723C603,728.78,603.33,734.6,603.74,740.4Z" fill="#53bfc9"/><path d="M607.3,774.25,215.35,819.11q-1.47-9.37-2.54-18.8L605.17,757Q606.07,765.63,607.3,774.25Z" fill="#fcce0a"/><path d="M168.7,801.53a2.06,2.06,0,0,1-1.42-.34q-6.78-4.66-13.47-9.36a1.58,1.58,0,0,1-.24-2.45,2.18,2.18,0,0,1,2.79-.33q5.82,4.1,11.7,8.19,11.76-16.26,24.33-32.5a2.16,2.16,0,0,1,2.71-.57,1.59,1.59,0,0,1,.42,2.41q-13.11,17.05-25.35,34.12a2.07,2.07,0,0,1-1.34.81Z" fill="#fcce0a"/><path d="M799.13,958.65s.83,6.6.27,8.81-19.75,3.81-26.26,3,3.88-7.42,8-8.67S799.13,958.65,799.13,958.65Z" fill="#8b8b8c"/><path d="M789.47,947.64l2,13.24s5.16,2.32,7.64,0l.27-13.86Z" fill="#dcedf2"/><path d="M897.63,947.05s-4.07,3-3,6.64S905.23,971.8,912,975.92s4.65-4.46,2.68-9.8-7-17.1-9-19.07S897.63,947.05,897.63,947.05Z" fill="#8b8b8c"/><path d="M890.31,932.5c2,5.49,3.86,10,5.34,13.33,3.28,7.36,5.07,10.12,7.1,12.51,1.76,2.09,6,6.54,7.08,5.8s-1.92-6.17-7.83-22l-3.56-9.63h-8.13Z" fill="#dcedf2"/><path d="M749.28,703.28a342.73,342.73,0,0,0-.73,61.16c2.62,33.84,9.39,55.26,17.88,91.34,5.18,22.05,12.17,54.51,18.49,95.1a17.91,17.91,0,0,0,11.35,2.22,17.14,17.14,0,0,0,6.81-2.59c16.59-50.7,11.69-82.12,3.68-101.69-3.41-8.35-7.55-14.93-9.76-27.76-2.93-17,.69-26.45,5.85-65.76,3.68-28,3-32.35.6-36.55C793.66,702,763.74,702.28,749.28,703.28Z" fill="#dfdfdf"/><path d="M806.4,709.17c10.16,52.5,20.14,80.07,27.69,95.66a261.8,261.8,0,0,1,13.94,34,277.81,277.81,0,0,1,8.48,32.42c3.5,16.09,12.16,39.59,35.46,70.4.29.17,4.27,2.42,8.07.42a7.8,7.8,0,0,0,3.26-3.39c-3-29.46-6.55-54.22-9.58-73.32-.64-4-3.44-21.54-7.84-44.71-1.72-9.06-4.25-22.34-7.27-36-3.76-17-9.53-40.1-18.42-67.8Z" fill="#dfdfdf"/><path d="M644.86,580.85l6.88-8.07c1.1.83,17,12.53,35.92,5.69,13.05-4.71,19.28-16.83,23.27-24.57,12-23.24.91-37.54,15-54.16,3.91-4.61,12-10.66,17.92-10,14.12,1.63,27.66,41.54,18.93,75.63-1.76,6.88-11.46,44.76-44.19,53.25C692.14,625.5,661,610.53,644.86,580.85Z" fill="#51bec8"/><path d="M797.74,501.55c-5.77-5.33-16.8-11.47-22.33-25.75-1.66-4.3-7.56-19.53,1.14-31.18,5.16-6.91,14.76-11.61,23.21-9.95,7.23,1.42,8.36,6.46,20.64,16.58,4.78,3.95,12.46,10.28,21,13.81,14.64,6,23.44.35,38.15,1,18.07.8,39.05,10.88,49.16,25.54,17.95,26-8.05,52.42,11.61,82.9,6.44,10,9.61,7.75,24.87,27.08s22.91,29,21.55,40.9c-1.88,16.46-19.61,32.19-36.31,33.26-16.31,1-26.68-11.79-35-6.18-5.91,4-2.53,11.77-8.81,21.11-8.09,12-24,14.43-26.56,14.82-23.84,3.6-56-24.36-69.64-57.48C785.83,588.29,829.07,530.52,797.74,501.55Z" fill="#8b8b8c"/><path d="M746.22,529.44c-21.9,22.84-14,59.71-28.85,63.69-4.54,1.22-4.78-2.35-16.29-4.41-16.83-3-23.66,3.34-35.55.93-4.92-1-11.51-3.67-18.68-11.14l-2,2.34c16.17,29.68,47.28,44.65,73.71,37.79,32.73-8.49,42.43-46.37,44.19-53.25,4.1-16,3.29-33.27-.18-47.28A51.83,51.83,0,0,0,746.22,529.44Z" fill="#51bec8" opacity="0.3" style="mix-blend-mode:multiply"/><path d="M728.06,497.58c1.52-2.36,6.36-8.91,26.89-13.74a124.61,124.61,0,0,1,34.3-3.79,118,118,0,0,1,19.48,2.42c18.74,4.06,56.1,18.33,57.4,37.77.93,13.88-17.58,14.77-28,39.34-7.63,17.9-7.58,40.27.75,57.67,6.67,14,18.49,24.44,27.46,32.4,13.46,11.94,20.43,13.78,25,24.47,4.91,11.65,0,17.33,6.06,25.31,6.56,8.56,14.23,4.58,25.34,13.24,11.38,8.87,16.91,22.12,3.35,26.54-12.51,4.07-45.23,9-58.29,2.48-21.87-11-31.76,2.33-81.57,3.59-27,.68-40.61.84-48.08-8.29-6.83-8.33-3.24-17.48.85-56.88h0c1.31-13.16,4.07-40.71,4.08-56.41,0-9.28-3.2-24.44-9.64-54.77-.38-1.78-3.86-18.17-6.68-40C724.14,509.16,724.5,503.11,728.06,497.58Z" fill="#51bec8"/><path d="M794.93,456.19s2.14,17.14,8.47,21.07,16.55,9.05,17.68,10.44-39.19,5.73-59.17-4.35h0c6.59-1.38,8.38-1.88,8.38-1.88a37.57,37.57,0,0,0,8.46-3.35,28.92,28.92,0,0,0,9.3-8.6L788,460Z" fill="#dcedf2"/><path d="M795.89,462.26s-4.12,5.66-10.59,3.3c-5.79-2.11-2.34-17.07,2.26-18.78a8.2,8.2,0,0,1,6.23.86c1.32.83,4.85,5.21,2.83,10.13,1.46-.42,2.75,0,3.07.69.41.92-.83,2.17-1.11,2.45A4.87,4.87,0,0,1,795.89,462.26Z" fill="#dcedf2"/><path d="M934.56,695.94a32.78,32.78,0,0,1-11.74,25.14L574.77,558.55l11.74-25.13Z" fill="#8b8b8c"/><path d="M928.81,714.45a31.5,31.5,0,0,0,4.45-9.43L582.8,541.37l-4.41,9.45Z" fill="#7bced5"/><path d="M586.51,533.42c1,10.54-2.88,19-11.74,25.13L501.48,510a.91.91,0,0,1,.76-1.63Z" fill="#e6e6e6"/><path d="M501.48,510,530,528.88a24.21,24.21,0,0,0,5-10.76l-32.77-9.74A.91.91,0,0,0,501.48,510Z" fill="#8b8b8c"/><path d="M656.42,595.54s-11-9.85-14.94-15.76-2,6.89,0,10.83S657.56,604.41,656.42,595.54Z" fill="#dcedf2"/><path d="M838.05,492.58c12.8,6.33,53,25.35,61.81,80.22s-38,83.39-38,83.39l-11-7.31s11.7-85.59-30-109.73S838.05,492.58,838.05,492.58Z" fill="#51bec8"/><path d="M853.44,650.61c-2.59.46-4.06,2.66-9.91-.27s-20.48.73-20.48.73,7.31,6.59,15.36,5.12,15.51,2.51,17.63,3.09,2.85-5,2.85-5Z" fill="#dcedf2"/><path d="M370.22,234.76a5.74,5.74,0,0,1-1.3,3.79,4.57,4.57,0,0,1-3.6,1.63h-15.1a4.37,4.37,0,0,1-3.52-1.67,5.54,5.54,0,0,1-1.35-3.75v-5.12h4.47v4.72a1.86,1.86,0,0,0,.24,1.15,1.48,1.48,0,0,0,1.07.27h13.28c.58,0,.95-.13,1.11-.38a2,2,0,0,0,.23-1v-4.72h4.47Zm-8.14-7.85h-8.73V222.4h8.73Z" fill="#f4f4f4"/><path d="M379.57,240.18h-4.4V221.49h4.4Z" fill="#f4f4f4"/><path d="M395.9,229.64l0,9.2a8.7,8.7,0,0,1-2.31,5.92,7.17,7.17,0,0,1-5.58,2.62h-4.51l-.65-4.51H387a5,5,0,0,0,3.24-1,2.91,2.91,0,0,0,1.23-2.31v-9.92Z" fill="#f4f4f4"/><path d="M413.31,240.18h-1.12a4.83,4.83,0,0,1-.62,0,2.36,2.36,0,0,1-.76-.41,6.88,6.88,0,0,1-.71,3.09,8.39,8.39,0,0,1-2,2.51,7.9,7.9,0,0,1-5.34,2h-4.4l-.62-4.4h4.83a3.89,3.89,0,0,0,2.62-1,3.08,3.08,0,0,0,1.17-2.42v-9.92h4.4v4.91a1.29,1.29,0,0,0,.43,1,6,6,0,0,0,2.07.22Z" fill="#f4f4f4"/><path d="M429.21,240.18H425.5q-3.78,0-4.26-.69-.58.69-5.89.69h-3v-4.4h3.27a4.38,4.38,0,0,1-.65-1.38,5.62,5.62,0,0,1-.22-1.6,5.2,5.2,0,0,1,1.78-4.09,6.27,6.27,0,0,1,4.33-1.58A5.17,5.17,0,0,1,425,229a6.39,6.39,0,0,1,1.57,4.25,8.1,8.1,0,0,1-.11,1.28,6.56,6.56,0,0,1-.4,1.23h3.2Zm-4-15.34h-8.73v-4.51h8.73Zm-2.55,8.4a2,2,0,0,0-.56-1.48,1.86,1.86,0,0,0-1.4-.67,2,2,0,0,0-1.34.47,1.58,1.58,0,0,0-.42.51,1.62,1.62,0,0,0-.13.73,2.27,2.27,0,0,0,.55,1.4,5.15,5.15,0,0,0,1.92,1.36A2.78,2.78,0,0,0,422.62,233.24Z" fill="#f4f4f4"/><path d="M442.62,233.67a6.88,6.88,0,0,1-1.61,4.66,5.5,5.5,0,0,1-4.35,1.85,5.44,5.44,0,0,1-2.29-.43,4.61,4.61,0,0,1-1.78-1.28,2.3,2.3,0,0,1-1.71,1.42l-1.13.22-.73.07h-.72v-4.4h.47a8.14,8.14,0,0,0,1.6-.07c.36-.12.55-.56.55-1.31v-.8a6.6,6.6,0,0,1,1.61-4.6,5.31,5.31,0,0,1,4.13-1.8,5.48,5.48,0,0,1,4.33,2A6.76,6.76,0,0,1,442.62,233.67Zm-3.85,0a2,2,0,0,0-2.07-2.25,1.83,1.83,0,0,0-1.48.65,2.48,2.48,0,0,0-.52,1.6,5.33,5.33,0,0,0,.07.91,1.66,1.66,0,0,0,.44.77,2,2,0,0,0,1.49.58,1.91,1.91,0,0,0,1.51-.64A2.36,2.36,0,0,0,438.77,233.67Z" fill="#f4f4f4"/><path d="M464.93,239.75a7.31,7.31,0,0,1-2.36,5.23,7.69,7.69,0,0,1-5.67,2.4h-4.37l-.62-4.4h4.51a4.29,4.29,0,0,0,2.66-.8,6.26,6.26,0,0,0,.8-.93,3,3,0,0,0,.54-1.1,8.92,8.92,0,0,1-5.27-1.28q-2-1.45-2-4.87c0-2.81.52-4.66,1.63-5.55a6.67,6.67,0,0,1,4.26-1.32,5,5,0,0,1,5,2.91,14.85,14.85,0,0,1,.94,6.11Zm-4.43-4v-2.22a2.75,2.75,0,0,0-.06-.72,4,4,0,0,0-.31-.66,1.41,1.41,0,0,0-1.12-.54,1.57,1.57,0,0,0-1.1.47,3.55,3.55,0,0,0-.29,1.71,2.11,2.11,0,0,0,.59,1.56A5.42,5.42,0,0,0,460.5,235.78Z" fill="#f4f4f4"/><path d="M496.7,240.18h-1.13a4.73,4.73,0,0,1-.6,0,2.38,2.38,0,0,1-.78-.41,7.16,7.16,0,0,1-2.33,5.47,8,8,0,0,1-5.67,2.16h-4.37a7.11,7.11,0,0,1-5.52-2.47,8.27,8.27,0,0,1-2.11-5.71v-6.73h4.43v7.09a3.11,3.11,0,0,0,1.11,2.46,3.9,3.9,0,0,0,2.64,1H486a3.94,3.94,0,0,0,2.63-1,3.07,3.07,0,0,0,1.15-2.44v-9.92h4.4v4.91a1.27,1.27,0,0,0,.47,1,5.62,5.62,0,0,0,2,.22Zm-15.46-12.76h4.48v4.51h-4.48Z" fill="#f4f4f4"/><path d="M510.55,240.18h-1.63a11.14,11.14,0,0,1-2.06-.13,5.4,5.4,0,0,1-1.65-.74,5.55,5.55,0,0,1-2.33.67,37.89,37.89,0,0,1-4.51.2h-2.76v-4.4h3c1.55,0,2.42,0,2.62,0,1.18-.17,1.78-.63,1.78-1.39v-4.72h4.47v4.72a1.41,1.41,0,0,0,.44,1.24,19,19,0,0,0,2.65.18Zm-3.89,7.2h-8.73v-4.51h8.73Z" fill="#f4f4f4"/><path d="M519.13,229.64l0,5.12a5.66,5.66,0,0,1-1.31,3.75,4.46,4.46,0,0,1-3.53,1.67h-5.53v-4.4h4.59a1.7,1.7,0,0,0,1.12-.33,2.09,2.09,0,0,0,.22-1.09v-4.72Zm-4.43-7.28h4.47v4.51H514.7Z" fill="#f4f4f4"/><path d="M528.62,240.18h-4.4V221.49h4.4Z" fill="#f4f4f4"/><path d="M547.17,240.18h-.51a12.35,12.35,0,0,1-1.6-.07,6.53,6.53,0,0,1-2.47,5.14,8.26,8.26,0,0,1-5.53,2.13h-4.33L532,243h4.55a3.91,3.91,0,0,0,4-2.83,10.1,10.1,0,0,1-5.27-1.24c-1.36-.83-2-2.46-2-4.91q0-4.26,1.64-5.56a6.6,6.6,0,0,1,4.22-1.31,5.66,5.66,0,0,1,4.4,1.85q1.66,1.86,1.67,6.8h1.93Zm-6.44-4.4v-2.22a2.1,2.1,0,0,0-.31-1.34,2.3,2.3,0,0,0-1.25-.58,1.36,1.36,0,0,0-1,.47,3.55,3.55,0,0,0-.33,1.71,1.94,1.94,0,0,0,.62,1.56,2,2,0,0,0,.9.33C539.61,235.73,540.08,235.76,540.73,235.78Z" fill="#f4f4f4"/><path d="M560.12,234.25a5.21,5.21,0,0,1-1.6,4.37,6.58,6.58,0,0,1-4.55,1.56h-7.85v-4.4h8.65a.81.81,0,0,0,.73-.47c-2.52,0-4.25-.24-5.17-.73-1.4-.7-2.12-2.16-2.14-4.36a5,5,0,0,1,1.67-3.89,5.88,5.88,0,0,1,4.07-1.49,5.5,5.5,0,0,1,3.93,1.47,6.58,6.58,0,0,1,2,3.84,12.28,12.28,0,0,1,.15,1.6Zm-1.53-11.85h-8.73v-4.51h8.73Zm-2.51,8.87a2.26,2.26,0,0,0-.82-1.82,2.9,2.9,0,0,0-1.94-.69c-1.1,0-1.64.39-1.64,1.17a1.33,1.33,0,0,0,.58,1.12,8.81,8.81,0,0,0,2.44.22Z" fill="#f4f4f4"/></g></g></g></svg>