<?xml version="1.0" encoding="UTF-8"?>
<svg id="OBJECTS" xmlns="http://www.w3.org/2000/svg" viewBox="0 0 144.72 144.72">
  <defs>
    <style>
      .cls-1 {
        fill: #7dbdc7;
      }
    </style>
  </defs>
  <g>
    <path class="cls-1" d="M73.78,111.1c0,2.19-1.5,3.97-3.35,3.97,1.85,0,3.35,1.78,3.35,3.97,0-2.19,1.5-3.97,3.35-3.97-1.85,0-3.35-1.78-3.35-3.97Z"/>
    <path class="cls-1" d="M90.38,47.57c0,2.19-1.5,3.97-3.35,3.97,1.85,0,3.35,1.78,3.35,3.97,0-2.19,1.5-3.97,3.35-3.97-1.85,0-3.35-1.78-3.35-3.97Z"/>
    <path class="cls-1" d="M41.12,79.16c0,2.19-1.5,3.97-3.35,3.97,1.85,0,3.35,1.78,3.35,3.97,0-2.19,1.5-3.97,3.35-3.97-1.85,0-3.35-1.78-3.35-3.97Z"/>
    <path class="cls-1" d="M106.95,83.13c0,.69-.56,1.25-1.25,1.25s-1.25-.56-1.25-1.25,.56-1.25,1.25-1.25,1.25,.56,1.25,1.25Z"/>
    <path class="cls-1" d="M59.39,54.26c0,.69-.56,1.25-1.25,1.25s-1.25-.56-1.25-1.25,.56-1.25,1.25-1.25,1.25,.56,1.25,1.25Z"/>
    <path class="cls-1" d="M80.6,34.66c0,.69-.56,1.25-1.25,1.25s-1.25-.56-1.25-1.25,.56-1.25,1.25-1.25,1.25,.56,1.25,1.25Z"/>
  </g>
  <path class="cls-1" d="M46.05,112.45c3.99,3.49,18.26,4.96,19.87,5.12,.05,0,.1,0,.15,0,0,0,0,0,0,0h0s.02,0,.03,0c.1,0,.21-.01,.31-.03,.04,0,.07-.02,.11-.03,.07-.02,.15-.04,.22-.07,.04-.02,.07-.04,.11-.06,.06-.03,.13-.07,.19-.11,.09-.07,.18-.15,.26-.24,.08-.09,.15-.19,.2-.3,.02-.03,.03-.06,.04-.09,.04-.08,.07-.16,.09-.24,.01-.04,.02-.08,.03-.12,.02-.08,.03-.16,.03-.24,0-.04,0-.08,0-.12,0-.09-.01-.18-.03-.27,0-.02,0-.04,0-.07-.37-1.58-3.72-15.53-7.71-19.02-2.12-1.86-4.83-2.78-7.65-2.59-1.88,.12-3.64,.74-5.17,1.77-.09-.9,0-1.97,.6-2.95,1.02-1.66,3.84-3.62,11.35-3.86,.67,6.05,5.02,10.99,10.76,12.56-.17,.46-.28,.95-.28,1.47,0,.89,.72,1.62,1.62,1.62s1.62-.72,1.62-1.62c0-.52,.42-.94,.94-.94s.94,.42,.94,.94c0,.89,.72,1.62,1.62,1.62s1.62-.72,1.62-1.62c0-.52-.11-1.01-.28-1.47,5.74-1.57,10.09-6.52,10.76-12.57,8.04,.13,11,2.16,12.06,3.87,.6,.98,.69,2.05,.6,2.95-3.87-2.59-9.15-2.39-12.81,.82-3.99,3.49-7.34,17.44-7.71,19.02,0,.02,0,.04,0,.07-.02,.09-.03,.18-.03,.27,0,.04,0,.08,0,.12,0,.08,.01,.16,.03,.24,0,.04,.02,.08,.03,.12,.02,.08,.05,.16,.09,.24,.01,.03,.02,.06,.04,.09,.06,.1,.12,.21,.2,.3,.08,.09,.16,.17,.26,.24,.06,.04,.12,.08,.19,.11,.04,.02,.07,.05,.11,.06,.07,.03,.14,.05,.22,.07,.04,.01,.07,.03,.11,.03,.1,.02,.21,.03,.31,.03,0,0,.02,0,.03,0h0s0,0,0,0c.05,0,.1,0,.15,0,1.61-.16,15.89-1.63,19.87-5.12,4.12-3.6,4.75-9.73,1.62-14.08,.52-1.5,1.16-4.45-.53-7.22-2.12-3.49-7.11-5.32-14.81-5.45-.02-.24-.04-.48-.07-.73,10.42-1.05,14.8-5.83,14.99-6.04,.59-.67,.53-1.69-.13-2.28-.67-.59-1.69-.53-2.28,.13-.04,.04-3.77,4.1-13.06,4.99-.16-.87-.36-1.77-.58-2.71,10.26-1.1,14.58-5.81,14.77-6.02,.59-.67,.53-1.69-.13-2.28-.67-.59-1.69-.53-2.28,.13-.04,.04-3.81,4.14-13.2,5-.26-.89-.55-1.79-.86-2.68,10.55-1.02,14.99-5.84,15.18-6.06,.59-.67,.53-1.69-.13-2.28-.67-.59-1.69-.53-2.28,.13-.04,.04-4.01,4.36-13.96,5.07-.4-.95-.82-1.87-1.26-2.75,10.53-1.02,14.97-5.84,15.16-6.06,.59-.67,.53-1.69-.13-2.28-.67-.59-1.69-.53-2.28,.13-.04,.05-4.11,4.49-14.36,5.1-.05,0-.1,.02-.14,.02-.76-1.15-1.56-2.17-2.42-3.01,0-.07,.02-.14,.02-.21v-8.67c0-6.43-5.21-8.47-7.97-8.66-.04,0-.07,0-.11,0-4.33,0-8.19-3.39-8.26-7.25-.04-2,.71-3.89,2.11-5.31,1.4-1.43,3.27-2.21,5.27-2.21h11.21c2.71,0,4.51,.56,5.06,1.58,.73,1.34-.42,3.71-.88,4.42-.32,.5-.35,1.13-.07,1.65,.28,.52,.83,.85,1.42,.85,1.65,0,3.23-.7,4.34-1.92,1.11-1.22,1.66-2.87,1.5-4.52-.28-2.97-2.93-5.3-6.02-5.3h-23.03c-2.87,0-5.57,1.13-7.58,3.18-2.01,2.05-3.09,4.76-3.04,7.64,.11,5.75,5,10.42,10.92,10.42,2.99,0,5.43,2.43,5.43,5.43v8.25c-1.11,.93-2.15,2.17-3.11,3.62,0,0-.01,0-.02,0-10.09-.6-14.29-5.03-14.37-5.11-.59-.66-1.61-.72-2.28-.13-.67,.59-.73,1.62-.13,2.28,.19,.21,4.59,5,15.02,6.05-.45,.89-.87,1.81-1.26,2.75-9.7-.73-13.77-5-13.84-5.07-.59-.66-1.61-.72-2.28-.12-.67,.59-.73,1.62-.13,2.28,.19,.21,4.59,5,15.05,6.05-.31,.89-.6,1.79-.86,2.68-9.14-.89-12.99-4.92-13.07-5-.6-.66-1.61-.72-2.28-.13-.67,.59-.73,1.62-.13,2.28,.19,.21,4.47,4.89,14.63,6.01-.22,.93-.42,1.84-.58,2.71-9.04-.91-12.86-4.91-12.93-4.99-.59-.66-1.61-.72-2.28-.13-.67,.59-.73,1.62-.13,2.28,.19,.21,4.54,4.95,14.86,6.03-.03,.26-.05,.51-.07,.76-7.31,.22-12.05,2.05-14.1,5.43-1.68,2.77-1.05,5.72-.53,7.22-3.13,4.36-2.49,10.48,1.62,14.08Zm53.92-2.43c-1.78,1.55-7.61,2.86-12.85,3.67l9.6-8.4c.67-.59,.74-1.61,.15-2.28-.59-.67-1.61-.74-2.28-.15l-9.6,8.4c1.49-5.08,3.56-10.69,5.34-12.25,3.03-2.66,7.66-2.35,10.32,.69,2.66,3.03,2.35,7.67-.69,10.32ZM56.12,36.44c-.04-2,.71-3.89,2.11-5.31,1.1-1.12,2.49-1.84,4.01-2.1-1.91,2.03-2.94,4.67-2.89,7.47,.05,2.71,1.29,5.21,3.25,7.09-3.6-.56-6.41-3.55-6.48-7.15Zm14.66,10.48c.69,.06,4.92,.65,4.92,5.43v6.76c-.64-.23-1.3-.36-1.97-.36-.43,0-.84,.06-1.26,.16v-6.55c0-2.06-.73-3.95-1.93-5.44,.08,0,.16,.01,.24,.01Zm-8.28,37.03c.03-.11,.06-.23,.07-.36,0-.02,0-.03,0-.04,.27-1.69,.68-3.55,1.21-5.46,.01-.04,.02-.07,.03-.11,2.15-7.67,6.16-15.99,9.91-15.99,5.49,0,11.51,17.78,11.51,25.33,0,6.34-5.16,11.51-11.51,11.51s-11.51-5.16-11.51-11.51c0-.97,.1-2.11,.29-3.36Zm-15.01,15.75c1.29-1.47,3.07-2.35,5.02-2.48,.17-.01,.33-.02,.5-.02,1.77,0,3.46,.63,4.81,1.81,1.78,1.56,3.85,7.17,5.34,12.25l-9.6-8.4c-.67-.59-1.69-.52-2.28,.15-.59,.67-.52,1.69,.15,2.28l9.6,8.4c-5.23-.81-11.07-2.12-12.85-3.67-3.04-2.66-3.34-7.29-.69-10.32Z"/>
</svg>