<?xml version="1.0" encoding="UTF-8"?>
<svg id="OBJECTS" xmlns="http://www.w3.org/2000/svg" viewBox="0 0 144.72 144.72">
  <defs>
    <style>
      .cls-1 {
        fill: #7dbdc7;
      }
    </style>
  </defs>
  <g>
    <path class="cls-1" d="M48.62,46.99c0,2.36-1.62,4.28-3.61,4.28,1.99,0,3.61,1.92,3.61,4.28,0-2.36,1.62-4.28,3.61-4.28-1.99,0-3.61-1.92-3.61-4.28Z"/>
    <path class="cls-1" d="M93.43,85.81c0,2.36-1.62,4.28-3.61,4.28,1.99,0,3.61,1.92,3.61,4.28,0-2.36,1.62-4.28,3.61-4.28-1.99,0-3.61-1.92-3.61-4.28Z"/>
    <path class="cls-1" d="M34.84,78.54c0,.75-.6,1.35-1.35,1.35s-1.35-.6-1.35-1.35,.6-1.35,1.35-1.35,1.35,.6,1.35,1.35Z"/>
    <circle class="cls-1" cx="69.58" cy="35.52" r="1.35"/>
    <path class="cls-1" d="M110.12,97.78c0,.75-.6,1.35-1.35,1.35s-1.35-.6-1.35-1.35,.6-1.35,1.35-1.35,1.35,.6,1.35,1.35Z"/>
  </g>
  <g>
    <path class="cls-1" d="M88.75,29.69c-1.03,.53-2.01,1.13-2.94,1.79-.02,.02-.05,.04-.07,.05-5.55,3.95-9.15,10.01-9.91,16.88l-7.66,4.97c-2.2-1.1-4.9-1.06-7.11,.37-3.15,2.04-4.15,6.15-2.4,9.4-4.98,1.64-15.89,6.89-15.89,21.53v17c0,.06,0,.13,.01,.19,0,.06,.61,6-2.6,9.58-1.62,1.8-4.01,2.71-7.11,2.71h-4.65c-2.13,0-3.87-1.74-3.87-3.87v-1.65c0-1.87,1.52-3.39,3.39-3.39s3.39,1.52,3.39,3.39c0,.96,.78,1.74,1.74,1.74s1.74-.78,1.74-1.74c0-3.79-3.08-6.87-6.87-6.87s-6.87,3.08-6.87,6.87v1.65c0,4.05,3.3,7.35,7.35,7.35h4.65c4.13,0,7.39-1.3,9.69-3.87,4.02-4.48,3.57-11.22,3.48-12.17v-16.92c0-13.58,10.8-17.56,14.34-18.5l2.29,3.54c-7.44,1.79-11.51,7.83-11.51,17.32,0,.96,.78,1.74,1.74,1.74s1.74-.78,1.74-1.74c0-8.38,3.39-13.14,10.06-14.18l4.08,6.29c-5.32,1.05-9.34,5.75-9.34,11.37v12.83c0,4.32,1.93,8.19,4.97,10.81h-2.4c-4.07,0-7.38-3.31-7.38-7.38v-4.48c0-.96-.78-1.74-1.74-1.74s-1.74,.78-1.74,1.74v4.48c0,5.99,4.87,10.86,10.86,10.86h14.68c.13,0,.26-.02,.38-.04,7.44-.39,11.21-3.56,11.21-9.43v-.19c0-4.44-3.61-8.06-8.06-8.06s-8.06,3.61-8.06,8.06c0,.96,.78,1.74,1.74,1.74s1.74-.78,1.74-1.74c0-2.52,2.05-4.58,4.58-4.58s4.58,2.05,4.58,4.58v.19c0,2.97-1.11,6-9.37,6h-1.71c-5.96,0-10.81-4.85-10.81-10.81v-12.83c0-4.43,3.57-8.03,7.98-8.11l.44,.69c1.04,1.6,2.64,2.71,4.51,3.1,.5,.11,1.01,.16,1.51,.16,1.36,0,2.7-.39,3.87-1.15,1.6-1.04,2.71-2.64,3.1-4.51,.13-.61,.17-1.22,.14-1.83l7.66-4.96c6.49,2.08,13.4,1.35,19.26-2.02,.18-.07,.33-.17,.47-.29,.21-.13,.42-.25,.63-.38,5.59-3.62,9.33-9.21,10.55-15.76,1.22-6.54-.28-13.12-4.2-18.52-6.88-9.47-19.9-12.58-30.29-7.24Zm-7.62,50.27c-.2,.96-.77,1.78-1.59,2.31h0c-.82,.53-1.81,.71-2.76,.51-.96-.2-1.78-.77-2.31-1.59l-11.6-17.91s-.01-.02-.02-.03l-.98-1.51c-1.1-1.7-.61-3.98,1.08-5.08,.62-.4,1.31-.59,1.99-.59,1.2,0,2.39,.59,3.09,1.67l12.6,19.45c.53,.82,.71,1.8,.51,2.76Zm11.56-9.62c-.51-.18-1.08-.12-1.53,.18l-7.55,4.89-6.37-9.83-6.3-9.73s0,0,0,0l-.06-.1,7.55-4.89c.46-.3,.75-.79,.79-1.33,.43-5.68,3.12-10.77,7.39-14.29,9.74,9.81,17.19,21.31,22.16,34.2-4.98,2.48-10.72,2.82-16.08,.89Zm27.13-15.53c-.97,5.2-3.81,9.7-8.04,12.79-5.07-12.92-12.55-24.46-22.27-34.37,.27-.16,.54-.31,.82-.46,8.88-4.56,20.01-1.9,25.89,6.19,3.36,4.62,4.63,10.24,3.59,15.84Z"/>
    <path class="cls-1" d="M28.8,92.7c0,.96,.78,1.74,1.74,1.74,3.9,0,4.15,3.47,4.16,4.17,0,.96,.78,1.73,1.74,1.73s1.74-.78,1.74-1.74c0-3.07-2.03-7.64-7.64-7.64-.96,0-1.74,.78-1.74,1.74Z"/>
    <path class="cls-1" d="M66.55,100.15c0,.96,.78,1.74,1.74,1.74s1.74-.78,1.74-1.74c0-3.9,3.47-4.15,4.17-4.16,.96,0,1.73-.78,1.73-1.74s-.78-1.74-1.74-1.74c-3.07,0-7.64,2.03-7.64,7.64Z"/>
  </g>
</svg>