<?xml version="1.0" encoding="UTF-8"?>
<svg id="OBJECTS" xmlns="http://www.w3.org/2000/svg" viewBox="0 0 144.72 144.72">
  <defs>
    <style>
      .cls-1 {
        fill: #7dbdc7;
      }
    </style>
  </defs>
  <g>
    <path class="cls-1" d="M78.59,54.85c0,2.36-1.62,4.28-3.61,4.28,1.99,0,3.61,1.92,3.61,4.28,0-2.36,1.62-4.28,3.61-4.28-1.99,0-3.61-1.92-3.61-4.28Z"/>
    <path class="cls-1" d="M82.2,102.72c0,2.36-1.62,4.28-3.61,4.28,1.99,0,3.61,1.92,3.61,4.28,0-2.36,1.62-4.28,3.61-4.28-1.99,0-3.61-1.92-3.61-4.28Z"/>
    <path class="cls-1" d="M33.74,54.85c0,2.36-1.62,4.28-3.61,4.28,1.99,0,3.61,1.92,3.61,4.28,0-2.36,1.62-4.28,3.61-4.28-1.99,0-3.61-1.92-3.61-4.28Z"/>
    <path class="cls-1" d="M62.96,91.76c0,.75-.6,1.35-1.35,1.35s-1.35-.6-1.35-1.35,.6-1.35,1.35-1.35,1.35,.6,1.35,1.35Z"/>
    <path class="cls-1" d="M110.63,80.21c0,.75-.6,1.35-1.35,1.35s-1.35-.6-1.35-1.35,.6-1.35,1.35-1.35,1.35,.6,1.35,1.35Z"/>
    <path class="cls-1" d="M100.73,34.79c0,.75-.6,1.35-1.35,1.35s-1.35-.6-1.35-1.35,.6-1.35,1.35-1.35,1.35,.6,1.35,1.35Z"/>
  </g>
  <path class="cls-1" d="M112.35,96.01l-7.57,2.47-1.09-1.09,5.92-1.93c.9-.29,1.39-1.26,1.1-2.16-.29-.9-1.25-1.39-2.16-1.1l-7.57,2.47-1.09-1.09,5.92-1.93c.9-.29,1.39-1.26,1.1-2.16-.29-.9-1.25-1.39-2.16-1.1l-5.36,1.75,13.48-35.95s.02-.08,.03-.12c.02-.06,.04-.12,.05-.18,.01-.06,.01-.11,.02-.17,0-.05,.01-.1,0-.16,0-.06,0-.12-.02-.17,0-.05-.01-.1-.02-.16-.01-.05-.03-.11-.05-.16-.02-.05-.03-.11-.05-.16-.02-.05-.05-.1-.08-.15-.03-.05-.05-.09-.08-.14-.04-.06-.08-.11-.13-.16-.02-.03-.04-.06-.07-.09l-4.17-4.17c-15.09-15.09-39.39-15.48-54.96-1.18l-5.2-5.2,6.1-.34c.94-.05,1.66-.86,1.61-1.8-.05-.94-.86-1.66-1.8-1.61l-9.92,.55s-.08,.01-.12,.02c-.05,0-.1,.01-.15,.02-.06,.01-.11,.03-.17,.05-.05,.02-.09,.03-.14,.05-.06,.03-.12,.06-.17,.09-.04,.02-.07,.04-.11,.06-.18,.12-.34,.28-.46,.46-.02,.03-.04,.07-.06,.11-.03,.06-.07,.11-.09,.17-.02,.04-.03,.09-.05,.14-.02,.06-.04,.11-.05,.17-.01,.05-.02,.1-.02,.15,0,.04-.02,.08-.02,.12l-.55,9.92c-.05,.94,.67,1.75,1.61,1.8,.03,0,.06,0,.1,0,.9,0,1.65-.7,1.71-1.62l.34-6.1,5.2,5.2c-6.76,7.35-10.46,16.82-10.46,26.86,0,10.61,4.13,20.59,11.64,28.1l4.15,4.15s.01,.02,.02,.02c.07,.07,.14,.12,.22,.18,.01,.01,.03,.02,.04,.03,.13,.09,.26,.15,.4,.19,.03,.01,.07,.02,.1,.03,.14,.04,.29,.06,.43,.07,0,0,0,0,.01,0,.1,0,.21-.01,.31-.03,.04,0,.07-.02,.11-.03,.06-.02,.12-.03,.18-.05l35.92-13.47-1.72,5.36c-.29,.9,.21,1.86,1.11,2.15,.17,.06,.35,.08,.52,.08,.72,0,1.4-.46,1.63-1.19l1.9-5.94,1.08,1.08-2.44,7.61c-.29,.9,.21,1.86,1.11,2.15,.17,.06,.35,.08,.52,.08,.72,0,1.4-.46,1.63-1.19l1.9-5.94,1.08,1.08-2.44,7.61c-.29,.9,.21,1.86,1.11,2.15,.17,.06,.35,.08,.52,.08,.72,0,1.4-.46,1.63-1.19l1.9-5.94,.94,.94c.33,.33,.77,.5,1.21,.5s.87-.17,1.21-.5c.67-.67,.67-1.75,0-2.42l-.91-.92,5.92-1.93c.9-.29,1.39-1.26,1.1-2.16-.29-.9-1.25-1.39-2.16-1.1Zm-32.14-55.98c4.48,0,8.95,.82,13.18,2.46-10.97-1.66-22.8,2.32-32.84,11.76l-4.78-4.78c6.91-6.29,15.67-9.44,24.44-9.44Zm-36.32,36.3c0-9.13,3.35-17.74,9.46-24.44l4.78,4.78c-9.46,10.07-13.44,21.94-11.75,32.94-1.64-4.17-2.49-8.66-2.49-13.27Zm14.06,29.07c-12.18-12.96-11.12-31.66,2.59-46.32l32.98,32.98-35.57,13.34Zm37.99-15.76L62.96,56.66c6.87-6.41,15.01-10.29,23.08-10.97,8.64-.72,16.65,2.17,23.24,8.38l-13.34,35.57Z"/>
</svg>