<?xml version="1.0" encoding="UTF-8"?>
<svg id="OBJECTS" xmlns="http://www.w3.org/2000/svg" viewBox="0 0 144.72 144.72">
  <defs>
    <style>
      .cls-1 {
        fill: #7dbdc7;
      }
    </style>
  </defs>
  <g>
    <path class="cls-1" d="M50.13,109.99c0,2.36-1.62,4.28-3.61,4.28,1.99,0,3.61,1.92,3.61,4.28,0-2.36,1.62-4.28,3.61-4.28-1.99,0-3.61-1.92-3.61-4.28Z"/>
    <path class="cls-1" d="M93.56,26.17c0,2.36-1.62,4.28-3.61,4.28,1.99,0,3.61,1.92,3.61,4.28,0-2.36,1.62-4.28,3.61-4.28-1.99,0-3.61-1.92-3.61-4.28Z"/>
    <path class="cls-1" d="M52.46,70.73c0,2.36-1.62,4.28-3.61,4.28,1.99,0,3.61,1.92,3.61,4.28,0-2.36,1.62-4.28,3.61-4.28-1.99,0-3.61-1.92-3.61-4.28Z"/>
    <path class="cls-1" d="M100.64,71.96c0,.75-.6,1.35-1.35,1.35s-1.35-.6-1.35-1.35,.6-1.35,1.35-1.35,1.35,.6,1.35,1.35Z"/>
    <circle class="cls-1" cx="46.19" cy="32.03" r="1.35"/>
    <path class="cls-1" d="M36.77,68.15c0,.75-.6,1.35-1.35,1.35s-1.35-.6-1.35-1.35,.6-1.35,1.35-1.35,1.35,.6,1.35,1.35Z"/>
  </g>
  <g>
    <path class="cls-1" d="M39.15,61.09c.06,.1,.13,.19,.21,.27,2.78,3.81,7.26,6.3,12.33,6.3h30.17c4.3,0,9.47-3.33,11.42-4.7l15.13,4.63c.17,.05,.34,.08,.51,.08,.48,0,.94-.2,1.28-.56,.45-.49,.59-1.2,.34-1.82-3.37-8.55-3.37-17.23,0-25.79,.25-.64,.1-1.36-.37-1.85-.48-.49-1.2-.66-1.84-.42l-14.77,5.35c-2.89-3.44-7.17-5.46-11.7-5.46h-.61l1.7-3.62c.25-.54,.21-1.17-.11-1.67-.32-.5-.87-.81-1.47-.81h-22.26c-.67,0-1.29,.39-1.58,1l-2.4,5.1h-3.45c-8.42,0-15.27,6.85-15.27,15.27,0,3.23,1.01,6.22,2.73,8.7Zm35.06-26.59h4.42l-1.23,2.62h-4.42l1.23-2.62Zm-7.4,0h3.55l-1.23,2.62h-3.55l1.23-2.62Zm-6.6,0h2.75l-1.23,2.62h-2.75l1.23-2.62Zm-8.53,6.1h30.17c3.85,0,7.46,1.89,9.67,5.04,.45,.65,1.28,.91,2.02,.64l12.54-4.55c-.28,.94-.51,1.87-.72,2.81l-8.75,2.39c-.93,.25-1.47,1.21-1.22,2.14,.21,.77,.91,1.28,1.68,1.28,.15,0,.31-.02,.46-.06l7.22-1.97c-.1,.93-.17,1.87-.21,2.8h-7.47c-.96,0-1.74,.78-1.74,1.74s.78,1.74,1.74,1.74h7.52c.06,.97,.16,1.94,.29,2.92l-7.39-1.84c-.93-.24-1.88,.33-2.11,1.27-.23,.93,.33,1.88,1.27,2.11l8.97,2.23c.16,.65,.33,1.31,.53,1.96l-12.69-3.88c-.54-.16-1.12-.06-1.56,.28-1.66,1.26-6.69,4.53-10.04,4.53h-20.47c3.4-2.8,5.58-7.05,5.58-11.79,0-.96-.78-1.74-1.74-1.74s-1.74,.78-1.74,1.74c0,6.5-5.29,11.79-11.79,11.79-2.54,0-4.89-.82-6.82-2.19,2.14-.18,4.57-.72,6.18-2.15,1.19-1.06,1.83-2.48,1.83-4.12,0-.96-.78-1.74-1.74-1.74s-1.74,.78-1.74,1.74c0,.65-.2,1.11-.65,1.51-1.41,1.25-4.81,1.46-7.1,1.31-1.1-1.79-1.75-3.89-1.75-6.15,0-6.5,5.29-11.79,11.79-11.79Z"/>
    <path class="cls-1" d="M51.13,49.95c1.29,0,2.33-1.04,2.33-2.33s-1.04-2.33-2.33-2.33-2.33,1.04-2.33,2.33,1.04,2.33,2.33,2.33Z"/>
    <path class="cls-1" d="M68.07,49.47c.34,.33,.77,.49,1.21,.49,.46,0,.91-.18,1.25-.53,2.47-2.56,1.13-5.61,.08-6.86-.61-.73-1.69-.82-2.43-.22-.74,.6-.85,1.7-.25,2.44,.3,.38,.92,1.36,.09,2.22-.67,.69-.65,1.8,.05,2.46Z"/>
    <path class="cls-1" d="M69.28,63.06c.46,0,.91-.18,1.25-.53,2.47-2.56,1.13-5.61,.08-6.86-.61-.73-1.69-.82-2.43-.22-.74,.6-.85,1.7-.25,2.44,.3,.38,.92,1.36,.09,2.22-.67,.69-.65,1.79,.05,2.46,.34,.33,.77,.49,1.21,.49Z"/>
    <path class="cls-1" d="M79.83,49.47c.34,.33,.77,.49,1.21,.49,.46,0,.91-.18,1.25-.53,2.47-2.56,1.13-5.61,.08-6.86-.61-.73-1.69-.82-2.43-.22-.74,.6-.84,1.7-.25,2.44,.3,.38,.92,1.36,.09,2.22-.67,.69-.65,1.79,.05,2.46Z"/>
    <path class="cls-1" d="M81.03,63.06c.46,0,.91-.18,1.25-.53,2.47-2.56,1.13-5.61,.08-6.86-.61-.73-1.69-.82-2.43-.22-.74,.6-.84,1.7-.25,2.44,.3,.38,.92,1.36,.09,2.22-.67,.69-.65,1.79,.05,2.46,.34,.33,.77,.49,1.21,.49Z"/>
    <path class="cls-1" d="M73.5,56.39c.34,.33,.77,.49,1.21,.49,.46,0,.91-.18,1.25-.53,2.47-2.56,1.13-5.61,.08-6.86-.61-.73-1.69-.82-2.43-.22-.74,.6-.85,1.7-.25,2.44,.3,.38,.92,1.36,.09,2.22-.67,.69-.65,1.79,.05,2.46Z"/>
    <path class="cls-1" d="M85.25,56.39c.34,.33,.77,.49,1.21,.49,.46,0,.91-.18,1.25-.53,2.47-2.56,1.13-5.61,.08-6.86-.61-.73-1.69-.82-2.43-.22-.74,.6-.85,1.7-.25,2.44,.3,.38,.92,1.36,.09,2.22-.67,.69-.65,1.79,.05,2.46Z"/>
    <path class="cls-1" d="M95.38,81.45h-3.45l-2.4-5.1c-.29-.61-.9-1-1.58-1h-22.26c-.6,0-1.15,.3-1.47,.81-.32,.5-.36,1.13-.11,1.67l1.7,3.62h-.61c-4.53,0-8.81,2.02-11.7,5.46l-14.77-5.35c-.64-.23-1.36-.07-1.84,.42-.48,.49-.62,1.21-.37,1.85,3.37,8.55,3.37,17.23,0,25.79-.24,.62-.11,1.33,.34,1.82,.33,.36,.8,.56,1.28,.56,.17,0,.34-.02,.51-.08l15.13-4.63c1.95,1.37,7.12,4.7,11.42,4.7h30.17c5.07,0,9.56-2.49,12.34-6.31,.07-.08,.13-.16,.19-.25,1.73-2.47,2.74-5.47,2.74-8.71,0-8.42-6.85-15.27-15.27-15.27Zm-8.53-2.62l1.23,2.62h-2.75l-1.23-2.62h2.75Zm-6.6,0l1.23,2.62h-3.55l-1.23-2.62h3.55Zm-7.4,0l1.23,2.62h-4.42l-1.23-2.62h4.42Zm32.56,24.04c-2.29,.16-5.69-.06-7.1-1.31-.45-.4-.65-.86-.65-1.51,0-.96-.78-1.74-1.74-1.74s-1.74,.78-1.74,1.74c0,1.64,.63,3.06,1.83,4.12,1.62,1.43,4.05,1.97,6.18,2.15-1.93,1.37-4.28,2.19-6.82,2.19-6.5,0-11.79-5.29-11.79-11.79,0-.96-.78-1.74-1.74-1.74s-1.74,.78-1.74,1.74c0,4.74,2.17,8.99,5.58,11.79h-20.47c-3.34,0-8.38-3.27-10.04-4.53-.45-.34-1.03-.44-1.56-.28l-12.69,3.88c.2-.65,.37-1.31,.53-1.96l8.97-2.23c.93-.23,1.5-1.18,1.27-2.11-.23-.93-1.18-1.5-2.11-1.27l-7.39,1.84c.14-.97,.23-1.94,.29-2.92h7.52c.96,0,1.74-.78,1.74-1.74s-.78-1.74-1.74-1.74h-7.47c-.03-.93-.1-1.87-.21-2.8l7.22,1.97c.15,.04,.31,.06,.46,.06,.77,0,1.47-.51,1.68-1.28,.25-.93-.29-1.88-1.22-2.14l-8.75-2.39c-.2-.94-.44-1.88-.72-2.81l12.54,4.55c.74,.27,1.57,0,2.02-.64,2.21-3.16,5.82-5.04,9.67-5.04h30.17c6.5,0,11.79,5.29,11.79,11.79,0,2.25-.65,4.35-1.75,6.15Z"/>
    <circle class="cls-1" cx="95.94" cy="91.95" r="2.33"/>
    <path class="cls-1" d="M79.13,89.12c.61-.74,.51-1.82-.23-2.44-.74-.62-1.83-.52-2.45,.22-1.05,1.25-2.39,4.3,.08,6.86,.34,.36,.8,.53,1.25,.53s.87-.16,1.21-.49c.69-.67,.71-1.77,.05-2.46-.83-.86-.22-1.84,.09-2.22Z"/>
    <path class="cls-1" d="M79.13,102.23c.61-.74,.51-1.82-.23-2.44-.74-.62-1.83-.52-2.45,.21-1.05,1.25-2.39,4.3,.08,6.86,.34,.35,.8,.53,1.25,.53s.87-.16,1.21-.49c.69-.67,.71-1.77,.05-2.46-.83-.86-.22-1.84,.09-2.22Z"/>
    <path class="cls-1" d="M67.38,89.12c.61-.74,.51-1.82-.23-2.44-.74-.62-1.83-.52-2.45,.22-1.05,1.25-2.39,4.3,.08,6.86,.34,.36,.8,.53,1.25,.53s.87-.16,1.21-.49c.69-.67,.71-1.77,.05-2.46-.83-.86-.22-1.84,.09-2.22Z"/>
    <path class="cls-1" d="M67.38,102.23c.61-.74,.51-1.82-.23-2.44-.74-.62-1.83-.52-2.45,.21-1.05,1.25-2.39,4.3,.08,6.86,.34,.35,.8,.53,1.25,.53s.87-.16,1.21-.49c.69-.67,.71-1.77,.05-2.46-.83-.86-.21-1.84,.09-2.22Z"/>
    <path class="cls-1" d="M73.71,96.04c.61-.74,.51-1.82-.23-2.44-.74-.62-1.83-.52-2.45,.22-1.05,1.25-2.39,4.3,.08,6.86,.34,.35,.8,.53,1.25,.53s.87-.16,1.21-.49c.69-.67,.71-1.77,.05-2.46-.83-.86-.21-1.84,.09-2.22Z"/>
    <path class="cls-1" d="M61.95,96.04c.61-.74,.51-1.82-.23-2.44-.74-.62-1.83-.52-2.45,.22-1.05,1.25-2.39,4.3,.08,6.86,.34,.35,.8,.53,1.25,.53s.87-.16,1.21-.49c.69-.67,.71-1.77,.05-2.46-.83-.86-.21-1.84,.09-2.22Z"/>
  </g>
</svg>