<?xml version="1.0" encoding="UTF-8"?>
<svg id="OBJECTS" xmlns="http://www.w3.org/2000/svg" viewBox="0 0 144.72 144.72">
  <defs>
    <style>
      .cls-1 {
        fill: #7dbdc7;
      }
    </style>
  </defs>
  <g>
    <path class="cls-1" d="M74.39,26.31c0,2.36-1.62,4.28-3.61,4.28,1.99,0,3.61,1.92,3.61,4.28,0-2.36,1.62-4.28,3.61-4.28-1.99,0-3.61-1.92-3.61-4.28Z"/>
    <path class="cls-1" d="M44.97,105.08c0,2.36-1.62,4.28-3.61,4.28,1.99,0,3.61,1.92,3.61,4.28,0-2.36,1.62-4.28,3.61-4.28-1.99,0-3.61-1.92-3.61-4.28Z"/>
    <path class="cls-1" d="M104.28,77.55c0,2.36-1.62,4.28-3.61,4.28,1.99,0,3.61,1.92,3.61,4.28,0-2.36,1.62-4.28,3.61-4.28-1.99,0-3.61-1.92-3.61-4.28Z"/>
    <path class="cls-1" d="M44.97,46.71c0,.75-.6,1.35-1.35,1.35s-1.35-.6-1.35-1.35,.6-1.35,1.35-1.35,1.35,.6,1.35,1.35Z"/>
    <path class="cls-1" d="M96.69,55.04c0,.75-.6,1.35-1.35,1.35s-1.35-.6-1.35-1.35,.6-1.35,1.35-1.35,1.35,.6,1.35,1.35Z"/>
    <path class="cls-1" d="M40.94,84.78c0,.75-.6,1.35-1.35,1.35s-1.35-.6-1.35-1.35,.6-1.35,1.35-1.35,1.35,.6,1.35,1.35Z"/>
  </g>
  <path class="cls-1" d="M112.71,23.9c-.71-.05-17.41-1.05-28.89,9.68-6.51,6.08-9.96,14.67-10.28,25.53-.39-.02-.78-.03-1.17-.03s-.78,.01-1.17,.03c-.32-10.86-3.77-19.45-10.28-25.53-11.48-10.73-28.19-9.73-28.89-9.68-.87,.06-1.55,.76-1.6,1.63s.57,1.63,1.42,1.78c.27,.05,26.3,4.91,26.77,36.39-.83,.63-1.62,1.32-2.36,2.05-5.12-7.43-14.4-7.66-18.92-6.62-.81,.19-1.37,.93-1.33,1.76,.49,9.63,8.65,13.94,14.25,15.24-.49,1.86-.75,3.81-.75,5.82v8.93c0,8.98,5.4,17.21,13.53,20.87,.12,5.05,4.25,9.13,9.33,9.13s9.22-4.07,9.33-9.13c8.14-3.65,13.53-11.88,13.53-20.87v-8.93c0-1.99-.26-3.92-.74-5.76,5.6-1.23,14.02-5.52,14.52-15.3,.04-.83-.52-1.57-1.33-1.76-4.56-1.05-13.95-.81-19.04,6.79-.79-.8-1.64-1.55-2.54-2.22,.45-31.96,25.66-36.21,26.74-36.38,.87-.13,1.5-.89,1.46-1.77-.04-.88-.72-1.59-1.6-1.64Zm-69.08,4.6c4.85,1.15,10.42,3.36,14.96,7.61,5.87,5.49,8.94,13.38,9.18,23.44-2.03,.42-3.97,1.11-5.77,2.03-.92-18.59-10.39-28.23-18.37-33.08Zm-4.03,33.74c3.15-.35,10.44-.33,14.31,6.23-.99,1.35-1.83,2.81-2.51,4.37-3.03-.69-10.52-3.13-11.8-10.6Zm23.42,45.66c-6.12-3.38-10.09-9.93-10.09-17.03v-.31c2.33,2.5,5.64,4.08,9.32,4.08h.77v13.26Zm-9.91-24.23h.66c4.51,0,8.28,3.25,9.08,7.53h-.6c-4.52,0-8.3-3.25-9.14-7.53Zm13.34,27.85v-5.24l4.19,4.2v1.55l-3.79,1.6c-.25-.66-.4-1.37-.4-2.11Zm2.86-7.23h6.09l-3.04,3.05-3.04-3.05Zm3.04,13.14c-1.21,0-2.34-.37-3.28-1l3.28-1.39,3.28,1.39c-.94,.63-2.07,1-3.28,1Zm5.91-5.91c0,.75-.14,1.46-.4,2.12l-3.79-1.6v-1.55l4.19-4.2v5.24Zm13.52-20.65c0,7.1-3.97,13.65-10.09,17.03v-13.26h.99c3.61,0,6.82-1.5,9.09-3.92v.15Zm-9.92,.33c.81-4.28,4.57-7.53,9.08-7.53h.67c-.8,4.34-4.43,7.53-8.92,7.53h-.83Zm23.54-28.97c-1.31,7.77-9.2,10.08-12.06,10.66-.65-1.49-1.45-2.9-2.38-4.21,3.83-6.78,11.26-6.81,14.44-6.46Zm-13.7,18h-.76c-7,0-12.69,5.69-12.69,12.69v8.22c-.38-.19-.8-.29-1.24-.29h-9.34c-.44,0-.86,.11-1.24,.29v-8.22c0-7-5.69-12.69-12.69-12.69h-.76c.87-9.92,9.21-17.72,19.35-17.72s18.48,7.81,19.35,17.72Zm-8.99-18.67c-1.8-.92-3.73-1.61-5.76-2.03,.24-10.06,3.32-17.95,9.18-23.44,4.37-4.09,9.71-6.3,14.43-7.48-7.88,4.85-16.97,14.43-17.85,32.95Z"/>
</svg>