<?xml version="1.0" encoding="UTF-8"?>
<svg id="OBJECTS" xmlns="http://www.w3.org/2000/svg" viewBox="0 0 144.72 144.72">
  <defs>
    <style>
      .cls-1 {
        fill: #7dbdc7;
      }
    </style>
  </defs>
  <g>
    <path class="cls-1" d="M103.11,110.87c-6.99-3.07-15.11-7.16-16.04-8.42-.86-1.29-1.35-4.93-1.5-7.38,5.82-3.89,8.92-8.71,10.56-12.98,1.83-.38,5.54-1.64,6.45-5.67,.54-2.38-.12-3.84-.77-4.66-.19-.24-.4-.43-.61-.61,1.92-4.62,6.85-19.31-3.93-27.16-10.35-7.53-18.64-3.94-21.45-2.29-3.25-1.86-13.91-6.37-26.84,4.94-14.41,12.61-6.01,33.25,1.22,43.46,4.91,6.94,.57,17.91-.52,20.4-.27,.12-.53,.24-.8,.35-.83,.37-1.21,1.34-.85,2.17,.27,.62,.87,.98,1.51,.98,.22,0,.45-.04,.66-.14,4.7-2.06,15.8-7.12,17.45-9.61,1.13-1.69,1.65-4.89,1.9-7.19,1.41,.72,2.96,1.39,4.64,2v13.29c0,.91,.74,1.65,1.65,1.65s1.65-.74,1.65-1.65v-13.29c1.79-.65,3.44-1.37,4.93-2.15,.24,2.31,.76,5.61,1.91,7.34,1.66,2.49,12.76,7.55,17.45,9.61,.21,.09,.44,.14,.66,.14,.63,0,1.24-.37,1.51-.98,.37-.83-.01-1.8-.85-2.17Zm-3.74-35.18c-.29,1.28-1.17,2.06-2.08,2.54,.45-2.02,.59-3.75,.63-4.95h.03s.9,.05,1.29,.54c.36,.45,.27,1.27,.13,1.87Zm-21.88-31.17c2.02-1.26,8.81-4.45,17.84,2.13,8.99,6.54,4.42,19.5,2.79,23.34-.03,0-.07,0-.09,0-14.75-1.22-19.85-13.81-20.55-15.73v-9.74Zm-12.56,57.92c-.71,.96-5.59,3.57-10.96,6.1,1.68-5.03,3.53-13.83-1.08-20.34-6.59-9.31-14.38-28.02-1.74-39.08,11.63-10.18,20.62-6.05,23.04-4.59v9.71c-.68,1.84-5.92,14.53-20.55,15.74-.48,.01-2.5,.17-3.78,1.78-.65,.81-1.31,2.28-.77,4.66,.91,4.02,4.63,5.28,6.45,5.67,1.67,4.34,4.85,9.24,10.86,13.17-.17,2.44-.65,5.93-1.49,7.18Zm-10.54-24.21c-.91-.48-1.79-1.26-2.08-2.54-.14-.6-.23-1.41,.12-1.86,.33-.43,1.08-.54,1.29-.55h.03c.03,1.2,.18,2.93,.63,4.95Zm3.93,2.11c-.03-.19-.09-.38-.19-.55-.98-3.02-1.13-5.59-1.11-6.95,8.79-1.71,14.17-7.21,17.18-11.65v25.91h-1.16c-.59,0-1.06,.47-1.06,1.06s.47,1.06,1.06,1.06h1.16v6.35c-9.83-3.9-14.07-10.13-15.87-15.23Zm19.17,15.23v-6.35h1.32c.59,0,1.06-.47,1.06-1.06s-.47-1.06-1.06-1.06h-1.32v-25.91c3.01,4.44,8.38,9.93,17.16,11.65,0,3.68-1.22,16.38-17.16,22.73Z"/>
    <path class="cls-1" d="M86.61,74.58c-.1-.05-1.63-.91-3.65-.91-1.04,0-2.22,.23-3.39,.91-.51,.3-.68,.94-.38,1.45,.3,.51,.95,.67,1.45,.38,2.36-1.38,4.81-.06,4.93,0,.51,.29,1.15,.11,1.44-.4,.29-.51,.11-1.16-.4-1.45Z"/>
    <path class="cls-1" d="M71.58,74.58c-.1-.05-1.63-.91-3.65-.91-1.04,0-2.22,.23-3.39,.91-.51,.3-.68,.94-.38,1.45,.3,.51,.95,.67,1.45,.38,2.36-1.38,4.81-.06,4.93,0,.51,.29,1.15,.11,1.44-.4,.29-.51,.11-1.16-.4-1.45Z"/>
  </g>
  <g>
    <path class="cls-1" d="M46.53,93.01c0,2.36-1.62,4.28-3.61,4.28,1.99,0,3.61,1.92,3.61,4.28,0-2.36,1.62-4.28,3.61-4.28-1.99,0-3.61-1.92-3.61-4.28Z"/>
    <path class="cls-1" d="M76.63,30.7c0,2.36-1.62,4.28-3.61,4.28,1.99,0,3.61,1.92,3.61,4.28,0-2.36,1.62-4.28,3.61-4.28-1.99,0-3.61-1.92-3.61-4.28Z"/>
    <path class="cls-1" d="M101.35,87.92c0,2.36-1.62,4.28-3.61,4.28,1.99,0,3.61,1.92,3.61,4.28,0-2.36,1.62-4.28,3.61-4.28-1.99,0-3.61-1.92-3.61-4.28Z"/>
    <path class="cls-1" d="M94.65,99.19c0,.75-.6,1.35-1.35,1.35s-1.35-.6-1.35-1.35,.6-1.35,1.35-1.35,1.35,.6,1.35,1.35Z"/>
    <circle class="cls-1" cx="50.14" cy="38.21" r="1.35"/>
    <circle class="cls-1" cx="41.11" cy="87.15" r="1.35"/>
  </g>
</svg>