<?xml version="1.0" encoding="UTF-8"?>
<svg id="OBJECTS" xmlns="http://www.w3.org/2000/svg" viewBox="0 0 144.72 144.72">
  <defs>
    <style>
      .cls-1 {
        fill: #7dbdc7;
      }
    </style>
  </defs>
  <g>
    <path class="cls-1" d="M56.38,87.73c0,2.36-1.62,4.28-3.61,4.28,1.99,0,3.61,1.92,3.61,4.28,0-2.36,1.62-4.28,3.61-4.28-1.99,0-3.61-1.92-3.61-4.28Z"/>
    <path class="cls-1" d="M67.35,26.02c0,2.36-1.62,4.28-3.61,4.28,1.99,0,3.61,1.92,3.61,4.28,0-2.36,1.62-4.28,3.61-4.28-1.99,0-3.61-1.92-3.61-4.28Z"/>
    <path class="cls-1" d="M91.62,103.3c0,2.36-1.62,4.28-3.61,4.28,1.99,0,3.61,1.92,3.61,4.28,0-2.36,1.62-4.28,3.61-4.28-1.99,0-3.61-1.92-3.61-4.28Z"/>
    <circle class="cls-1" cx="45.95" cy="109.3" r="1.35"/>
    <path class="cls-1" d="M34.07,52.37c0,.75-.6,1.35-1.35,1.35s-1.35-.6-1.35-1.35,.6-1.35,1.35-1.35,1.35,.6,1.35,1.35Z"/>
    <circle class="cls-1" cx="115.94" cy="53.21" r="1.35"/>
  </g>
  <g>
    <path class="cls-1" d="M41.39,91.95c7.7,0,13.96-6.26,13.96-13.96,0,0,0-.01,0-.02,0-.07-.01-.13-.02-.2,0-.05,0-.1-.02-.15,0-.04-.03-.08-.04-.12-.02-.07-.04-.14-.07-.21,0,0,0,0,0-.01l-11.14-24.89h19.83v62.86h-22.5c-.96,0-1.73,.77-1.73,1.73s.77,1.73,1.73,1.73h60.58c.96,0,1.73-.77,1.73-1.73s-.77-1.73-1.73-1.73h-22.5V52.38h19.83l-11.14,24.89s0,0,0,.01c-.03,.07-.05,.14-.07,.21-.01,.04-.03,.08-.04,.12-.01,.05-.01,.1-.02,.15,0,.07-.02,.13-.02,.2,0,0,0,.01,0,.02,0,7.7,6.26,13.96,13.96,13.96s13.96-6.26,13.96-13.96c0,0,0-.01,0-.02,0-.07-.01-.13-.02-.2,0-.05,0-.1-.02-.15,0-.04-.03-.08-.04-.12-.02-.07-.04-.14-.07-.21,0,0,0,0,0-.01l-12.22-27.29s0,0,0,0v-.03s-.03-.02-.04-.03c-.06-.12-.13-.23-.21-.34-.02-.03-.04-.06-.07-.08-.1-.11-.2-.2-.33-.28-.01,0-.03-.02-.05-.02-.11-.07-.23-.12-.35-.16-.04-.01-.07-.02-.11-.03-.14-.04-.29-.06-.44-.06H41.39c-.15,0-.3,.03-.44,.06-.04,0-.07,.02-.11,.03-.12,.04-.24,.1-.35,.16-.01,0-.03,.02-.05,.02-.12,.08-.23,.18-.33,.28-.02,.03-.05,.05-.07,.08-.08,.1-.16,.22-.21,.34,0,.01-.02,.02-.02,.03v.03s-.02,0-.02,0l-12.22,27.29s0,0,0,.01c-.03,.07-.05,.14-.07,.21-.01,.04-.03,.08-.04,.12-.01,.05-.01,.1-.02,.15,0,.07-.02,.13-.02,.2,0,0,0,.01,0,.02,0,7.7,6.26,13.96,13.96,13.96Zm60.58-3.46c-5.2,0-9.53-3.8-10.36-8.77h20.72c-.83,4.97-5.16,8.77-10.36,8.77Zm9.56-12.23h-19.12l9.56-21.36,9.56,21.36Zm-44.19-23.58h8.67v62.57h-8.67V52.67Zm-25.96,2.22l9.56,21.36H31.83l9.56-21.36Zm10.36,24.82c-.83,4.97-5.16,8.77-10.36,8.77s-9.53-3.8-10.36-8.77h20.72Z"/>
    <path class="cls-1" d="M41.39,36.69c-.96,0-1.73,.77-1.73,1.73s.77,1.73,1.73,1.73h60.58c.96,0,1.73-.77,1.73-1.73s-.77-1.73-1.73-1.73H41.39Z"/>
  </g>
</svg>