<?xml version="1.0" encoding="UTF-8"?>
<svg id="OBJECTS" xmlns="http://www.w3.org/2000/svg" viewBox="0 0 144.72 144.72">
  <defs>
    <style>
      .cls-1 {
        fill: #7dbdc7;
      }
    </style>
  </defs>
  <path class="cls-1" d="M112.26,86.8l-.66-.75c-2.64-2.99-3.73-4.23-6.06-4.86-1.81-.49-3.95,.1-6.43,.78-2.97,.82-6.3,1.73-8.88,.56,.19-.33,.37-.66,.54-1,7.31-.39,12.91-2.79,16.63-7.13,5.79-6.75,4.84-15.64,4.79-16.02-.11-.93-.95-1.6-1.89-1.5-.94,.11-1.61,.95-1.5,1.89,0,.08,.81,7.84-4.01,13.43-2.83,3.28-7.06,5.22-12.59,5.79,.31-1.02,.56-2.07,.72-3.14,8.86-3.43,10.36-11.12,10.55-14.69h.02c.45,0,.88-.18,1.2-.49,.32-.32,.51-.76,.51-1.21,0-11.25-7.16-16.39-8.94-17.49-4.75-6.75-12.61-6.56-16.15-5.49-.73,.22-1.23,.9-1.21,1.67,.01,.76,.54,1.43,1.28,1.62,4.97,1.29,6.45,4.51,6.9,6.48h-.53s-11.07-6.98-11.07-6.98c-.47-.3-1.05-.34-1.57-.13-.51,.21-.89,.66-1.01,1.2-1.4,6.26,4.99,13.18,5.26,13.47,.15,.16,.33,.29,.53,.38l14.54,6.7c.18,.08,.37,.12,.56,.14-.44,1.56-1.67,3.93-5.04,4.97-4.26-2.51-11.04-3.69-17.78-3.69s-13.37,1.15-17.64,3.61c-3.18-1.07-4.36-3.36-4.79-4.88,.19-.02,.38-.06,.56-.14l14.54-6.7c.2-.09,.38-.22,.53-.38,.27-.29,6.66-7.21,5.26-13.47-.12-.54-.5-.99-1.01-1.2-.51-.21-1.1-.17-1.57,.13l-11.07,6.98h-.54c.42-1.96,1.89-5.17,6.91-6.48,.74-.19,1.26-.85,1.28-1.62,.01-.76-.48-1.45-1.21-1.67-3.54-1.07-11.4-1.25-16.15,5.49-1.79,1.11-8.94,6.25-8.94,17.49,0,.46,.18,.89,.51,1.21,.32,.31,.75,.49,1.2,.49h.02c.19,3.51,1.64,11.03,10.14,14.54,.16,1.11,.41,2.2,.73,3.26-5.33-.63-9.43-2.55-12.18-5.75-4.82-5.59-4.02-13.34-4.01-13.43,.11-.93-.56-1.78-1.5-1.89-.93-.12-1.78,.56-1.89,1.5-.04,.37-1,9.27,4.79,16.02,3.66,4.26,9.12,6.65,16.23,7.11,.2,.39,.41,.77,.63,1.15-2.54,.96-5.71,.1-8.56-.68-2.48-.68-4.61-1.26-6.43-.78-2.33,.63-3.42,1.87-6.06,4.86l-.66,.75c-3.56,4.02-2.64,8.99-2.6,9.2,.16,.81,.87,1.38,1.67,1.38,.11,0,.22-.01,.33-.03,.92-.18,1.53-1.08,1.35-2,0-.03-.61-3.55,1.81-6.29l.67-.75c2.52-2.86,3.1-3.47,4.39-3.82,.92-.25,2.81,.27,4.64,.77,3.49,.96,7.73,2.12,11.45,.26,.4,.49,.83,.97,1.27,1.42-.8,.64-1.56,1.12-1.88,1.16-1.06,0-6.94-.74-10.39-1.21-.59-.09-1.17,.15-1.54,.6l-9.06,10.95c-.19,.23-.31,.5-.37,.79-.09,.54-.87,5.37,1.31,8.39,.33,.46,.86,.71,1.39,.71,.34,0,.69-.1,1-.32,.76-.55,.94-1.62,.39-2.38-1.01-1.41-.94-4.06-.78-5.38l8.15-9.85c2.45,.33,8.53,1.12,9.91,1.12,1.49,0,3.25-1.23,4.48-2.28,.6,.45,1.23,.88,1.88,1.27-.88,1.12-2.21,1.91-2.86,2.21l-5.41,1.39c-.51,.13-.93,.49-1.14,.98l-1.87,4.35c-.21,.48-.18,1.03,.07,1.49l4.38,8c.31,.57,.89,.89,1.5,.89,.28,0,.56-.07,.82-.21,.83-.45,1.13-1.49,.68-2.32l-3.98-7.27,1.21-2.81,4.74-1.22c.08-.02,.16-.05,.24-.08,.14-.06,3.03-1.31,4.72-3.85,2.58,1.05,5.41,1.64,8.36,1.64s6.01-.63,8.67-1.76c1.67,2.62,4.66,3.91,4.8,3.97,.08,.03,.16,.06,.24,.08l4.74,1.22,1.21,2.81-3.98,7.27c-.45,.83-.15,1.86,.68,2.32,.26,.14,.54,.21,.82,.21,.6,0,1.19-.32,1.5-.89l4.38-8c.25-.46,.28-1.01,.07-1.49l-1.87-4.35c-.21-.48-.63-.85-1.14-.98l-5.41-1.39c-.41-.19-2.01-1.03-2.99-2.38,.63-.39,1.23-.81,1.82-1.26,1.24,1.08,3.1,2.44,4.67,2.44,1.38,0,7.46-.79,9.91-1.12l8.15,9.85c.15,1.29,.23,3.98-.78,5.38-.55,.76-.38,1.83,.39,2.38,.3,.22,.65,.32,1,.32,.53,0,1.05-.25,1.39-.71,2.18-3.02,1.4-7.85,1.31-8.39-.05-.29-.18-.56-.37-.79l-9.06-10.95c-.38-.45-.95-.69-1.54-.6-3.46,.47-9.33,1.21-10.37,1.21-.37-.05-1.24-.61-2.13-1.34,.42-.45,.83-.91,1.22-1.39,3.79,2.06,8.15,.87,11.73-.11,1.83-.5,3.72-1.02,4.64-.77,1.29,.35,1.87,.96,4.39,3.82l.66,.75c2.42,2.73,1.83,6.14,1.81,6.3-.18,.92,.43,1.81,1.35,1.99,.11,.02,.22,.03,.33,.03,.8,0,1.51-.56,1.67-1.38,.04-.21,.96-5.18-2.6-9.2Zm-31.82-36.58c-1.23-1.39-3.47-4.46-4.14-7.42l8.83,5.56c.27,.17,.57,.26,.89,.26l2.91,.04c.91,0,1.67-.7,1.72-1.61,.12-2.09-.66-5.69-3.63-8.46,2.25,.49,4.73,1.74,6.63,4.58,.16,.23,.37,.42,.61,.56,.07,.04,6.71,3.7,7.46,12.98l-7.4-.1-13.89-6.4Zm16.86,9.85l2.79,.04c-.13,2.6-1.14,7.95-6.93,10.91-.1-1.33-.6-2.52-1.43-3.57,3.58-1.84,5.11-5.03,5.57-7.38Zm-49.23-16.34c.25-.13,.46-.32,.61-.56,1.89-2.84,4.37-4.09,6.63-4.58-2.97,2.76-3.75,6.37-3.63,8.46,.05,.91,.83,1.59,1.72,1.61l2.91-.04c.31,0,.62-.09,.89-.26l8.83-5.56c-.67,2.96-2.91,6.03-4.14,7.42l-13.89,6.4-7.4,.1c.73-9.19,7.18-12.83,7.46-12.98Zm.73,27.08c-5.45-3-6.42-8.17-6.55-10.71l2.79-.04c.45,2.29,1.91,5.37,5.3,7.23-.86,1.03-1.41,2.2-1.55,3.52Zm22.18,19.47c-10.37,0-18.8-8.43-18.8-18.8,0-3.81,8.26-6.79,18.8-6.79,5.1,0,10.02,.74,13.51,2.02,1.98,.73,5.29,2.32,5.29,4.77,0,10.37-8.43,18.8-18.8,18.8Z"/>
  <g>
    <path class="cls-1" d="M113.78,73.21c0,2.36-1.62,4.28-3.61,4.28,1.99,0,3.61,1.92,3.61,4.28,0-2.36,1.62-4.28,3.61-4.28-1.99,0-3.61-1.92-3.61-4.28Z"/>
    <path class="cls-1" d="M71.17,50.16c0,2.36-1.62,4.28-3.61,4.28,1.99,0,3.61,1.92,3.61,4.28,0-2.36,1.62-4.28,3.61-4.28-1.99,0-3.61-1.92-3.61-4.28Z"/>
    <path class="cls-1" d="M69.35,98.21c.16,2.36-1.33,4.38-3.32,4.51,1.99-.13,3.73,1.67,3.89,4.03-.16-2.36,1.33-4.38,3.32-4.51-1.99,.13-3.73-1.67-3.89-4.03Z"/>
    <circle class="cls-1" cx="83.31" cy="99.61" r="1.35"/>
    <path class="cls-1" d="M61.03,60.07c0,.75-.6,1.35-1.35,1.35s-1.35-.6-1.35-1.35,.6-1.35,1.35-1.35,1.35,.6,1.35,1.35Z"/>
    <circle class="cls-1" cx="30.03" cy="77.28" r="1.35"/>
  </g>
</svg>