<?xml version="1.0" encoding="UTF-8"?>
<svg id="OBJECTS" xmlns="http://www.w3.org/2000/svg" viewBox="0 0 144.72 144.72">
  <defs>
    <style>
      .cls-1 {
        fill: #7dbdc7;
      }
    </style>
  </defs>
  <g>
    <path class="cls-1" d="M109.29,87.52c-4.23-3.83-8.22-7.45-8.72-14.5-.77-10.85-6.1-29.06-33.23-29.06-8.24,0-13.79,1.63-16.97,5-3.52,3.73-3.25,8.59-3.05,12.15,.08,1.38,.17,2.95-.09,3.58-.6,1.47-2.77,3.59-4.87,5.64-3.76,3.67-8.01,7.83-8.01,12.41,0,3.98,2.58,6.58,4.66,8.67,2,2.02,2.85,3.02,2.58,4.21-.07,.32-.44,.47-2.46,.75-3.62,.5-9.67,1.34-12.14,11.22-.28,1.14,.41,2.29,1.54,2.57,1.13,.28,2.29-.41,2.57-1.54,1.78-7.1,5.25-7.59,8.61-8.05,2.22-.31,5.26-.73,6.01-4,.83-3.58-1.58-6.01-3.7-8.15-1.76-1.78-3.43-3.46-3.43-5.68,0-2.79,3.58-6.29,6.74-9.38,2.52-2.47,4.9-4.79,5.83-7.08,.61-1.51,.51-3.32,.39-5.41-.17-3.09-.37-6.6,1.9-9,2.3-2.43,6.97-3.67,13.89-3.67,22.5,0,28.19,13.66,29,25.11,.62,8.75,5.65,13.32,10.1,17.35,4.98,4.51,8.91,8.07,6.28,16.83-.34,1.12,.3,2.3,1.42,2.64,.2,.06,.41,.09,.61,.09,.91,0,1.76-.59,2.03-1.51,3.39-11.32-2.4-16.57-7.5-21.19Z"/>
    <path class="cls-1" d="M98.59,105.99c-2.27-.07-4.44-.17-6.46-.34-.65-1.47-1.57-4.63,.44-7.83,4.96-7.87,3-11.18-.3-14.99-.42-.49-.87-1-1.3-1.56-.39-.49-.62-.95-.76-1.39-.01-.05-.03-.1-.04-.15-.24-.94,0-1.84,.3-3,.88-3.37,1.18-6.68-4.67-10.1-9.18-5.36-9.52-11.44-9.53-11.67-.02-1.16-.96-2.09-2.12-2.09-14.98,0-21.3,10-22.17,18.56-.27,2.63-.06,5.39,.62,8.11-1.56,1.54-4.2,4.86-4.23,9.74-.01,2.7,1.5,5.06,2.97,7.35,2.45,3.83,3.65,6.06,.88,8.98-2.13,.2-4.44,.3-6.86,.38-1.17,.04-2.09,1.02-2.05,2.19,.04,1.15,.98,2.05,2.12,2.05,.02,0,.05,0,.07,0,8.81-.28,19.77-.63,22.24-8.72,.06-.2,.09-.41,.09-.62v-4.08c1.37,.52,2.8,.97,4.34,1.29,.36,.07,.74,.05,1.08-.06,.16-.05,1.28-.43,2.87-1.19v4.04c0,.21,.03,.42,.09,.62,2.47,8.09,13.43,8.44,22.24,8.72,.02,0,.05,0,.07,0,1.14,0,2.08-.9,2.12-2.05,.04-1.17-.88-2.15-2.05-2.19Zm-35.01-5.45c-.8,2.17-2.95,3.43-5.94,4.21,1.32-4.04-1.02-7.73-2.74-10.4-1.18-1.85-2.3-3.59-2.3-5.04,.01-2.18,.79-3.91,1.63-5.15,1.93,4.14,5.05,7.88,9.35,10.55v5.84Zm8.85-6.73c-11.72-2.69-17.12-13.24-16.24-21.96,.68-6.77,5.31-13.98,16.18-14.69,.78,2.96,3.27,8.45,11.28,13.13,3.56,2.08,3.29,3.11,2.71,5.37-.34,1.31-.76,2.93-.4,4.76-1.93,8.4-11.24,12.5-13.53,13.39Zm7.92,6.73v-6.11c3.06-2.05,6.39-5.04,8.39-9.19,.11,.12,.21,.25,.32,.37,2.46,2.84,3.58,4.13-.08,9.95-2.22,3.52-2.11,6.96-1.51,9.45-3.61-.73-6.22-2.03-7.11-4.47Z"/>
    <path class="cls-1" d="M68.75,74.76c-.3-.51-.95-.67-1.45-.38-2.36,1.38-4.81,.06-4.93,0-.51-.29-1.15-.11-1.44,.4-.29,.51-.11,1.16,.4,1.45,.1,.05,1.63,.91,3.65,.91,1.04,0,2.22-.23,3.39-.91,.51-.3,.68-.94,.38-1.45Z"/>
    <path class="cls-1" d="M83.79,74.76c-.3-.51-.95-.67-1.45-.38-2.36,1.38-4.81,.06-4.93,0-.51-.29-1.15-.11-1.44,.4-.29,.51-.11,1.16,.4,1.45,.1,.05,1.63,.91,3.65,.91,1.04,0,2.22-.23,3.39-.91,.51-.3,.68-.94,.38-1.45Z"/>
    <path class="cls-1" d="M75.59,84.66h-5.77c-.59,0-1.06,.47-1.06,1.06s.47,1.06,1.06,1.06h5.77c.59,0,1.06-.47,1.06-1.06s-.47-1.06-1.06-1.06Z"/>
  </g>
  <g>
    <path class="cls-1" d="M108.22,70.61c0,2.36-1.62,4.28-3.61,4.28,1.99,0,3.61,1.92,3.61,4.28,0-2.36,1.62-4.28,3.61-4.28-1.99,0-3.61-1.92-3.61-4.28Z"/>
    <path class="cls-1" d="M73.71,34.49c0,2.36-1.62,4.28-3.61,4.28,1.99,0,3.61,1.92,3.61,4.28,0-2.36,1.62-4.28,3.61-4.28-1.99,0-3.61-1.92-3.61-4.28Z"/>
    <path class="cls-1" d="M40.91,57.91c.16,2.36-1.33,4.38-3.32,4.51,1.99-.13,3.73,1.67,3.89,4.03-.16-2.36,1.33-4.38,3.32-4.51-1.99,.13-3.73-1.67-3.89-4.03Z"/>
    <circle class="cls-1" cx="99.29" cy="54.46" r="1.35"/>
    <circle class="cls-1" cx="58.09" cy="41.7" r="1.35"/>
    <path class="cls-1" d="M34.88,92.93c0,.75-.6,1.35-1.35,1.35s-1.35-.6-1.35-1.35,.6-1.35,1.35-1.35,1.35,.6,1.35,1.35Z"/>
  </g>
</svg>