<?xml version="1.0" encoding="UTF-8"?>
<svg id="OBJECTS" xmlns="http://www.w3.org/2000/svg" viewBox="0 0 144.72 144.72">
  <defs>
    <style>
      .cls-1 {
        fill: #7dbdc7;
      }
    </style>
  </defs>
  <g>
    <path class="cls-1" d="M47.1,60.8c-2.69,1.93-5.65,5-7.16,9.73-.16,.5-.09,1.04,.2,1.48,.28,.44,.75,.72,1.27,.78,.08,0,.58,.06,1.39,.06,1.98,0,5.78-.31,9.48-2.27v12.97c0,4.94,2.36,6.29,4.86,7.72,.7,.4,1.41,.82,2.15,1.34-.29,.84-.45,1.73-.45,2.64,0,3.51,2.26,6.62,5.7,8.51v1.72c0,4.31,3.51,7.82,7.82,7.82s7.82-3.51,7.82-7.82v-1.72c3.44-1.9,5.7-5,5.7-8.51,0-.37-.03-.73-.07-1.09,.42-.34,.83-.67,1.23-.98,2.9-2.28,5.41-4.24,5.41-9.62v-6.96c.05-.34,.08-.69,.07-1.04,0-.15-.03-.3-.07-.44v-4.63c3.77,2.06,7.67,2.37,9.69,2.37,.8,0,1.31-.05,1.39-.06,.52-.06,.99-.34,1.27-.78,.29-.44,.36-.98,.2-1.48-1.52-4.76-4.5-7.84-7.2-9.76,5.9-1.05,10.44-3.52,13.54-7.38,6.53-8.15,4.11-19.36,4-19.83-.19-.86-1.01-1.43-1.88-1.34-.88,.1-1.54,.84-1.54,1.72,0,13.1-20.99,13.28-21.2,13.28H54.02c-.21,0-21.2-.18-21.2-13.28,0-.88-.66-1.63-1.54-1.72-.88-.09-1.69,.48-1.88,1.34-.11,.47-2.52,11.68,4,19.83,3.13,3.91,7.72,6.38,13.71,7.41Zm45.34-10.17c6.17-.31,14.94-2.29,19.64-7.71-.43,2.75-1.42,5.74-3.47,8.3-3.3,4.12-8.74,6.35-16.17,6.63v-7.22Zm0,11.09c1.97,.84,6,3.04,8.31,7.6-2.18-.17-5.47-.83-8.31-2.99v-4.61Zm-15.73,43.76c0,2.4-1.95,4.35-4.35,4.35s-4.35-1.95-4.35-4.35v-.35c1.37,.36,2.83,.57,4.35,.57s2.98-.2,4.35-.57v.35Zm3.47-5.85v-3.26c0-.96-.78-1.73-1.73-1.73s-1.73,.78-1.73,1.73v5.16c-1.32,.44-2.79,.7-4.35,.7s-3.03-.26-4.35-.7v-5.17c0-.96-.78-1.73-1.73-1.73s-1.73,.78-1.73,1.73v3.26c-1.39-1.2-2.23-2.72-2.23-4.38,0-.83,.22-1.63,.6-2.37,0-.02,.02-.03,.03-.05,1.42-2.67,5.1-4.58,9.42-4.58,5.54,0,10.05,3.14,10.05,6.99,0,1.66-.84,3.18-2.23,4.38Zm8.79-23.32c-.13,.61-.44,1.18-.91,1.65-.67,.66-1.57,1.04-2.55,1.05-.96,.02-1.89-.32-2.59-.96-.64-.59-1-1.36-1.05-2.19,3.17-.96,5.48-2.32,7.1-3.59v4.04Zm-33.22-25.62h33.22v16.7c-.95,1.33-5.28,6.3-16.61,6.3s-15.57-5.17-16.61-6.7v-16.3Zm0,21.31c1.65,1.36,3.99,2.81,7.22,3.83-.08,1.78-1.65,3.18-3.57,3.18-.02,0-.05,0-.07,0-.97-.02-1.88-.39-2.55-1.05-.65-.64-.99-1.47-.98-2.34,0-.15-.02-.28-.05-.42v-3.19Zm0,9.5c1.05,.61,2.25,.96,3.51,.98,.05,0,.09,0,.14,0,3.53,0,6.48-2.53,6.97-5.83,1.79,.32,3.77,.51,5.99,.51s4.3-.19,6.11-.5c.22,1.51,.95,2.89,2.11,3.95,1.32,1.21,3.04,1.87,4.85,1.87,.05,0,.09,0,.14,0,1.21-.02,2.37-.34,3.39-.91v1.98c0,3.69-1.36,4.76-4.08,6.9-.11,.09-.24,.19-.36,.29-2.18-3.51-6.81-5.94-12.17-5.94-4.76,0-8.94,1.91-11.35,4.8-.78-.53-1.51-.96-2.14-1.32-2.27-1.3-3.12-1.79-3.12-4.72v-2.06Zm-3.47-15.01c-2.78,2.03-5.97,2.67-8.11,2.84,2.24-4.44,6.07-6.62,8.11-7.51v4.67Zm0-15.84v7.22c-7.43-.29-12.87-2.51-16.17-6.62-2.05-2.55-3.04-5.55-3.47-8.31,4.71,5.41,13.48,7.39,19.64,7.7Z"/>
    <path class="cls-1" d="M62.74,61.35h7.89v7.47c0,.96,.78,1.73,1.73,1.73s1.73-.78,1.73-1.73v-7.47h7.71c.96,0,1.73-.78,1.73-1.73s-.78-1.73-1.73-1.73h-19.07c-.96,0-1.73,.78-1.73,1.73s.78,1.73,1.73,1.73Z"/>
  </g>
  <g>
    <path class="cls-1" d="M44.18,80.9c0,2.36-1.62,4.28-3.61,4.28,1.99,0,3.61,1.92,3.61,4.28,0-2.36,1.62-4.28,3.61-4.28-1.99,0-3.61-1.92-3.61-4.28Z"/>
    <path class="cls-1" d="M80.32,31.43c0,2.36-1.62,4.28-3.61,4.28,1.99,0,3.61,1.92,3.61,4.28,0-2.36,1.62-4.28,3.61-4.28-1.99,0-3.61-1.92-3.61-4.28Z"/>
    <path class="cls-1" d="M96.6,89.46c0,2.36-1.62,4.28-3.61,4.28,1.99,0,3.61,1.92,3.61,4.28,0-2.36,1.62-4.28,3.61-4.28-1.99,0-3.61-1.92-3.61-4.28Z"/>
    <circle class="cls-1" cx="100.75" cy="82.25" r="1.35"/>
    <circle class="cls-1" cx="65.41" cy="41.61" r="1.35"/>
    <path class="cls-1" d="M38.47,64.22c0,.75-.6,1.35-1.35,1.35s-1.35-.6-1.35-1.35,.6-1.35,1.35-1.35,1.35,.6,1.35,1.35Z"/>
  </g>
</svg>